<?xml version="1.0" encoding="UTF-8" standalone="no"?>
<!-- Created with Inkscape (http://www.inkscape.org/) -->

<svg
   xmlns:dc="http://purl.org/dc/elements/1.1/"
   xmlns:cc="http://creativecommons.org/ns#"
   xmlns:rdf="http://www.w3.org/1999/02/22-rdf-syntax-ns#"
   xmlns:svg="http://www.w3.org/2000/svg"
   xmlns="http://www.w3.org/2000/svg"
   xmlns:sodipodi="http://sodipodi.sourceforge.net/DTD/sodipodi-0.dtd"
   xmlns:inkscape="http://www.inkscape.org/namespaces/inkscape"
   width="100"
   height="100"
   id="svg3799"
   version="1.1"
   inkscape:version="0.48.4 r9939"
   sodipodi:docname="Nou document 4">
  <defs
     id="defs3801" />
  <sodipodi:namedview
     id="base"
     pagecolor="#ffffff"
     bordercolor="#666666"
     borderopacity="1.0"
     inkscape:pageopacity="0.0"
     inkscape:pageshadow="2"
     inkscape:zoom="0.98994949"
     inkscape:cx="133.71329"
     inkscape:cy="192.4982"
     inkscape:document-units="px"
     inkscape:current-layer="capa1"
     showgrid="false"
     inkscape:window-width="1440"
     inkscape:window-height="845"
     inkscape:window-x="0"
     inkscape:window-y="27"
     inkscape:window-maximized="1" />
  <metadata
     id="metadata3804">
    <rdf:RDF>
      <cc:Work
         rdf:about="">
        <dc:format>image/svg+xml</dc:format>
        <dc:type
           rdf:resource="http://purl.org/dc/dcmitype/StillImage" />
        <dc:title></dc:title>
      </cc:Work>
    </rdf:RDF>
  </metadata>
  <g
     inkscape:label="Capa 1"
     inkscape:groupmode="layer"
     id="capa1"
     transform="translate(0,-952.36218)">
    <path
       inkscape:connector-curvature="0"
       id="path3988"
       d="m 34.327289,1036.1896 c -8.990918,-2.7774 -9.804045,-3.1602 -10.803524,-5.0862 -0.494894,-0.9537 -2.928504,-11.1782 -2.792523,-11.7327 0.04827,-0.196 1.441389,0.1379 3.985068,0.9552 2.15116,0.6909 3.971242,1.3169 4.044766,1.3903 0.07367,0.072 0.304115,0.8887 0.512859,1.8112 0.208308,0.9225 0.440241,1.9427 0.514854,2.2667 0.07476,0.323 0.501282,1.006 0.948128,1.5148 0.844264,0.9617 1.718069,1.2948 8.386353,3.199 3.11551,0.8895 3.792039,0.7291 6.226774,-1.4774 0.959342,-0.8691 1.78996,-1.5808 1.845811,-1.5808 0.319358,0 7.71476,2.4609 7.888774,2.6253 0.29976,0.283 -7.836805,7.8975 -8.925232,8.3522 -1.725472,0.7211 -3.090434,0.4627 -11.832108,-2.2376 z m 43.656876,-4.6757 c -3.558836,-1.0909 -19.820208,-6.0765 -36.136379,-11.0792 -19.116716,-5.8609 -30.064349,-9.0951 -30.786459,-9.0951 -1.7636858,0 -3.5889206,0.6717 -5.6137896,2.0667 l -1.869217,1.2876 -0.822309,-1.256 c -3.23751855,-4.9453 -3.69129597,-13.88952 -0.99643,-19.63796 1.179625,-2.51639 1.058741,-2.4772 3.608589,-1.16892 2.171229,1.11412 2.299806,1.14533 4.7407106,1.1446 l 2.509094,-7.2e-4 27.599021,-11.13976 c 39.393422,-15.90071 41.015139,-16.52963 42.972218,-16.66717 2.268705,-0.15968 4.501302,0.8873 6.80187,3.18776 5.615717,5.61561 9.199555,16.12899 9.893395,29.02235 0.909001,16.89252 -3.622778,31.31912 -10.903035,34.70902 -2.280572,1.0619 -3.587396,0.8986 -10.997279,-1.3732 z m 9.168053,-6.6964 c 2.4654,-1.5031 4.616093,-6.9177 5.793903,-14.5862 0.55981,-3.6454 0.6353,-12.65282 0.13536,-16.19075 -1.3822,-9.78721 -4.670017,-17.839 -7.983855,-19.55301 -0.957853,-0.495 -2.441303,-0.495 -3.399157,0 -4.350877,2.25002 -7.489939,14.95354 -6.626333,26.81586 0.838385,11.5161 4.530226,22.0106 8.32593,23.6673 1.162823,0.5073 2.778588,0.4416 3.753861,-0.1524 z"
       style="fill:#1a1a1a" />
  </g>
</svg>
