<?xml version="1.0" encoding="UTF-8" standalone="no"?>
<!-- Created with Inkscape (http://www.inkscape.org/) -->

<svg
   xmlns:dc="http://purl.org/dc/elements/1.1/"
   xmlns:cc="http://creativecommons.org/ns#"
   xmlns:rdf="http://www.w3.org/1999/02/22-rdf-syntax-ns#"
   xmlns:svg="http://www.w3.org/2000/svg"
   xmlns="http://www.w3.org/2000/svg"
   xmlns:xlink="http://www.w3.org/1999/xlink"
   xmlns:sodipodi="http://sodipodi.sourceforge.net/DTD/sodipodi-0.dtd"
   xmlns:inkscape="http://www.inkscape.org/namespaces/inkscape"
   width="100"
   height="100"
   id="svg3008"
   version="1.1"
   inkscape:version="0.48.4 r9939"
   sodipodi:docname="icon-circle-mail.svg">
  <defs
     id="defs3010">
    <defs
       id="defs4733">
      <rect
         id="SVGID_1_-92"
         x="0"
         y="0"
         width="99.941002"
         height="91.085999" />
    </defs>
    <clipPath
       id="SVGID_2_-4">
      <use
         height="1"
         width="1"
         y="0"
         x="0"
         style="overflow:visible"
         xlink:href="#SVGID_1_-92"
         overflow="visible"
         id="use4737" />
    </clipPath>
    <defs
       id="defs4710">
      <rect
         id="SVGID_1_-9"
         x="0"
         y="0.001"
         width="70.989998"
         height="70.988998" />
    </defs>
    <clipPath
       id="SVGID_2_-16">
      <use
         height="1"
         width="1"
         y="0"
         x="0"
         style="overflow:visible"
         xlink:href="#SVGID_1_-9"
         overflow="visible"
         id="use4714" />
    </clipPath>
    <clipPath
       id="SVGID_2_-5-8">
      <rect
         x="0"
         id="use4664-4"
         y="0"
         width="76"
         height="95.635002" />
    </clipPath>
    <clipPath
       id="clipPath4599">
      <rect
         x="0"
         id="use4601"
         y="0"
         width="76"
         height="95.635002" />
    </clipPath>
    <clipPath
       id="clipPath4603">
      <rect
         x="0"
         id="use4605"
         y="0"
         width="76"
         height="95.635002" />
    </clipPath>
    <clipPath
       id="clipPath4607">
      <rect
         x="0"
         id="use4609"
         y="0"
         width="76"
         height="95.635002" />
    </clipPath>
    <clipPath
       id="clipPath4611">
      <rect
         x="0"
         id="use4613"
         y="0"
         width="76"
         height="95.635002" />
    </clipPath>
    <clipPath
       id="clipPath4615">
      <rect
         x="0"
         id="use4617"
         y="0"
         width="76"
         height="95.635002" />
    </clipPath>
    <clipPath
       id="clipPath4619">
      <rect
         x="0"
         id="use4621"
         y="0"
         width="76"
         height="95.635002" />
    </clipPath>
    <clipPath
       id="clipPath4623">
      <rect
         x="0"
         id="use4625"
         y="0"
         width="76"
         height="95.635002" />
    </clipPath>
    <clipPath
       id="clipPath4627">
      <rect
         x="0"
         id="use4629"
         y="0"
         width="76"
         height="95.635002" />
    </clipPath>
    <clipPath
       id="SVGID_2_-4-1">
      <use
         height="1"
         width="1"
         y="0"
         x="0"
         style="overflow:visible"
         xlink:href="#SVGID_1_-92"
         overflow="visible"
         id="use4737-2" />
    </clipPath>
    <clipPath
       id="SVGID_2_-01">
      <rect
         y="0"
         x="0"
         id="use5945"
         width="99.083"
         height="100" />
    </clipPath>
    <clipPath
       id="clipPath5720">
      <rect
         y="0"
         x="0"
         id="use5722"
         width="99.083"
         height="100" />
    </clipPath>
    <clipPath
       id="clipPath5724">
      <rect
         y="0"
         x="0"
         id="use5726"
         width="99.083"
         height="100" />
    </clipPath>
    <clipPath
       id="SVGID_2_-3">
      <rect
         y="0"
         x="0"
         id="use5919"
         width="99.999001"
         height="100.001" />
    </clipPath>
    <clipPath
       id="clipPath5802">
      <rect
         y="0"
         x="0"
         id="use5804"
         width="99.999001"
         height="100.001" />
    </clipPath>
  </defs>
  <sodipodi:namedview
     id="base"
     pagecolor="#ffffff"
     bordercolor="#666666"
     borderopacity="1.0"
     inkscape:pageopacity="0.0"
     inkscape:pageshadow="2"
     inkscape:zoom="2.8284271"
     inkscape:cx="118.93259"
     inkscape:cy="94.818203"
     inkscape:document-units="px"
     inkscape:current-layer="capa1"
     showgrid="false"
     inkscape:window-width="1440"
     inkscape:window-height="845"
     inkscape:window-x="0"
     inkscape:window-y="27"
     inkscape:window-maximized="1"
     showguides="true"
     inkscape:guide-bbox="true">
    <sodipodi:guide
       orientation="1,0"
       position="517.1981,771.25147"
       id="guide4126" />
    <sodipodi:guide
       orientation="1,0"
       position="550.71429,709.28572"
       id="guide4366" />
    <sodipodi:guide
       orientation="1,0"
       position="529.26943,-512.29886"
       id="guide5163" />
    <sodipodi:guide
       orientation="0,1"
       position="248.90159,-436.28488"
       id="guide5378" />
    <sodipodi:guide
       orientation="1,0"
       position="613.06158,596.09101"
       id="guide4779" />
  </sodipodi:namedview>
  <metadata
     id="metadata3013">
    <rdf:RDF>
      <cc:Work
         rdf:about="">
        <dc:format>image/svg+xml</dc:format>
        <dc:type
           rdf:resource="http://purl.org/dc/dcmitype/StillImage" />
        <dc:title></dc:title>
      </cc:Work>
    </rdf:RDF>
  </metadata>
  <g
     inkscape:label="Capa 1"
     inkscape:groupmode="layer"
     id="capa1"
     style="display:inline"
     transform="translate(0,-952.36218)">
    <text
       xml:space="preserve"
       style="font-size:40px;font-style:normal;font-weight:normal;line-height:125%;letter-spacing:0px;word-spacing:0px;fill:#000000;fill-opacity:1;stroke:none;font-family:Sans"
       x="241.42645"
       y="248.28076"
       id="text4128"
       sodipodi:linespacing="125%"><tspan
         sodipodi:role="line"
         id="tspan4130"
         x="241.42645"
         y="248.28076" /></text>
    <flowRoot
       xml:space="preserve"
       id="flowRoot4132"
       style="font-size:40px;font-style:normal;font-weight:normal;line-height:125%;letter-spacing:0px;word-spacing:0px;fill:#000000;fill-opacity:1;stroke:none;font-family:Sans"><flowRegion
         id="flowRegion4134"><rect
           id="rect4136"
           width="319.20819"
           height="51.012703"
           x="228.79955"
           y="306.8696" /></flowRegion><flowPara
         id="flowPara4138" /></flowRoot>    <flowRoot
       xml:space="preserve"
       id="flowRoot4299"
       style="font-size:40px;font-style:normal;font-weight:normal;line-height:125%;letter-spacing:0px;word-spacing:0px;fill:#000000;fill-opacity:1;stroke:none;font-family:Sans"><flowRegion
         id="flowRegion4301"><rect
           id="rect4303"
           width="23.233509"
           height="49.497475"
           x="587.90875"
           y="181.61069" /></flowRegion><flowPara
         id="flowPara4305" /></flowRoot>    <path
       inkscape:connector-curvature="0"
       id="path3832-9-8"
       d="m 45.124308,1052.313 c -12.080714,-1.4366 -22.259363,-6.2883 -30.515454,-14.5442 -7.6122546,-7.6121 -12.3643906,-16.9448 -14.21121862,-27.909 -0.51316901,-3.0462 -0.51316901,-11.94641 0,-14.99263 1.82798302,-10.85223 6.57587002,-20.24183 14.01056962,-27.70842 4.26831,-4.28641 8.340619,-7.21866 13.602025,-9.7934 4.65791,-2.27952 9.192202,-3.723 14.507394,-4.61832 3.046421,-0.51312 11.946498,-0.51312 14.992869,0 8.987154,1.51386 17.116128,5.11305 23.993518,10.62319 2.13216,1.70856 5.79477,5.37113 7.50314,7.50358 4.55508,5.68505 8.00055,12.63977 9.70647,19.59249 1.11036,4.52535 1.27362,6.05046 1.27362,11.89751 0,5.8465 -0.16346,7.3716 -1.27362,11.8969 -1.70592,6.9527 -5.15139,13.9075 -9.70647,19.5926 -1.70837,2.1324 -5.37098,5.795 -7.50314,7.5035 -5.54718,4.4444 -12.47541,7.9145 -19.211489,9.6221 -4.246515,1.0762 -6.18447,1.3062 -11.496113,1.3626 -2.743149,0.05 -5.295597,0 -5.672101,-0.05 z m 1.7603,-15.9169 0,-8.9972 -6.845601,0 c -5.043561,0 -6.845651,0.06 -6.845651,0.2249 0,0.4349 2.580041,5.1622 3.984282,7.2962 2.298163,3.4926 5.383725,6.9857 8.327023,9.4271 0.693273,0.5748 1.287371,1.0452 1.320212,1.0452 0.03499,0 0.05998,-4.0485 0.05998,-8.9972 z m 8.831094,6.8997 c 2.804333,-2.5628 5.16803,-5.3506 7.27879,-8.5838 1.311865,-2.0095 3.840269,-6.6758 3.840269,-7.0872 0,-0.165 -1.802089,-0.2249 -6.845601,-0.2249 l -6.845651,0 0,9.0102 0,9.0107 0.561057,-0.3999 c 0.308421,-0.2199 1.21364,-0.9957 2.011136,-1.7246 z m -21.633423,-1.7655 c -2.70161,-3.4576 -5.076303,-7.4916 -6.961522,-11.8255 l -0.960304,-2.208 -3.048022,-0.055 c -1.676371,-0.05 -4.373182,-0.05 -5.992918,0 l -2.944898,0.055 1.430834,1.8581 c 3.493958,4.5374 9.100675,9.1907 14.270754,11.844 1.419038,0.7283 5.308144,2.4079 5.609867,2.4224 0.131467,0 -0.500222,-0.9343 -1.403791,-2.091 z m 32.48525,1.3017 c 7.310083,-3.0338 13.851212,-8.088 18.463032,-14.2669 l 0.7973,-1.0683 -2.9321,-0.055 c -1.61264,-0.05 -4.30365,-0.05 -5.980075,0 l -3.048022,0.055 -0.960304,2.208 c -1.885169,4.3339 -4.259912,8.3679 -6.961522,11.8255 -0.903569,1.1567 -1.567499,2.1025 -1.475423,2.1025 0.09198,0 1.035786,-0.3599 2.097114,-0.8008 z m -42.681295,-22.7188 c -0.828289,-3.0977 -1.670124,-8.5628 -1.9583,-12.7132 l -0.132466,-1.907 -7.698983,0 c -7.2023596,0 -7.6989326,0 -7.6981326,0.3399 6.99e-4,0.1899 0.173455,1.5156 0.384401,2.9492 0.585051,3.977 1.623236,7.5676 3.3035556,11.4266 l 0.404397,0.9293 6.834904,0 6.834854,0 -0.27443,-1.0273 z m 22.998374,-6.7967 0,-7.8235 -9.290476,0 -9.290527,0 0.002,1.0267 c 0.005,2.7173 0.787848,8.008 1.794391,12.1269 l 0.609395,2.4934 8.087683,0 8.087684,0 0,-7.8235 z m 23.039364,5.3301 c 0.97745,-4.0285 1.477922,-7.2382 1.72301,-11.0512 l 0.134965,-2.1024 -9.319319,0 -9.319319,0 0,7.8235 0,7.8235 8.087684,0 8.087634,0 0.605145,-2.4934 z m 20.712809,-0.145 c 1.46288,-3.634 2.39104,-7.4446 2.89436,-11.8824 l 0.12747,-1.1247 -7.71308,0 -7.71308,0 -0.13247,1.907 c -0.288424,4.1519 -1.129959,9.6155 -1.958947,12.7162 l -0.27543,1.0293 6.873597,-0.05 6.87359,-0.05 1.02359,-2.5429 z M 21.927934,997.32904 c 0.288426,-4.15194 1.129961,-9.61554 1.95895,-12.71625 l 0.275429,-1.02924 -6.862846,0.05 -6.862847,0.05 -0.8613296,2.05397 c -1.494368,3.56309 -2.607134,7.99646 -3.080613,12.27287 l -0.135465,1.22268 7.7181776,0 7.718228,0 0.132466,-1.90701 z m 24.956674,-5.91699 0,-7.8235 -8.087634,0 -8.087683,0 -0.609395,2.49386 c -1.006593,4.11895 -1.789393,9.4096 -1.794391,12.12641 l -0.002,1.02723 9.290477,0 9.290526,0 0,-7.824 z m 24.762374,5.72104 c -0.244938,-3.81252 -0.74556,-7.0227 -1.72301,-11.05068 l -0.605145,-2.49386 -8.087634,0 -8.087684,0 0,7.8235 0,7.824 9.319319,0 9.319319,0 -0.134965,-2.10296 z m 21.884159,0.97825 c -0.50332,-4.43786 -1.43148,-8.24839 -2.89436,-11.88246 l -1.02359,-2.54235 -6.87359,-0.05 -6.873597,-0.05 0.27543,1.02924 c 0.828988,3.10021 1.670673,8.56381 1.958947,12.71575 l 0.13247,1.90701 7.71308,0 7.71308,0 -0.12747,-1.12471 z M 26.91506,975.46963 c 1.76175,-4.20793 4.397327,-8.71578 7.199061,-12.31286 0.882924,-1.13371 1.531259,-2.06097 1.440782,-2.06097 -0.269432,0 -3.886807,1.5401 -5.361031,2.28242 -3.800079,1.91351 -7.863641,4.86525 -10.992991,7.98496 -1.793842,1.78854 -4.26736,4.70029 -4.862608,5.72503 -0.114971,0.19495 1.061179,0.23494 5.847606,0.19495 l 5.991319,-0.05 0.737862,-1.76255 z m 19.969548,-7.15018 0,-9.0106 -0.537862,0.38341 c -0.986149,0.70322 -3.507354,3.04912 -4.768432,4.43726 -1.772247,1.95001 -3.057419,3.61558 -4.54259,5.887 -1.311265,2.00499 -3.842368,6.67379 -3.842368,7.08719 0,0.16496 1.80209,0.22494 6.845651,0.22494 l 6.845601,0 0,-9.0102 z m 19.950153,8.78476 c 0,-0.4099 -2.528404,-5.0782 -3.840269,-7.08769 -1.433533,-2.19594 -2.89411,-4.07346 -4.65726,-5.98697 -1.282322,-1.39165 -3.746793,-3.69056 -4.632666,-4.32115 l -0.561057,-0.3994 0,9.01045 0,9.0107 6.845651,0 c 5.043512,0 6.845601,-0.06 6.845601,-0.22494 z m 18.7978,-0.11497 c -0.26843,-0.48988 -2.01839,-2.63833 -3.52555,-4.3319 -2.7602,-3.1012 -7.87484,-7.00421 -11.884365,-9.06968 -1.708164,-0.87977 -5.428713,-2.49036 -5.752931,-2.49036 -0.09248,0 0.493874,0.84678 1.302818,1.88202 1.933856,2.47387 2.722104,3.64956 4.339441,6.47234 1.171151,2.04448 2.93475,5.68855 3.553192,7.34163 l 0.200949,0.53786 5.977226,0 c 5.63386,0 5.96637,0 5.78902,-0.34491 z"
       style="fill:#000000;fill-opacity:1" />
  </g>
  <g
     style="display:inline"
     id="g4076"
     inkscape:groupmode="layer"
     inkscape:label="copia Capa 1"
     transform="translate(0,-952.36218)">
    <text
       sodipodi:linespacing="125%"
       id="text4122"
       y="227.06755"
       x="-510.93515"
       style="font-size:40px;font-style:normal;font-weight:normal;line-height:125%;letter-spacing:0px;word-spacing:0px;fill:#000000;fill-opacity:1;stroke:none;font-family:Sans"
       xml:space="preserve"><tspan
         y="227.06755"
         x="-510.93515"
         id="tspan4124"
         sodipodi:role="line" /></text>
    <flowRoot
       style="font-size:40px;font-style:normal;font-weight:normal;line-height:125%;letter-spacing:0px;word-spacing:0px;fill:#000000;fill-opacity:1;stroke:none;font-family:Sans"
       id="flowRoot4126"
       xml:space="preserve"
       transform="translate(-752.3616,-21.213203)"><flowRegion
         id="flowRegion4128"><rect
           y="306.8696"
           x="228.79955"
           height="51.012703"
           width="319.20819"
           id="rect4130" /></flowRegion><flowPara
         id="flowPara4132" /></flowRoot>    <flowRoot
       style="font-size:40px;font-style:normal;font-weight:normal;line-height:125%;letter-spacing:0px;word-spacing:0px;fill:#000000;fill-opacity:1;stroke:none;font-family:Sans"
       id="flowRoot4202"
       xml:space="preserve"
       transform="translate(-752.3616,-21.213203)"><flowRegion
         id="flowRegion4204"><rect
           y="181.61069"
           x="587.90875"
           height="49.497475"
           width="23.233509"
           id="rect4206" /></flowRegion><flowPara
         id="flowPara4208" /></flowRoot>  </g>
  <g
     inkscape:groupmode="layer"
     id="layer1"
     inkscape:label="Mení"
     transform="translate(0,-952.36218)" />
</svg>
