<?xml version="1.0" encoding="UTF-8" standalone="no"?>
<!-- Created with Inkscape (http://www.inkscape.org/) -->

<svg
   xmlns:dc="http://purl.org/dc/elements/1.1/"
   xmlns:cc="http://creativecommons.org/ns#"
   xmlns:rdf="http://www.w3.org/1999/02/22-rdf-syntax-ns#"
   xmlns:svg="http://www.w3.org/2000/svg"
   xmlns="http://www.w3.org/2000/svg"
   xmlns:xlink="http://www.w3.org/1999/xlink"
   xmlns:sodipodi="http://sodipodi.sourceforge.net/DTD/sodipodi-0.dtd"
   xmlns:inkscape="http://www.inkscape.org/namespaces/inkscape"
   width="100"
   height="100"
   id="svg3833"
   version="1.1"
   inkscape:version="0.48.4 r9939"
   sodipodi:docname="icon-events.svg">
  <defs
     id="defs3835">
    <clipPath
       id="SVGID_2_">
      <use
         id="use4573"
         overflow="visible"
         xlink:href="#SVGID_1_"
         style="overflow:visible"
         x="0"
         y="0"
         width="1"
         height="1" />
    </clipPath>
    <clipPath
       id="clipPath3659">
      <use
         id="use3661"
         overflow="visible"
         xlink:href="#SVGID_1_"
         style="overflow:visible"
         x="0"
         y="0"
         width="1"
         height="1" />
    </clipPath>
    <clipPath
       id="clipPath3663">
      <use
         id="use3665"
         overflow="visible"
         xlink:href="#SVGID_1_"
         style="overflow:visible"
         x="0"
         y="0"
         width="1"
         height="1" />
    </clipPath>
    <clipPath
       id="clipPath3667">
      <use
         id="use3669"
         overflow="visible"
         xlink:href="#SVGID_1_"
         style="overflow:visible"
         x="0"
         y="0"
         width="1"
         height="1" />
    </clipPath>
    <clipPath
       id="clipPath3671">
      <use
         id="use3673"
         overflow="visible"
         xlink:href="#SVGID_1_"
         style="overflow:visible"
         x="0"
         y="0"
         width="1"
         height="1" />
    </clipPath>
    <clipPath
       id="clipPath3675">
      <use
         id="use3677"
         overflow="visible"
         xlink:href="#SVGID_1_"
         style="overflow:visible"
         x="0"
         y="0"
         width="1"
         height="1" />
    </clipPath>
  </defs>
  <sodipodi:namedview
     id="base"
     pagecolor="#ffffff"
     bordercolor="#666666"
     borderopacity="1.0"
     inkscape:pageopacity="0.0"
     inkscape:pageshadow="2"
     inkscape:zoom="1.4"
     inkscape:cx="-91.197743"
     inkscape:cy="125.63379"
     inkscape:document-units="px"
     inkscape:current-layer="capa1"
     showgrid="false"
     inkscape:window-width="1440"
     inkscape:window-height="845"
     inkscape:window-x="0"
     inkscape:window-y="27"
     inkscape:window-maximized="1" />
  <metadata
     id="metadata3838">
    <rdf:RDF>
      <cc:Work
         rdf:about="">
        <dc:format>image/svg+xml</dc:format>
        <dc:type
           rdf:resource="http://purl.org/dc/dcmitype/StillImage" />
        <dc:title />
      </cc:Work>
    </rdf:RDF>
  </metadata>
  <g
     inkscape:label="Capa 1"
     inkscape:groupmode="layer"
     id="capa1"
     transform="translate(0,-952.36218)">
    <g
       style="fill:#000000;fill-opacity:1;display:inline"
       id="g4567"
       transform="matrix(1.1944577,0,0,1.1944577,6.7800001e-7,977.68886)"
       inkscape:export-filename="/home/felix/git/xarxanet7/Xarxanet/sites/all/themes/sasson_xarxanet/images/pictos/actes-taronja.png"
       inkscape:export-xdpi="90"
       inkscape:export-ydpi="90">
      <defs
         id="defs4569">
        <rect
           height="41.313"
           width="83.720001"
           y="0"
           id="SVGID_1_"
           x="0" />
      </defs>
      <clipPath
         id="clipPath3682">
        <use
           id="use3684"
           overflow="visible"
           xlink:href="#SVGID_1_"
           style="overflow:visible"
           x="0"
           y="0"
           width="1"
           height="1" />
      </clipPath>
      <path
         style="fill:#000000;fill-opacity:1"
         id="path4575"
         d="m 60.151,21.409 h 5.318 c 0.13,-2.443 0.869,-4.508 2.162,-6.042 V 0 h -51.59 v 15.311 c 1.016,1.185 2.053,3.11 2.21,6.098 h 5.32 c 0.315,-5.965 4.197,-8.693 7.814,-8.693 3.619,0 7.501,2.728 7.816,8.693 h 5.321 c 0.315,-5.965 4.197,-8.693 7.816,-8.693 3.617,0 7.499,2.728 7.813,8.693"
         clip-path="url(#SVGID_2_)"
         inkscape:connector-curvature="0" />
      <path
         style="fill:#000000;fill-opacity:1"
         id="path4577"
         d="m 10.435,16.392 c -2.566,0 -4.16,2.226 -4.16,5.809 0,1.475 0.263,2.715 0.785,3.69 2.131,-0.634 4.595,-0.638 6.751,-10e-4 0.411,-0.771 0.663,-1.712 0.749,-2.801 0.022,-0.287 0.035,-0.588 0.035,-0.891 0,-1.082 -0.146,-2.053 -0.436,-2.887 -0.641,-1.855 -1.999,-2.919 -3.724,-2.919"
         clip-path="url(#SVGID_2_)"
         inkscape:connector-curvature="0" />
      <path
         style="fill:#000000;fill-opacity:1"
         id="path4579"
         d="m 31.385,16.392 c -2.565,0 -4.16,2.226 -4.16,5.809 0,0.303 0.012,0.604 0.035,0.891 0.087,1.09 0.339,2.03 0.75,2.802 0.055,-0.017 0.111,-0.034 0.168,-0.05 l 0.11,-0.029 c 0.174,-0.046 0.308,-0.078 0.443,-0.109 l 0.187,-0.039 c 0.153,-0.031 0.299,-0.059 0.446,-0.084 l 0.111,-0.021 c 0.193,-0.03 0.378,-0.054 0.564,-0.075 l 0.163,-0.015 c 0.134,-0.015 0.284,-0.024 0.436,-0.033 0.075,-0.006 0.126,-0.008 0.178,-0.011 0.186,-0.008 0.377,-0.015 0.57,-0.015 1.167,0 2.301,0.161 3.377,0.479 0.411,-0.771 0.663,-1.712 0.749,-2.8 0.023,-0.289 0.035,-0.59 0.035,-0.891 0,-3.584 -1.595,-5.809 -4.162,-5.809"
         clip-path="url(#SVGID_2_)"
         inkscape:connector-curvature="0" />
      <path
         style="fill:#000000;fill-opacity:1"
         id="path4581"
         d="m 52.335,16.392 c -2.564,0 -4.159,2.226 -4.159,5.809 0,0.303 0.013,0.604 0.034,0.891 0.087,1.087 0.339,2.027 0.748,2.8 1.076,-0.315 2.211,-0.479 3.377,-0.479 0.192,0 0.386,0.007 0.575,0.015 0.046,0.002 0.098,0.005 0.148,0.009 0.173,0.011 0.319,0.021 0.467,0.035 l 0.136,0.013 c 0.207,0.023 0.392,0.047 0.574,0.076 l 0.124,0.021 c 0.144,0.024 0.29,0.051 0.435,0.08 l 0.187,0.041 c 0.146,0.033 0.281,0.066 0.413,0.103 l 0.15,0.04 c 0.058,0.015 0.111,0.031 0.166,0.048 0.412,-0.771 0.664,-1.713 0.75,-2.802 0.023,-0.287 0.035,-0.588 0.035,-0.891 0,-3.584 -1.594,-5.809 -4.16,-5.809"
         clip-path="url(#SVGID_2_)"
         inkscape:connector-curvature="0" />
      <path
         style="fill:#000000;fill-opacity:1"
         id="path4583"
         d="m 73.285,16.392 c -1.771,0 -3.146,1.114 -3.771,3.056 -0.259,0.803 -0.39,1.729 -0.39,2.752 0,0.303 0.012,0.604 0.035,0.891 0.085,1.087 0.338,2.027 0.747,2.801 1.075,-0.316 2.211,-0.479 3.378,-0.479 1.172,0 2.307,0.161 3.376,0.479 0.519,-0.977 0.782,-2.217 0.782,-3.691 0.002,-3.584 -1.59,-5.809 -4.157,-5.809"
         clip-path="url(#SVGID_2_)"
         inkscape:connector-curvature="0" />
      <path
         style="fill:#000000;fill-opacity:1"
         id="path4585"
         d="m 83.652,40.161 c -0.207,-2.641 -0.777,-4.947 -1.699,-6.854 -0.971,-2.004 -2.295,-3.516 -3.94,-4.484 -1.39,-0.82 -2.979,-1.236 -4.727,-1.236 -1.802,0 -3.45,0.463 -4.904,1.375 -1.571,0.986 -2.839,2.455 -3.769,4.365 -0.301,0.615 -0.56,1.254 -0.769,1.9 l -1.032,3.172 -1.035,-3.17 C 61.723,35.071 61.672,34.915 61.616,34.76 L 61.598,34.713 C 61.433,34.258 61.249,33.817 61.051,33.4 L 60.997,33.286 C 60.949,33.19 60.906,33.103 60.864,33.021 l -0.033,-0.063 c -0.198,-0.379 -0.42,-0.756 -0.66,-1.117 l -0.052,-0.076 c -0.212,-0.314 -0.446,-0.625 -0.7,-0.926 L 59.37,30.78 C 59.307,30.71 59.23,30.624 59.155,30.542 L 59.054,30.435 C 58.832,30.199 58.582,29.962 58.338,29.751 L 58.209,29.642 C 58.134,29.581 58.066,29.527 58.002,29.476 L 57.85,29.363 c -0.105,-0.08 -0.223,-0.162 -0.341,-0.24 L 57.468,29.095 C 57.42,29.061 57.371,29.029 57.322,28.994 L 57.15,28.891 C 57.06,28.835 57,28.798 56.934,28.763 l -0.083,-0.047 c -0.034,-0.02 -0.068,-0.041 -0.104,-0.059 -0.099,-0.053 -0.184,-0.097 -0.268,-0.137 -0.081,-0.04 -0.162,-0.079 -0.243,-0.115 -0.098,-0.043 -0.184,-0.08 -0.27,-0.117 L 55.781,28.214 C 55.7,28.183 55.613,28.151 55.526,28.12 L 55.369,28.063 C 55.23,28.017 55.095,27.975 54.959,27.937 L 54.834,27.905 C 54.718,27.874 54.61,27.848 54.502,27.823 L 54.345,27.79 C 54.237,27.768 54.116,27.743 54,27.726 l -0.116,-0.021 c -0.14,-0.021 -0.295,-0.041 -0.451,-0.06 l -0.117,-0.011 c -0.126,-0.012 -0.244,-0.02 -0.364,-0.027 l -0.133,-0.009 c -0.17,-0.007 -0.328,-0.013 -0.486,-0.013 -1.801,0 -3.45,0.463 -4.903,1.375 -1.571,0.984 -2.84,2.453 -3.771,4.365 -0.299,0.615 -0.559,1.254 -0.768,1.9 l -1.033,3.188 -1.034,-3.186 c -0.209,-0.645 -0.468,-1.283 -0.768,-1.9 -0.93,-1.91 -2.199,-3.379 -3.771,-4.365 -1.453,-0.912 -3.103,-1.375 -4.903,-1.375 -0.164,0 -0.327,0.006 -0.488,0.014 l -0.13,0.008 c -0.12,0.008 -0.236,0.016 -0.353,0.025 l -0.153,0.016 c -0.136,0.016 -0.29,0.034 -0.442,0.059 l -0.058,0.011 c -0.161,0.026 -0.28,0.05 -0.398,0.073 l -0.16,0.036 c -0.097,0.021 -0.206,0.047 -0.314,0.076 l -0.125,0.032 c -0.142,0.039 -0.276,0.081 -0.411,0.126 l -0.167,0.059 c -0.08,0.027 -0.166,0.061 -0.251,0.094 l -0.182,0.072 c -0.084,0.035 -0.164,0.069 -0.242,0.105 -0.113,0.053 -0.194,0.091 -0.274,0.129 -0.077,0.038 -0.164,0.081 -0.25,0.127 l -0.208,0.116 c -0.037,0.021 -0.083,0.047 -0.131,0.077 l -0.167,0.125 c -1.572,0.984 -2.84,2.455 -3.771,4.365 -0.131,0.27 -0.258,0.554 -0.388,0.869 l -0.063,0.164 c -0.098,0.25 -0.192,0.504 -0.279,0.766 l -0.102,0.303 -0.971,2.988 -1.034,-3.188 C 19.661,34.588 19.403,33.95 19.102,33.333 L 19.088,33.294 C 18.164,31.402 16.9,29.94 15.336,28.962 13.883,28.05 12.234,27.587 10.433,27.587 c -1.749,0 -3.34,0.416 -4.728,1.236 C 4.06,29.796 2.735,31.303 1.766,33.31 0.844,35.219 0.272,37.527 0.067,40.166 0.036,40.571 0.014,40.95 0,41.313 h 83.72 c -0.013,-0.367 -0.037,-0.748 -0.068,-1.152"
         clip-path="url(#SVGID_2_)"
         inkscape:connector-curvature="0" />
    </g>
  </g>
</svg>
