<?xml version="1.0" encoding="UTF-8" standalone="no"?>
<!-- Created with Inkscape (http://www.inkscape.org/) -->

<svg
   xmlns:dc="http://purl.org/dc/elements/1.1/"
   xmlns:cc="http://creativecommons.org/ns#"
   xmlns:rdf="http://www.w3.org/1999/02/22-rdf-syntax-ns#"
   xmlns:svg="http://www.w3.org/2000/svg"
   xmlns="http://www.w3.org/2000/svg"
   xmlns:xlink="http://www.w3.org/1999/xlink"
   xmlns:sodipodi="http://sodipodi.sourceforge.net/DTD/sodipodi-0.dtd"
   xmlns:inkscape="http://www.inkscape.org/namespaces/inkscape"
   width="100"
   height="100"
   id="svg3008"
   version="1.1"
   inkscape:version="0.48.4 r9939"
   sodipodi:docname="icon-intranet.svg">
  <defs
     id="defs3010">
    <defs
       id="defs4733">
      <rect
         id="SVGID_1_-92"
         x="0"
         y="0"
         width="99.941002"
         height="91.085999" />
    </defs>
    <clipPath
       id="SVGID_2_-4">
      <use
         height="1"
         width="1"
         y="0"
         x="0"
         style="overflow:visible"
         xlink:href="#SVGID_1_-92"
         overflow="visible"
         id="use4737" />
    </clipPath>
    <defs
       id="defs4710">
      <rect
         id="SVGID_1_-9"
         x="0"
         y="0.001"
         width="70.989998"
         height="70.988998" />
    </defs>
    <clipPath
       id="SVGID_2_-16">
      <use
         height="1"
         width="1"
         y="0"
         x="0"
         style="overflow:visible"
         xlink:href="#SVGID_1_-9"
         overflow="visible"
         id="use4714" />
    </clipPath>
  </defs>
  <sodipodi:namedview
     id="base"
     pagecolor="#ffffff"
     bordercolor="#666666"
     borderopacity="1.0"
     inkscape:pageopacity="0.0"
     inkscape:pageshadow="2"
     inkscape:zoom="1.4142136"
     inkscape:cx="123.12788"
     inkscape:cy="-37.511253"
     inkscape:document-units="px"
     inkscape:current-layer="capa1"
     showgrid="false"
     inkscape:window-width="1440"
     inkscape:window-height="845"
     inkscape:window-x="0"
     inkscape:window-y="27"
     inkscape:window-maximized="1"
     showguides="true"
     inkscape:guide-bbox="true">
    <sodipodi:guide
       orientation="1,0"
       position="72.730983,829.33524"
       id="guide3952" />
    <sodipodi:guide
       orientation="1,0"
       position="517.1981,771.25147"
       id="guide4126" />
    <sodipodi:guide
       orientation="1,0"
       position="550.71429,709.28572"
       id="guide4366" />
    <sodipodi:guide
       orientation="1,0"
       position="80.963727,110.66221"
       id="guide4658" />
    <sodipodi:guide
       orientation="1,0"
       position="529.26943,-512.29886"
       id="guide5163" />
    <sodipodi:guide
       orientation="0,1"
       position="248.90159,-436.28488"
       id="guide5378" />
    <sodipodi:guide
       orientation="1,0"
       position="613.06158,596.09101"
       id="guide4779" />
  </sodipodi:namedview>
  <metadata
     id="metadata3013">
    <rdf:RDF>
      <cc:Work
         rdf:about="">
        <dc:format>image/svg+xml</dc:format>
        <dc:type
           rdf:resource="http://purl.org/dc/dcmitype/StillImage" />
        <dc:title></dc:title>
      </cc:Work>
    </rdf:RDF>
  </metadata>
  <g
     inkscape:label="Capa 1"
     inkscape:groupmode="layer"
     id="capa1"
     style="display:inline"
     transform="translate(0,-952.36218)">
    <text
       xml:space="preserve"
       style="font-size:40px;font-style:normal;font-weight:normal;line-height:125%;letter-spacing:0px;word-spacing:0px;fill:#000000;fill-opacity:1;stroke:none;font-family:Sans"
       x="241.42645"
       y="248.28076"
       id="text4128"
       sodipodi:linespacing="125%"><tspan
         sodipodi:role="line"
         id="tspan4130"
         x="241.42645"
         y="248.28076" /></text>
    <flowRoot
       xml:space="preserve"
       id="flowRoot4132"
       style="font-size:40px;font-style:normal;font-weight:normal;line-height:125%;letter-spacing:0px;word-spacing:0px;fill:#000000;fill-opacity:1;stroke:none;font-family:Sans"><flowRegion
         id="flowRegion4134"><rect
           id="rect4136"
           width="319.20819"
           height="51.012703"
           x="228.79955"
           y="306.8696" /></flowRegion><flowPara
         id="flowPara4138" /></flowRoot>    <flowRoot
       xml:space="preserve"
       id="flowRoot4299"
       style="font-size:40px;font-style:normal;font-weight:normal;line-height:125%;letter-spacing:0px;word-spacing:0px;fill:#000000;fill-opacity:1;stroke:none;font-family:Sans"><flowRegion
         id="flowRegion4301"><rect
           id="rect4303"
           width="23.233509"
           height="49.497475"
           x="587.90875"
           y="181.61069" /></flowRegion><flowPara
         id="flowPara4305" /></flowRoot>    <path
       style="fill:#000000"
       d="m 72.127257,960.52088 -0.1084,8.8886 -0.12194,8.875 -10.94811,-6.0838 -10.94811,-6.0838 -7.05936,3.9159 c -6.9189,3.836 -8.38675,4.5578 -8.30593,5.4198 1.07057,1.4129 1.7208,3.1717 1.7208,5.0811 0,0.9801 -0.18013,1.9164 -0.48779,2.7912 l 9.90479,7.6556 c 5.1046,3.9432 9.03944,6.9547 9.63379,7.3845 1.44991,-1.1803 3.30965,-1.8834 5.32501,-1.8834 1.96205,0 3.75752,0.6775 5.18952,1.8022 l 11.55784,-7.4524 11.54429,-7.4658 0,-11.4223 0,-11.4224 -8.44142,0 -8.45498,0 z m -52.41001,22.5466 c -0.13469,0 -4.57674,2.3902 -9.8776805,5.3115 -7.01099,3.8636 -9.68076998,5.5478 -9.78283998,6.1786 -0.0772,0.4769 -0.0741,3.0622 0,5.74502 l 0.13549,4.8779 5.39275998,0 5.3927605,0 0,14.322 c 0,11.804 0.10791,14.2688 0.58263,13.9832 0.31697,-0.1907 2.9423,-1.8813 5.83989,-3.7668 2.86398,-1.8636 4.19918,-2.7805 4.74238,-3.4145 0.003,0 -0.003,-0.011 0,-0.014 -0.12141,-0.5694 -0.1897,-1.1559 -0.1897,-1.7615 0,-3.9312 2.69982,-7.2268 6.34124,-8.1569 -0.0118,-0.2687 -0.37639,-6.0621 -0.84008,-13.1431 -0.46849,-7.15422 -0.84929,-13.39652 -0.85363,-13.87492 -0.002,-0.1836 -0.0706,-0.366 -0.18969,-0.5419 -3.02037,-0.5473 -5.47174,-2.6955 -6.44963,-5.5419 -0.11119,-0.1178 -0.20426,-0.2032 -0.2439,-0.2032 z m 14.02388,3.55 c -0.89886,0.8609 -1.97405,1.527 -3.18417,1.9241 -0.0371,0.1129 -0.0682,0.2257 -0.0677,0.3387 0.002,0.499 0.39445,6.8588 0.86717,14.13232 0.47176,7.2587 0.86344,13.2229 0.86718,13.3057 1.11391,0.2495 2.1361,0.7126 3.03512,1.355 0.0636,0.016 0.14079,0.037 0.17615,0.041 0.21852,0.02 4.26979,-2.447 8.99696,-5.4876 l 8.14333,-5.2437 c -0.16871,-0.6649 -0.27099,-1.3557 -0.27099,-2.0731 0,-1.1223 0.22492,-2.1913 0.62328,-3.1706 -0.47916,-0.5738 -1.4364,-1.4044 -2.80477,-2.45252 -1.85696,-1.4223 -6.36506,-4.915 -10.02674,-7.7504 l -6.35478,-4.9185 z m 55.26898,1.5311 c -0.23054,0.065 -18.59875,11.7998 -20.29736,12.96702 -0.0825,0.057 0.0367,1.0016 0.27099,2.1002 0.0322,0.1509 0.0564,0.3043 0.0813,0.4607 0.0181,0.1234 0.0415,0.2408 0.0542,0.3658 0.004,0.036 0.01,0.072 0.0136,0.1084 0.1055,0.9554 0.0781,1.9395 -0.0949,2.6693 -0.45517,1.9209 -0.9926,1.4201 11.47655,11.043 l 8.29238,6.3954 0.12194,-9.5389 0.1084,-9.539 5.39276,0 5.3792,0 0.1355,-4.8779 c 0.0742,-2.68282 0.0734,-5.26812 0,-5.74502 -0.0941,-0.6112 -1.67553,-1.6991 -5.36566,-3.6855 -2.87964,-1.5501 -5.38969,-2.7739 -5.5689,-2.7235 z m -34.47028,22.45182 c -0.97294,0.3967 -3.27884,1.8508 -8.53628,5.2708 l -7.68264,4.9998 0.12195,1.233 c 0.23092,0.7687 0.36584,1.5815 0.36584,2.4254 0,4.6531 -3.7748,8.4279 -8.42788,8.4279 -2.52393,0 -4.78357,-1.1143 -6.32768,-2.8725 l -6.16509,3.9971 c -3.44327,2.226 -6.40627,4.0513 -6.58512,4.0513 -0.17886,0 -0.32519,1.3658 -0.32519,3.0352 l 0,3.0351 39.02296,0 39.02296,0 -0.0271,-7.4794 -0.0135,-7.4794 -11.47654,-8.7937 -11.47655,-8.7802 -1.39561,0.7317 c -0.1896,0.1 -0.3982,0.1785 -0.60973,0.2574 -0.0714,0.027 -0.1432,0.057 -0.2168,0.081 -0.95442,0.3753 -1.98816,0.5962 -3.07577,0.5962 -2.45329,0 -4.65243,-1.0636 -6.19218,-2.737 z"
       id="path3267"
       inkscape:connector-curvature="0" />
  </g>
  <g
     style="display:inline"
     id="g4076"
     inkscape:groupmode="layer"
     inkscape:label="copia Capa 1"
     transform="translate(0,-952.36218)">
    <text
       sodipodi:linespacing="125%"
       id="text4122"
       y="227.06755"
       x="-510.93515"
       style="font-size:40px;font-style:normal;font-weight:normal;line-height:125%;letter-spacing:0px;word-spacing:0px;fill:#000000;fill-opacity:1;stroke:none;font-family:Sans"
       xml:space="preserve"><tspan
         y="227.06755"
         x="-510.93515"
         id="tspan4124"
         sodipodi:role="line" /></text>
    <flowRoot
       style="font-size:40px;font-style:normal;font-weight:normal;line-height:125%;letter-spacing:0px;word-spacing:0px;fill:#000000;fill-opacity:1;stroke:none;font-family:Sans"
       id="flowRoot4126"
       xml:space="preserve"
       transform="translate(-752.3616,-21.213203)"><flowRegion
         id="flowRegion4128"><rect
           y="306.8696"
           x="228.79955"
           height="51.012703"
           width="319.20819"
           id="rect4130" /></flowRegion><flowPara
         id="flowPara4132" /></flowRoot>    <flowRoot
       style="font-size:40px;font-style:normal;font-weight:normal;line-height:125%;letter-spacing:0px;word-spacing:0px;fill:#000000;fill-opacity:1;stroke:none;font-family:Sans"
       id="flowRoot4202"
       xml:space="preserve"
       transform="translate(-752.3616,-21.213203)"><flowRegion
         id="flowRegion4204"><rect
           y="181.61069"
           x="587.90875"
           height="49.497475"
           width="23.233509"
           id="rect4206" /></flowRegion><flowPara
         id="flowPara4208" /></flowRoot>  </g>
  <g
     inkscape:groupmode="layer"
     id="layer1"
     inkscape:label="Mení"
     transform="translate(0,-952.36218)" />
</svg>
