<?xml version="1.0" encoding="UTF-8" standalone="no"?>
<!-- Created with Inkscape (http://www.inkscape.org/) -->

<svg
   xmlns:dc="http://purl.org/dc/elements/1.1/"
   xmlns:cc="http://creativecommons.org/ns#"
   xmlns:rdf="http://www.w3.org/1999/02/22-rdf-syntax-ns#"
   xmlns:svg="http://www.w3.org/2000/svg"
   xmlns="http://www.w3.org/2000/svg"
   xmlns:xlink="http://www.w3.org/1999/xlink"
   xmlns:sodipodi="http://sodipodi.sourceforge.net/DTD/sodipodi-0.dtd"
   xmlns:inkscape="http://www.inkscape.org/namespaces/inkscape"
   width="100"
   height="100"
   id="svg3008"
   version="1.1"
   inkscape:version="0.48.4 r9939"
   sodipodi:docname="icon-home.svg">
  <defs
     id="defs3010">
    <defs
       id="defs4733">
      <rect
         id="SVGID_1_-92"
         x="0"
         y="0"
         width="99.941002"
         height="91.085999" />
    </defs>
    <clipPath
       id="SVGID_2_-4">
      <use
         height="1"
         width="1"
         y="0"
         x="0"
         style="overflow:visible"
         xlink:href="#SVGID_1_-92"
         overflow="visible"
         id="use4737" />
    </clipPath>
    <defs
       id="defs4710">
      <rect
         id="SVGID_1_-9"
         x="0"
         y="0.001"
         width="70.989998"
         height="70.988998" />
    </defs>
    <clipPath
       id="SVGID_2_-16">
      <use
         height="1"
         width="1"
         y="0"
         x="0"
         style="overflow:visible"
         xlink:href="#SVGID_1_-9"
         overflow="visible"
         id="use4714" />
    </clipPath>
    <clipPath
       id="SVGID_2_-5-8">
      <rect
         x="0"
         id="use4664-4"
         y="0"
         width="76"
         height="95.635002" />
    </clipPath>
    <clipPath
       id="clipPath4599">
      <rect
         x="0"
         id="use4601"
         y="0"
         width="76"
         height="95.635002" />
    </clipPath>
    <clipPath
       id="clipPath4603">
      <rect
         x="0"
         id="use4605"
         y="0"
         width="76"
         height="95.635002" />
    </clipPath>
    <clipPath
       id="clipPath4607">
      <rect
         x="0"
         id="use4609"
         y="0"
         width="76"
         height="95.635002" />
    </clipPath>
    <clipPath
       id="clipPath4611">
      <rect
         x="0"
         id="use4613"
         y="0"
         width="76"
         height="95.635002" />
    </clipPath>
    <clipPath
       id="clipPath4615">
      <rect
         x="0"
         id="use4617"
         y="0"
         width="76"
         height="95.635002" />
    </clipPath>
    <clipPath
       id="clipPath4619">
      <rect
         x="0"
         id="use4621"
         y="0"
         width="76"
         height="95.635002" />
    </clipPath>
    <clipPath
       id="clipPath4623">
      <rect
         x="0"
         id="use4625"
         y="0"
         width="76"
         height="95.635002" />
    </clipPath>
    <clipPath
       id="clipPath4627">
      <rect
         x="0"
         id="use4629"
         y="0"
         width="76"
         height="95.635002" />
    </clipPath>
    <clipPath
       id="SVGID_2_-4-1">
      <use
         height="1"
         width="1"
         y="0"
         x="0"
         style="overflow:visible"
         xlink:href="#SVGID_1_-92"
         overflow="visible"
         id="use4737-2" />
    </clipPath>
  </defs>
  <sodipodi:namedview
     id="base"
     pagecolor="#ffffff"
     bordercolor="#666666"
     borderopacity="1.0"
     inkscape:pageopacity="0.0"
     inkscape:pageshadow="2"
     inkscape:zoom="2"
     inkscape:cx="-14.631596"
     inkscape:cy="26.330853"
     inkscape:document-units="px"
     inkscape:current-layer="capa1"
     showgrid="false"
     inkscape:window-width="1440"
     inkscape:window-height="845"
     inkscape:window-x="0"
     inkscape:window-y="27"
     inkscape:window-maximized="1"
     showguides="true"
     inkscape:guide-bbox="true">
    <sodipodi:guide
       orientation="1,0"
       position="517.1981,771.25147"
       id="guide4126" />
    <sodipodi:guide
       orientation="1,0"
       position="550.71429,709.28572"
       id="guide4366" />
    <sodipodi:guide
       orientation="1,0"
       position="529.26943,-512.29886"
       id="guide5163" />
    <sodipodi:guide
       orientation="0,1"
       position="248.90159,-436.28488"
       id="guide5378" />
    <sodipodi:guide
       orientation="1,0"
       position="613.06158,596.09101"
       id="guide4779" />
  </sodipodi:namedview>
  <metadata
     id="metadata3013">
    <rdf:RDF>
      <cc:Work
         rdf:about="">
        <dc:format>image/svg+xml</dc:format>
        <dc:type
           rdf:resource="http://purl.org/dc/dcmitype/StillImage" />
        <dc:title></dc:title>
      </cc:Work>
    </rdf:RDF>
  </metadata>
  <g
     inkscape:label="Capa 1"
     inkscape:groupmode="layer"
     id="capa1"
     style="display:inline"
     transform="translate(0,-952.36218)">
    <text
       xml:space="preserve"
       style="font-size:40px;font-style:normal;font-weight:normal;line-height:125%;letter-spacing:0px;word-spacing:0px;fill:#000000;fill-opacity:1;stroke:none;font-family:Sans"
       x="241.42645"
       y="248.28076"
       id="text4128"
       sodipodi:linespacing="125%"><tspan
         sodipodi:role="line"
         id="tspan4130"
         x="241.42645"
         y="248.28076" /></text>
    <flowRoot
       xml:space="preserve"
       id="flowRoot4132"
       style="font-size:40px;font-style:normal;font-weight:normal;line-height:125%;letter-spacing:0px;word-spacing:0px;fill:#000000;fill-opacity:1;stroke:none;font-family:Sans"><flowRegion
         id="flowRegion4134"><rect
           id="rect4136"
           width="319.20819"
           height="51.012703"
           x="228.79955"
           y="306.8696" /></flowRegion><flowPara
         id="flowPara4138" /></flowRoot>    <flowRoot
       xml:space="preserve"
       id="flowRoot4299"
       style="font-size:40px;font-style:normal;font-weight:normal;line-height:125%;letter-spacing:0px;word-spacing:0px;fill:#000000;fill-opacity:1;stroke:none;font-family:Sans"><flowRegion
         id="flowRegion4301"><rect
           id="rect4303"
           width="23.233509"
           height="49.497475"
           x="587.90875"
           y="181.61069" /></flowRegion><flowPara
         id="flowPara4305" /></flowRoot>    <path
       style="fill:#000000"
       d="m 31.176829,1050.9124 c -1.731685,-0.9077 -28.6235088,-16.1031 -29.7471185,-16.8088 -0.3536906,-0.2222 -0.82759898,-0.7524 -1.05311978,-1.1785 -0.3952775,-0.7467 -0.4079883,-2.158 -0.352881,-39.17417 l 0.057212,-38.39967 0.5166198,-0.72435 c 0.2841453,-0.39836 0.90264068,-0.92124 1.37446208,-1.16192 0.8427298,-0.42993 1.4154463,-0.43763 32.5230184,-0.43763 34.638107,0 32.435378,-0.0858 33.753538,1.31511 l 0.663972,0.70568 0.05984,15.03556 0.05984,15.03554 -3.435027,0 -3.435022,0 -0.01722,-0.94059 c -0.0095,-0.51743 -0.03438,-6.08645 -0.05533,-12.37571 -0.02096,-6.28927 -0.09667,-11.49361 -0.168263,-11.56518 -0.07159,-0.0716 -10.151581,-0.10482 -22.399977,-0.0739 l -22.269809,0.0564 9.20097,5.20112 c 6.834188,3.8632 9.351078,5.39591 9.784539,5.95848 l 0.583572,0.75734 0.05785,27.84872 0.05785,27.84867 12.480522,0 12.480521,0 0.129134,-1.2726 c 0.07103,-0.7 0.121171,-4.9576 0.111444,-9.4617 -0.0097,-4.5038 -0.0083,-8.3134 0.0031,-8.4655 0.01576,-0.2086 0.865776,-0.2767 3.451465,-0.2767 l 3.430512,0 0,12.0293 0,12.0295 -0.497977,0.7318 c -0.273891,0.4023 -0.779104,0.94 -1.122697,1.1947 -0.617354,0.4575 -0.800821,0.4637 -15.547974,0.5243 l -14.923251,0.061 0,6.9728 c 0,7.7594 -0.03891,8.0085 -1.41653,9.0592 -1.30696,0.997 -2.366064,0.985 -4.33788,-0.049 z m 45.983447,-38.5519 -0.722793,-0.6453 -0.06711,-4.9984 -0.0671,-4.9984 -9.645453,0 c -6.955483,0 -9.899513,-0.076 -10.556426,-0.2705 -1.28467,-0.3814 -2.845795,-1.99157 -3.217223,-3.31817 -0.746582,-2.6666 0.952452,-5.5329 3.650501,-6.1587 0.47794,-0.1108 5.121394,-0.2039 10.318793,-0.2068 l 9.449808,-0.01 0.0671,-4.96234 c 0.06568,-4.85684 0.07815,-4.97414 0.58607,-5.51442 0.644132,-0.68502 1.370203,-0.88086 2.156948,-0.58175 0.742004,0.2821 19.703734,13.99021 20.397064,14.74571 0.582055,0.6343 0.655975,1.7432 0.16311,2.4469 -0.30131,0.4301 -3.08541,2.48907 -16.456104,12.16997 -4.5057,3.2622 -4.836446,3.3876 -6.057191,2.2976 z"
       id="path3051"
       inkscape:connector-curvature="0" />
  </g>
  <g
     style="display:inline"
     id="g4076"
     inkscape:groupmode="layer"
     inkscape:label="copia Capa 1"
     transform="translate(0,-952.36218)">
    <text
       sodipodi:linespacing="125%"
       id="text4122"
       y="227.06755"
       x="-510.93515"
       style="font-size:40px;font-style:normal;font-weight:normal;line-height:125%;letter-spacing:0px;word-spacing:0px;fill:#000000;fill-opacity:1;stroke:none;font-family:Sans"
       xml:space="preserve"><tspan
         y="227.06755"
         x="-510.93515"
         id="tspan4124"
         sodipodi:role="line" /></text>
    <flowRoot
       style="font-size:40px;font-style:normal;font-weight:normal;line-height:125%;letter-spacing:0px;word-spacing:0px;fill:#000000;fill-opacity:1;stroke:none;font-family:Sans"
       id="flowRoot4126"
       xml:space="preserve"
       transform="translate(-752.3616,-21.213203)"><flowRegion
         id="flowRegion4128"><rect
           y="306.8696"
           x="228.79955"
           height="51.012703"
           width="319.20819"
           id="rect4130" /></flowRegion><flowPara
         id="flowPara4132" /></flowRoot>    <flowRoot
       style="font-size:40px;font-style:normal;font-weight:normal;line-height:125%;letter-spacing:0px;word-spacing:0px;fill:#000000;fill-opacity:1;stroke:none;font-family:Sans"
       id="flowRoot4202"
       xml:space="preserve"
       transform="translate(-752.3616,-21.213203)"><flowRegion
         id="flowRegion4204"><rect
           y="181.61069"
           x="587.90875"
           height="49.497475"
           width="23.233509"
           id="rect4206" /></flowRegion><flowPara
         id="flowPara4208" /></flowRoot>  </g>
  <g
     inkscape:groupmode="layer"
     id="layer1"
     inkscape:label="Mení"
     transform="translate(0,-952.36218)" />
</svg>
