<?xml version="1.0" encoding="UTF-8" standalone="no"?>
<!-- Created with Inkscape (http://www.inkscape.org/) -->

<svg
   xmlns:dc="http://purl.org/dc/elements/1.1/"
   xmlns:cc="http://creativecommons.org/ns#"
   xmlns:rdf="http://www.w3.org/1999/02/22-rdf-syntax-ns#"
   xmlns:svg="http://www.w3.org/2000/svg"
   xmlns="http://www.w3.org/2000/svg"
   xmlns:sodipodi="http://sodipodi.sourceforge.net/DTD/sodipodi-0.dtd"
   xmlns:inkscape="http://www.inkscape.org/namespaces/inkscape"
   width="210"
   height="41.965355"
   id="svg19372"
   version="1.1"
   inkscape:version="0.91 r"
   sodipodi:docname="logo-xarxanet.svg">
  <defs
     id="defs19374" />
  <sodipodi:namedview
     id="base"
     pagecolor="#ffffff"
     bordercolor="#666666"
     borderopacity="1.0"
     inkscape:pageopacity="0.0"
     inkscape:pageshadow="2"
     inkscape:zoom="1.979899"
     inkscape:cx="145.49399"
     inkscape:cy="22.099171"
     inkscape:document-units="px"
     inkscape:current-layer="g19405"
     showgrid="false"
     inkscape:window-width="1440"
     inkscape:window-height="845"
     inkscape:window-x="0"
     inkscape:window-y="27"
     inkscape:window-maximized="1"
     fit-margin-top="0"
     fit-margin-left="0"
     fit-margin-right="0"
     fit-margin-bottom="0" />
  <metadata
     id="metadata19377">
    <rdf:RDF>
      <cc:Work
         rdf:about="">
        <dc:format>image/svg+xml</dc:format>
        <dc:type
           rdf:resource="http://purl.org/dc/dcmitype/StillImage" />
        <dc:title></dc:title>
      </cc:Work>
    </rdf:RDF>
  </metadata>
  <g
     inkscape:label="Capa 1"
     inkscape:groupmode="layer"
     id="capa1"
     transform="translate(-3.1844795e-4,-1006.1247)">
    <g
       id="g19405"
       transform="matrix(0.83524174,0,0,0.83524174,936.06761,834.89532)">
      <g
         id="g3361"
         inkscape:export-filename="/home/felix/git/xarxanet7/Xarxanet/sites/all/themes/sasson_xarxanet/logo.png"
         inkscape:export-xdpi="90"
         inkscape:export-ydpi="90"
         transform="matrix(0.10491695,0,0,0.10491695,-1003.1323,228.4692)">
        <path
           style="fill:#7c7c7a;fill-opacity:1"
           d="m 254.4215,29.81452 c -44.4964,-7.76838 -75.5279,-37.0104 -83.2532,-78.45234 -1.5316,-8.21624 -1.5072,-30.32172 0.044,-39.5 3.3944,-20.08899 11.331,-35.75716 25.0738,-49.5 17.2415,-17.24155 37.1449,-25.95027 63.6013,-27.82879 40.5169,-2.87688 70.0044,9.28544 87.8279,36.22514 12.1344,18.34091 17.4133,38.18882 17.8569,67.14005 l 0.2139,13.9636 -64.8278,0.25732 -64.8279,0.25732 0.6689,3.24268 c 2.2421,10.86839 10.3698,20.94257 20.7861,25.76407 10.1877,4.71568 20.7831,6.322 37.6437,5.70696 16.6609,-0.60775 28.7259,-3.24184 42.3702,-9.2505 4.5027,-1.98291 8.7493,-3.84977 9.4368,-4.14856 0.9799,-0.42588 1.25,4.51981 1.25,22.88747 l 0,23.43074 -8.25,2.62667 c -20.6209,6.56538 -29.4273,7.88718 -55.25,8.29285 -16.1486,0.25369 -24.2247,-0.0428 -30.3643,-1.11468 z m 51.5526,-121.70234 c -1.2444,-12.94175 -7.0373,-22.71371 -16.6883,-28.15122 -5.3022,-2.98733 -5.9316,-3.09878 -17.5,-3.09878 -10.7855,0 -12.4888,0.24968 -16.8298,2.46709 -8.9119,4.55233 -15.5777,14.38895 -18.2299,26.90184 -0.7731,3.64709 -1.4134,6.96857 -1.4229,7.38107 -0.01,0.4125 16.0227,0.75 35.6272,0.75 l 35.6446,0 z M 464.9399,29.35732 C 442.0102,24.5252 428.1041,12.11933 422.8027,-8.23415 c -2.9073,-11.16182 -3.5169,-22.27798 -3.5169,-64.12744 l 0,-42.27623 -18.5,0 -18.5,0 0,-23.5 0,-23.5 18.9801,0 18.9801,0 0.2699,-21.103 0.2699,-21.103 31.8774,-9.897 c 17.5325,-5.44335 32.045,-9.897 32.25,-9.897 0.2049,0 0.3726,13.95 0.3726,31 l 0,31 22.5,0 22.5,0 0,23.5 0,23.5 -22.5,0 -22.5,0 0,37.81634 c 0,23.04141 0.4263,40.12224 1.091,43.71828 2.0216,10.93553 6.9884,17.32343 15.2045,19.55455 4.0758,1.10681 16.1724,0.78862 25.3484,-0.66678 l 4.1438,-0.65726 0.8534,19.36744 c 0.4694,10.65208 0.8546,20.26743 0.8561,21.36743 0,1.7794 -1.2105,2.18153 -10.9972,3.64576 -15.9369,2.38438 -45.1843,2.30689 -56.8459,-0.15062 z m -526.6541,-96.48148 0,-94.51366 30,0 30,0 0,16.58378 0,16.58377 5.0493,-7.54939 c 13.133,-19.63536 34.6215,-29.70855 63.4507,-29.7438 19.0773,-0.0233 32.4428,3.91419 45.9125,13.52595 10.7514,7.67201 18.9957,20.88221 23.7776,38.09969 2.1752,7.83222 2.2292,9.39989 2.5739,74.75 l 0.352,66.75 -32.9954,0 -32.9953,0 -0.3949,-53.75 c -0.3438,-46.78972 -0.6181,-54.6096 -2.1188,-60.38814 -2.4597,-9.47184 -7.0576,-16.6404 -13.037,-20.32595 -4.6714,-2.8793 -5.471,-3.03591 -15.5,-3.03591 -9.5392,0 -11.1289,0.27219 -16.2351,2.77978 -9.2539,4.5444 -15.5068,12.99848 -19.4335,26.27467 -1.5392,5.204 -1.8301,12.30644 -2.3323,56.94555 l -0.5737,51 -32.75,0.26366 -32.75,0.26367 z m 625.2351,64.75081 0.2649,-29.76447 30.5,0 30.5,0 0,29.5 0,29.5 -30.7649,0.26447 -30.7649,0.26448 z"
           id="path19403"
           inkscape:connector-curvature="0"
           sodipodi:nodetypes="cscssssccccssssscssccssssccscsssscccccccccssscccccccscsscscssccccccssssscccscsssssccccccccccccc" />
        <path
           style="fill:#acabb0;fill-opacity:1"
           d="m 1133.4613,106.354 c -16.5315,-1.7311 -44.8478,-8.2641 -47.5555,-10.9718 -0.9102,-0.9102 0.6798,-39.2905 1.9986,-48.2445 l 0.5486,-3.7245 4.6664,2.3512 c 7.9396,4.0005 23.262,9.3536 32.1664,11.238 11.9124,2.5208 37.8771,2.5507 47,0.054 24.6803,-6.7544 35.3894,-21.4015 36.699,-50.1943 0.3399,-7.4727 0.1927,-11.6227 -0.3902,-11 -0.5148,0.55 -2.8468,3.3446 -5.1822,6.2102 -4.9867,6.1188 -14.2368,13.3071 -22.4764,17.4664 -20.4966,10.3466 -51.4884,9.9674 -73.1286,-0.895 -32.4117,-16.269 -49.6205,-53.7726 -45.5901,-99.35581 4.2272,-47.80941 27.9948,-77.52666 67.0685,-83.85749 18.0077,-2.91766 36.6703,-0.50347 49.9164,6.45713 11.5182,6.05265 17.6841,11.63379 29.2866,26.50911 l 2.7031,3.4655 0.047,-16.75 0.047,-16.75 29.5555,0 29.5556,0 -0.4107,94.74996 c -0.3584,82.6653 -0.6192,95.7686 -2.045,102.7358 -8.5045,41.5566 -30.8283,62.0637 -75.1923,69.0734 -11.7059,1.8495 -47.1314,2.7056 -59.2876,1.4327 z m 44.3964,-131.656 c 6.8014,-2.2967 11.1072,-5.1843 16.748,-11.2321 5.6397,-6.0464 9.179,-13.2434 11.1972,-22.7689 1.8238,-8.6076 1.8271,-14.0468 0.014,-22.60463 -2.972,-14.02517 -12.6004,-26.25592 -24.284,-30.84729 -8.3105,-3.26582 -22.6188,-3.26131 -29.9605,0.009 -5.8576,2.60961 -12.9941,9.65457 -16.255,16.04655 -5.5918,10.96072 -7.5444,29.01747 -4.5236,41.83027 3.565,15.1203 13.1685,26.5334 25.4924,30.2957 4.5694,1.395 16.4732,0.9927 21.5719,-0.729 z M 744.7858,29.4143 c -29.2373,-5.218 -53.7346,-19.8378 -67.7503,-40.4328 -5.0968,-7.4893 -11.1315,-20.3934 -13.1501,-28.1188 -6.0349,-23.0963 -3.7544,-51.00738 5.8138,-71.15518 14.3832,-30.28701 42.9329,-49.4508 81.0866,-54.42885 11.3421,-1.47985 39.3991,-0.58716 49,1.55902 39.9015,8.91953 66.8715,33.20115 76.6672,69.02498 2.9883,10.9285 3.3032,42.33543 0.5264,52.50003 -10.9018,39.9055 -40.2622,64.702 -84.6936,71.5286 -12.8996,1.9819 -34.9639,1.7604 -47.5,-0.477 z m 37.5685,-45.6192 c 23.0186,-6.6432 34.8459,-36.4348 27.4145,-69.05406 -3.3771,-14.82339 -11.4051,-25.75901 -22.7606,-31.0042 -5.6597,-2.61425 -7.2172,-2.87417 -17.2224,-2.87417 -10.015,0 -11.5594,0.25837 -17.2475,2.88543 -14.7948,6.83309 -22.9659,22.55316 -23.9856,46.1455 -0.4339,10.0389 -0.179,13.3797 1.5399,20.1769 6.0648,23.9829 18.5256,35.0219 39.7617,35.2247 3.8877,0.037 9.5127,-0.6379 12.5,-1.5001 z m 127.9315,-50.9188 0,-94.51362 30,0 30,0 0.018,17.25 0.018,17.25 2.7597,-5 c 10.065,-18.2356 23.6943,-29.55863 39.0949,-32.4793 9.0375,-1.71393 33.651,-0.81226 35.7737,1.31051 0.3977,0.39766 -2.6389,52.9605 -3.0859,53.4179 -0.1339,0.13701 -4.9655,-0.26649 -10.7369,-0.89666 -29.3525,-3.205 -47.576,8.20376 -55.4439,34.71047 -1.5374,5.1793 -1.8348,12.1271 -2.33,54.4371 l -0.5678,48.5 -32.75,0.2636 -32.75,0.2637 0,-94.5137 z"
           id="path19401"
           inkscape:connector-curvature="0"
           sodipodi:nodetypes="csscscsscssssssscccccsssccccscscscsccsssssssssscssssssccccccccssccsssccccc" />
        <path
           style="fill:#000000;fill-opacity:1"
           d="m -841.7142,29.86616 c -21.0896,-4.24416 -38.44499,-16.46443 -45.68709,-32.16919 -7.23272,-15.68441 -6.88357,-37.55401 0.85099,-53.30352 4.68756,-9.54504 15.03417,-19.46378 25.8361,-24.76766 18.94815,-9.30379 39.42285,-12.77236 70.5,-11.94324 11,0.29347 21.0125,0.84393 22.25,1.22324 2.09598,0.64244 2.24933,0.39075 2.24023,-3.67698 -0.0134,-5.96719 -3.83914,-13.7255 -8.90781,-18.06409 -2.54719,-2.18029 -7.01097,-4.51073 -11.38607,-5.94439 -6.4392,-2.11004 -8.98497,-2.35478 -24.19635,-2.32615 -22.10371,0.0416 -36.99543,3.17275 -52.69071,11.07879 l -4.6907,2.36281 -0.60879,-4.2368 c -0.33484,-2.33024 -0.47402,-12.54811 -0.3093,-22.70638 l 0.2995,-18.46959 5,-1.88486 c 8.64111,-3.25746 27.25084,-7.61436 39.35465,-9.21369 15.55965,-2.05596 42.95212,-2.04408 54.58043,0.0237 33.6951,5.99167 54.90939,23.63945 62.7656,52.21357 2.02947,7.38147 2.18262,10.83545 2.85107,64.30048 0.63078,50.45172 1.2389,63.23463 3.46093,72.75 l 0.52542,2.25 -30.39815,0 -30.39816,0 -0.72339,-14.47077 -0.7234,-14.47078 -4.22487,5.72078 c -9.62484,13.0327 -22.47854,21.94977 -37.03023,25.68918 -7.37139,1.89426 -29.2038,1.91441 -38.5399,0.0356 z m 52.23579,-45.74552 c 12.09098,-5.55413 22.41742,-20.56901 23.51034,-34.1846 l 0.51415,-6.40521 -12.88014,-0.34896 c -37.20004,-1.00784 -52.38014,5.85486 -52.38014,23.68031 0,9.61379 4.37764,15.25489 14.88228,19.17757 5.97995,2.23305 19.44989,1.25214 26.35351,-1.91911 z m 548.76421,45.87252 c -15.89394,-3.69188 -26.50743,-9.0928 -35.40305,-18.01567 -10.68662,-10.71934 -15.56222,-23.28737 -15.56222,-40.11531 0,-17.51827 4.89179,-29.72672 16.49825,-41.17471 16.92891,-16.69778 44.62022,-24.10803 85.96702,-23.00492 11,0.29347 21.0828,0.86231 22.4062,1.26408 2.3824,0.72329 2.4005,0.67602 1.8354,-4.79938 -1.7877,-17.32086 -15.9081,-25.73331 -43.2416,-25.76181 -19.2024,-0.02 -38.9289,4.1453 -52.85119,11.15971 -3.21816,1.62139 -5.99187,2.80602 -6.1638,2.63251 -0.17194,-0.17352 -0.4639,-10.33813 -0.64881,-22.58804 l -0.3362,-22.27255 5,-1.86515 c 20.4682,-7.63527 42.0658,-11.16068 68.5,-11.18136 19.6574,-0.0154 30.5865,1.48798 43.7612,6.01956 11.5953,3.98833 18.4849,8.33532 27.85,17.57206 6.5844,6.49421 8.8716,9.5999 12.1514,16.5 7.5835,15.95457 7.4545,14.72751 8.3062,79 0.5444,41.08443 1.1562,59.85528 2.1432,65.75 l 1.3814,8.25 -30.1459,0 -30.1459,0 -0.6456,-9.75 c -0.3551,-5.3625 -0.648,-11.93209 -0.6508,-14.59908 l -0.01,-4.84909 -4.416,5.8746 c -9.045,12.03251 -18.4932,19.28411 -31.4644,24.14935 -5.8558,2.19637 -8.4658,2.51747 -22.6196,2.78281 -10.4798,0.19646 -17.8976,-0.14083 -21.5,-0.97761 z m 47.6328,-44.11457 c 7.3005,-2.16801 15.5224,-8.49919 20.2698,-15.6084 4.4697,-6.6935 8.0974,-16.96794 8.0974,-22.93388 l 0,-3.81519 -13.25,-0.33971 c -24.0677,-0.61705 -35.9768,1.40719 -43.8678,7.45641 -5.4375,4.16834 -8.1466,9.46332 -8.214,16.05417 -0.095,9.30391 4.8138,15.58207 15.0345,19.22787 5.0727,1.80948 15.7657,1.78935 21.9301,-0.0413 z m -469.6328,-53.01641 0,-94.5 30,0 30,0 0,16.72909 0,16.72909 4.66105,-7.97909 c 2.56357,-4.3885 7.62883,-10.9534 11.25612,-14.58866 10.55186,-10.57506 21.27248,-14.86507 37.58283,-15.03934 9.8009,-0.10471 21.52984,0.93128 23.36181,2.0635 0.86763,0.53623 0.78231,6.64282 -0.34439,24.64912 -0.82377,13.16496 -1.50219,25.3514 -1.50759,27.08098 -0.01,3.12104 -0.038,3.13814 -3.75983,2.27386 -6.48915,-1.50693 -27.30578,-1.08851 -33.3185,0.66971 -11.41045,3.33659 -19.89303,10.91171 -25.54422,22.81152 -6.04501,12.72908 -6.35062,15.96036 -6.36992,67.35022 l -0.0174,46.25 -33,0 -33,0 0,-94.5 z m 143,93.99197 c 0,-0.27942 13.98,-21.47078 31.06666,-47.09192 17.08666,-25.62114 31.28501,-47.15291 31.55188,-47.84838 0.26688,-0.69546 -12.58812,-21.82428 -28.56665,-46.95292 -15.97854,-25.12864 -29.05189,-45.89326 -29.05189,-46.14359 0,-0.25034 17.46211,-0.45516 38.80469,-0.45516 l 38.80469,0 13.39602,27.58575 c 10.40053,21.41726 13.63067,27.25834 14.44532,26.1216 0.5771,-0.80527 7.12428,-13.21299 14.54928,-27.57271 l 13.5,-26.10859 35.75,-0.013 c 19.6625,-0.007 35.75,0.24237 35.75,0.55453 0,0.31216 -13.07415,21.04267 -29.05367,46.06781 l -29.05367,45.50025 31.05367,47.79774 c 17.07952,26.28874 31.05367,48.08322 31.05367,48.43217 0,0.34895 -17.7367,0.63445 -39.41488,0.63445 l -39.41489,0 -15.24534,-28.64111 c -13.04424,-24.50593 -15.42219,-28.39928 -16.47017,-26.96607 -0.67366,0.92127 -7.61977,13.80977 -15.43581,28.64111 l -14.21098,26.96607 -36.90396,0 c -20.29718,0 -36.90397,-0.22861 -36.90397,-0.50803 z"
           id="path19399"
           inkscape:connector-curvature="0"
           sodipodi:nodetypes="csssssssssscsscsssssscccccssccsscsssscsssssssssscssssssscccsccssscccsscsscsccccccccssssscsssscccccsscssscssscssscssscssscss" />
        <path
           style="fill:#aa2619;fill-opacity:1"
           d="m -1120.7142,26.85415 c 0,-0.27942 13.98,-21.47078 31.0667,-47.09192 17.0866,-25.62114 31.3047,-47.20431 31.5957,-47.96259 0.291,-0.75829 -12.2723,-21.52943 -27.9183,-46.15808 -15.646,-24.62866 -28.7656,-45.34188 -29.1547,-46.02938 -0.5607,-0.99069 7.3483,-1.25 38.1245,-1.25 l 38.8319,0 13.3998,27.5 c 7.3699,15.125 13.7232,27.5 14.1185,27.5 0.3953,0 1.4338,-1.6875 2.3078,-3.75 0.8739,-2.0625 7.1103,-14.325 13.85854,-27.25 l 12.26956,-23.5 35.75,-0.26263 c 19.6625,-0.14445 35.75,0.0886 35.75,0.51786 0,0.42928 -1.06157,2.34746 -2.35904,4.26264 -1.29747,1.91517 -14.36164,22.30426 -29.03147,45.30909 l -26.67244,41.82697 19.78148,30.4271 c 10.87981,16.7349 24.83137,38.18777 31.00348,47.67304 6.17211,9.48526 11.23461,17.58343 11.25,17.99593 0.0154,0.4125 -17.64563,0.75 -39.24672,0.75 l -39.27472,0 -12.95459,-24.25 c -7.12498,-13.3375 -14.11418,-26.37475 -15.53138,-28.97167 l -2.5769,-4.72167 -15.2996,28.97167 -15.2997,28.97167 -36.8942,0 c -20.2918,0 -36.8942,-0.22861 -36.8942,-0.50803 z"
           id="path19397"
           inkscape:connector-curvature="0"
           sodipodi:nodetypes="sssssscsscscsssscsscscsccccss" />
        <text
           sodipodi:linespacing="127%"
           id="text3338"
           y="232.86679"
           x="-1124.9236"
           style="font-style:normal;font-weight:normal;font-size:113.46315002px;line-height:126.99999809%;font-family:Sans;letter-spacing:0px;word-spacing:0px;fill:#7c7c7a;fill-opacity:1;stroke:none;stroke-width:1px;stroke-linecap:butt;stroke-linejoin:miter;stroke-opacity:1"
           xml:space="preserve"><tspan
             style="font-style:normal;font-variant:normal;font-weight:normal;font-stretch:normal;font-family:'Arial Black';-inkscape-font-specification:'Arial Black, ';fill:#7c7c7a;fill-opacity:1"
             y="232.86679"
             x="-1124.9236"
             id="tspan3340"
             sodipodi:role="line">Entitats i voluntariat per un món millor</tspan></text>
      </g>
    </g>
  </g>
</svg>
