<svg xmlns="http://www.w3.org/2000/svg" width="230.78" height="32" viewBox="0 0 216.35588 29.999998"><path d="M33.186 22.247l3.57 7.053h9.862v-1.99l-5.839-10.6 5.165-8.982v-1.99h-8.021l-3.309 6.347-3.354-6.347h-9.906v1.99l5.615 9.478-.018.03-6.001 10.076V29.3h8.516l3.668-7.157.052.104zM61.4 23.56l-.026.017c-.667.462-1.431.727-2.095.727-1.406 0-2.212-.821-2.212-2.255 0-1.67.796-2.48 2.436-2.48.444 0 1.066.06 1.847.18l.05.01v3.803zm3.35 5.74h6.488V14.156c0-6.215-3.375-8.866-11.286-8.866-5.485 0-9.262 1.373-10.346 1.82v6.27h3.11c1.306-.76 3.172-1.211 4.994-1.211 2.69 0 3.69.733 3.69 2.703v.924l-.07-.013c-1.193-.215-2.558-.313-4.293-.313-2.855 0-5.092.584-6.647 1.737-1.65 1.224-2.488 3.063-2.488 5.468 0 5.122 3.93 6.938 7.297 6.938 2.9 0 4.996-.764 6.594-2.405l.069-.07.029.094c.443 1.43 1.324 2.066 2.859 2.066m27.52-15.604v-7.97c-.35-.11-.801-.164-1.376-.164-2.59 0-4.597 1.203-6.319 3.786l-.089.132-.018-.158c-.35-3.026-1.162-3.582-2.632-3.582h-7.027V29.3h9.883V14.472l.042-.013c1.274-.37 3.69-.765 6.653-.765h.883zm13.565 8.553l3.57 7.053h9.861v-1.99l-5.839-10.6 5.166-8.982v-1.99h-8.022l-3.309 6.347-3.354-6.347h-9.906v1.99l5.615 9.478-.017.03-6.001 10.076V29.3h8.514l3.67-7.157.052.104zm28.215 1.313l-.026.017c-.669.462-1.433.727-2.097.727-1.406 0-2.212-.821-2.212-2.255 0-1.67.797-2.48 2.436-2.48.443 0 1.065.06 1.848.18l.05.01v3.803zm3.348 5.74h6.488V14.156c0-6.215-3.376-8.866-11.287-8.866-5.484 0-9.26 1.373-10.344 1.82v6.27h3.11c1.306-.76 3.17-1.211 4.992-1.211 2.691 0 3.692.733 3.692 2.703v.924l-.069-.013c-1.194-.215-2.56-.313-4.295-.313-2.855 0-5.091.584-6.647 1.737-1.65 1.224-2.488 3.063-2.488 5.468 0 5.122 3.93 6.938 7.296 6.938 2.902 0 4.998-.764 6.595-2.405l.068-.07.03.094c.444 1.43 1.326 2.066 2.859 2.066m24.813-14.558V29.3h9.837V12.093c0-4.577-2.107-6.802-6.443-6.802-3.122 0-5.867 1.226-8.388 3.75l-.085.086-.015-.12c-.351-2.761-1.163-3.269-2.634-3.269h-7.025V29.3h9.881V12.9l.047-.011a9.434 9.434 0 0 1 2.12-.27c1.795 0 2.705.327 2.705 2.122m22.164.415l.006-.064c.34-3.444 1.649-3.908 2.885-3.908 1.818 0 2.576 1.096 2.703 3.91l.003.062h-5.597zm2.89-9.865c-3.828 0-7.041 1.16-9.292 3.352-2.243 2.187-3.428 5.303-3.428 9.01 0 3.802 1.076 6.77 3.198 8.821 2.217 2.143 5.527 3.23 9.837 3.23 5.39 0 8.302-1.164 10.435-2.31V22.06h-3.11c-1.574.954-3.511 1.437-5.756 1.437-2.594 0-4.288-.639-4.722-3.818l-.008-.065h14.492c.003-.108.013-.254.025-.43.026-.39.065-.98.065-1.71 0-8.199-3.839-12.184-11.735-12.184m23.947 24.503c2.45 0 4.258-.434 5.143-.704v-5.457h-1.198c-2.088 0-2.793-.671-2.793-2.66V11.72h3.902V5.738h-3.902V0h-9.839v5.738h-2.286v5.983h2.286v11c0 4.89 2.68 7.072 8.687 7.072M9.525 6.203H0V30h9.525l8.49-11.857-8.49-11.94z" fill="#fff"/></svg>