<svg xmlns="http://www.w3.org/2000/svg" xmlns:xlink="http://www.w3.org/1999/xlink" width="36.476" height="18"><defs><clipPath id="b"><use overflow="visible" xlink:href="#a" width="1" height="1"/></clipPath></defs><g transform="scale(.4357)" fill="#2f3031"><defs><path id="a" d="M0 0h83.72v41.313H0z"/></defs><path d="M60.151 21.409h5.318c.13-2.443.869-4.508 2.162-6.042V0h-51.59v15.311c1.016 1.185 2.053 3.11 2.21 6.098h5.32c.315-5.965 4.197-8.693 7.814-8.693 3.619 0 7.501 2.728 7.816 8.693h5.321c.315-5.965 4.197-8.693 7.816-8.693 3.617 0 7.499 2.728 7.813 8.693m-49.716-5.017c-2.566 0-4.16 2.226-4.16 5.809 0 1.475.263 2.715.785 3.69 2.131-.634 4.595-.638 6.751-.001.411-.771.663-1.712.749-2.801.022-.287.035-.588.035-.891 0-1.082-.146-2.053-.436-2.887-.641-1.855-1.999-2.919-3.724-2.919" clip-path="url(#b)"/><path d="M31.385 16.392c-2.565 0-4.16 2.226-4.16 5.809 0 .303.012.604.035.891.087 1.09.339 2.03.75 2.802l.168-.05.11-.029c.174-.046.308-.078.443-.109l.187-.039c.153-.031.299-.059.446-.084l.111-.021c.193-.03.378-.054.564-.075l.163-.015c.134-.015.284-.024.436-.033.075-.006.126-.008.178-.011a11.896 11.896 0 0 1 3.947.464c.411-.771.663-1.712.749-2.8.023-.289.035-.59.035-.891 0-3.584-1.595-5.809-4.162-5.809m20.95 0c-2.564 0-4.159 2.226-4.159 5.809 0 .303.013.604.034.891.087 1.087.339 2.027.748 2.8a12.01 12.01 0 0 1 4.567-.42l.136.013c.207.023.392.047.574.076l.124.021c.144.024.29.051.435.08l.187.041c.146.033.281.066.413.103l.15.04c.058.015.111.031.166.048.412-.771.664-1.713.75-2.802.023-.287.035-.588.035-.891 0-3.584-1.594-5.809-4.16-5.809m20.95 0c-1.771 0-3.146 1.114-3.771 3.056-.259.803-.39 1.729-.39 2.752 0 .303.012.604.035.891.085 1.087.338 2.027.747 2.801a11.97 11.97 0 0 1 3.378-.479c1.172 0 2.307.161 3.376.479.519-.977.782-2.217.782-3.691.002-3.584-1.59-5.809-4.157-5.809m10.367 23.769c-.207-2.641-.777-4.947-1.699-6.854-.971-2.004-2.295-3.516-3.94-4.484-1.39-.82-2.979-1.236-4.727-1.236-1.802 0-3.45.463-4.904 1.375-1.571.986-2.839 2.455-3.769 4.365a14.47 14.47 0 0 0-.769 1.9l-1.032 3.172-1.035-3.17c-.054-.158-.105-.314-.161-.469l-.018-.047a14.968 14.968 0 0 0-.547-1.313l-.054-.114-.133-.265-.033-.063a12.39 12.39 0 0 0-.66-1.117l-.052-.076a10.87 10.87 0 0 0-.7-.926l-.049-.059-.215-.238-.101-.107a9.829 9.829 0 0 0-.716-.684l-.129-.109-.207-.166-.152-.113a6.357 6.357 0 0 0-.341-.24l-.041-.028-.146-.101-.172-.103a3.573 3.573 0 0 0-.216-.128l-.083-.047c-.034-.02-.068-.041-.104-.059a6.347 6.347 0 0 0-.268-.137 6.664 6.664 0 0 0-.243-.115l-.27-.117-.185-.074a11.861 11.861 0 0 0-.255-.094l-.157-.057a9.065 9.065 0 0 0-.41-.126l-.125-.032a9.975 9.975 0 0 0-.332-.082l-.157-.033c-.108-.022-.229-.047-.345-.064l-.116-.021a16.85 16.85 0 0 0-.451-.06l-.117-.011a9.775 9.775 0 0 0-.364-.027l-.133-.009c-.17-.007-.328-.013-.486-.013-1.801 0-3.45.463-4.903 1.375-1.571.984-2.84 2.453-3.771 4.365a14.745 14.745 0 0 0-.768 1.9l-1.033 3.188-1.034-3.186a14.775 14.775 0 0 0-.768-1.9c-.93-1.91-2.199-3.379-3.771-4.365-1.453-.912-3.103-1.375-4.903-1.375a9.83 9.83 0 0 0-.488.014l-.13.008-.353.025-.153.016c-.136.016-.29.034-.442.059l-.058.011c-.161.026-.28.05-.398.073l-.16.036a6.702 6.702 0 0 0-.314.076l-.125.032a7.91 7.91 0 0 0-.411.126l-.167.059c-.08.027-.166.061-.251.094l-.182.072a7.016 7.016 0 0 0-.242.105l-.274.129a8.568 8.568 0 0 0-.25.127l-.208.116c-.037.021-.083.047-.131.077l-.167.125c-1.572.984-2.84 2.455-3.771 4.365-.131.27-.258.554-.388.869l-.063.164c-.098.25-.192.504-.279.766l-.102.303-.971 2.988-1.034-3.188a14.589 14.589 0 0 0-.768-1.901l-.014-.039c-.924-1.892-2.188-3.354-3.752-4.332-1.453-.912-3.102-1.375-4.903-1.375-1.749 0-3.34.416-4.728 1.236-1.645.973-2.97 2.48-3.939 4.487C.844 35.219.272 37.527.067 40.166A30.28 30.28 0 0 0 0 41.313h83.72a28.102 28.102 0 0 0-.068-1.152" clip-path="url(#b)"/></g></svg>