<svg xmlns="http://www.w3.org/2000/svg" width="20" height="20" viewBox="0 0 20 20"><path class="st1" d="M15.616 7.808c0-2.048-.768-4.096-2.304-5.504C11.904.896 9.856 0 7.808 0 5.76 0 3.712.768 2.304 2.304.896 3.712 0 5.76 0 7.808c0 2.048.768 4.096 2.304 5.504 1.408 1.408 3.456 2.304 5.504 2.304a7.76 7.76 0 0 0 4.48-1.408l.384-.256 5.76 5.76c.384.384.896.384 1.28 0s.384-.896 0-1.28l-5.76-5.76.256-.384c.896-1.28 1.408-2.944 1.408-4.48zm-3.456 4.224c-1.152 1.152-2.688 1.792-4.224 1.792-1.664 0-3.2-.64-4.224-1.792C2.56 10.88 1.92 9.344 1.92 7.808s.64-3.072 1.792-4.224C4.864 2.432 6.4 1.792 7.936 1.792s3.072.64 4.224 1.792c1.152 1.152 1.792 2.688 1.792 4.224s-.64 3.072-1.792 4.224z" fill="#fff"/></svg>