<svg xmlns="http://www.w3.org/2000/svg" xmlns:xlink="http://www.w3.org/1999/xlink" width="18" height="18"><defs><clipPath id="b"><use overflow="visible" xlink:href="#a" width="1" height="1"/></clipPath></defs><g transform="scale(.18)" fill="#2f3031"><defs><path id="a" d="M0 0h99.999v100.001H0z"/></defs><path d="M4.744 4.744c-6.325 6.325-6.325 16.578 0 22.903L27.645 4.744c-6.324-6.325-16.578-6.325-22.901 0m56.147 79.051l39.108 16.207-16.206-39.108-49.879-49.879-22.903 22.901 49.88 49.879zm5.213-10.148c2.082-2.084 6.022-1.518 6.894-.647-.869-.868-1.437-4.812.646-6.894s6.241-2.822 6.241-2.822l9.313 22.47L85.75 89.2l-22.469-9.31s.741-4.161 2.823-6.243" clip-path="url(#b)"/></g></svg>