<svg xmlns="http://www.w3.org/2000/svg" width="18" height="18" viewBox="0 0 18 18"><path class="st1" d="M14.054 7.027c0-1.843-.69-3.686-2.073-4.953C10.714.806 8.87 0 7.027 0 5.184 0 3.341.691 2.074 2.074.806 3.34 0 5.184 0 7.027c0 1.843.691 3.687 2.074 4.954 1.267 1.267 3.11 2.073 4.953 2.073 1.498 0 2.88-.46 4.032-1.267l.346-.23 5.184 5.184c.345.345.806.345 1.152 0 .345-.346.345-.807 0-1.152l-5.184-5.184.23-.346a7.26 7.26 0 0 0 1.267-4.032zm-3.11 3.802c-1.037 1.037-2.42 1.613-3.802 1.613-1.497 0-2.88-.576-3.801-1.613-1.037-1.037-1.613-2.42-1.613-3.802 0-1.382.576-2.765 1.613-3.801C4.378 2.189 5.76 1.613 7.142 1.613c1.383 0 2.765.576 3.802 1.613 1.037 1.036 1.613 2.419 1.613 3.801 0 1.383-.576 2.765-1.613 3.802z" fill="#fff"/></svg>