<svg xmlns="http://www.w3.org/2000/svg" width="18.186" height="19" viewBox="0 0 18.186365 19.000027"><path d="M17.897 3.45c0-.961-.775-1.742-1.727-1.742h-1.827V.87a.578.578 0 0 0-.576-.58c-.318 0-.601.26-.575.58v.838H4.969V.87a.578.578 0 0 0-.576-.58.578.578 0 0 0-.575.58v.838H2.016C1.064 1.708.29 2.49.29 3.45V6.1c0 .032.013.06.019.09-.006.03-.019.058-.019.09l.001.003V16.97c0 .96.774 1.74 1.726 1.74H16.17c.952 0 1.727-.78 1.727-1.74V6.279c0-.032-.013-.059-.018-.09.005-.03.018-.057.018-.09V3.45zm-1.151 13.52c0 .32-.258.58-.576.58H2.016a.578.578 0 0 1-.575-.58V6.86h15.305zm0-11.272H1.44v-2.25c0-.32.258-.58.575-.58h1.802v.839c0 .32.257.58.575.58.318 0 .576-.26.576-.58v-.838h8.223v.838c0 .32.257.58.575.58.319 0 .55-.26.576-.58V2.87h1.827c.318 0 .576.26.576.58z" fill="#878787" stroke="#878787" stroke-width=".579"/></svg>