<svg xmlns="http://www.w3.org/2000/svg" width="34.133" height="34.132" viewBox="0 0 31.999999 31.998924"><path d="M32 16c0 8.835-7.163 15.999-16 15.999-8.835 0-16-7.164-16-16S7.165 0 16 0c8.837 0 16 7.163 16 16" fill="#2f3031"/><path style="isolation:auto;mix-blend-mode:normal" d="M20.108 6.223a3.515 3.515 0 0 0-3.51 3.512c0 .407.07.797.2 1.16l-5.388 3.01a3.494 3.494 0 0 0-2.785-1.378 3.517 3.517 0 0 0-3.512 3.51 3.511 3.511 0 1 0 6.306 2.129l5.392 3.016a3.46 3.46 0 0 0-.205 1.17 3.515 3.515 0 0 0 3.51 3.511 3.513 3.513 0 0 0 3.512-3.51 3.517 3.517 0 0 0-3.514-3.513 3.52 3.52 0 0 0-2.783 1.37l-5.395-3.013a3.513 3.513 0 0 0-.003-2.32l5.392-3.01a3.5 3.5 0 0 0 2.783 1.379 3.517 3.517 0 0 0 3.513-3.51 3.515 3.515 0 0 0-3.513-3.513z" color="#000" overflow="visible" fill="#fff"/></svg>