<svg xmlns="http://www.w3.org/2000/svg" width="34.133" height="34.132" viewBox="0 0 31.999999 31.998924"><path d="M32 16c0 8.835-7.165 15.999-16 15.999-8.837 0-16-7.164-16-16S7.163 0 16 0c8.835 0 16 7.163 16 16" fill="#2f3031"/><path d="M25.614 20.08c-.17.298-.41.437-.757.437-.81 0-2.057-.767-3.551-2.174 2.312.289 4.003.99 4.305 1.537.045.08.045.122.003.2m-8.63-2.727c-.268.042-.709.1-.983.127-.495.05-1.004.126-1.517.234l.066-.127c.764-1.504 1.237-3.306 1.414-5.373.702 1.965 1.619 3.598 2.73 4.87.031.037.065.077.1.114a14.49 14.49 0 0 0-1.81.155m-7.827 5.11c-.217 0-.4-.088-.583-.277-.074-.078-.089-.142-.059-.252.18-.648 1.673-1.755 3.86-2.562-1.236 1.95-2.419 3.09-3.218 3.09m17.346-3.076c-.683-1.231-3.673-2.018-6.312-2.165-.238-.256-.48-.525-.728-.807-2.273-2.594-3.19-6.366-3.531-8.362a22.71 22.71 0 0 0-.126-1.039c-.029-.206-.093-.642-.546-.642a.52.52 0 0 0-.384.172c-.162.185-.137.383-.11.612.033.261.083.612.15 1.012.194 2.028.286 5.89-1.275 8.957a53.09 53.09 0 0 1-.486.919c-2.92.85-5.277 2.365-5.624 3.62-.124.455-.015.891.307 1.23.375.39.819.59 1.319.59 1.382 0 2.959-1.54 4.68-4.571a15.1 15.1 0 0 1 2.269-.42c.286-.028.752-.088 1.036-.134.786-.119 1.678-.17 2.592-.138 2.118 2.2 3.848 3.315 5.145 3.315.698 0 1.273-.338 1.624-.955a1.183 1.183 0 0 0 0-1.194" fill="#fff"/></svg>