<svg xmlns="http://www.w3.org/2000/svg" width="19.161" height="19.093" viewBox="0 0 17.963353 17.9"><path class="st2" d="M17.6 15.9l-4.7-4.7c.9-1.2 1.3-2.6 1.3-4.1 0-1.9-.7-3.7-2.1-5C10.8.8 9 0 7.1 0s-3.7.7-5 2.1C.8 3.4 0 5.2 0 7.1s.7 3.7 2.1 5c1.3 1.3 3.1 2.1 5 2.1 1.5 0 2.9-.5 4.1-1.3l4.7 4.7c.2.2.5.3.8.3.3 0 .6-.1.8-.3.6-.6.6-1.3.1-1.7zM3.8 10.4C2.9 9.5 2.4 8.3 2.4 7c0-1.3.5-2.5 1.4-3.4.9-.9 2.1-1.4 3.4-1.4 1.3 0 2.5.5 3.4 1.4.9.9 1.4 2.1 1.4 3.4 0 1.3-.5 2.5-1.4 3.4-.9.9-2.1 1.4-3.4 1.4-1.3 0-2.5-.5-3.4-1.4zm0 0" fill="#878787"/></svg>