<svg xmlns="http://www.w3.org/2000/svg" width="19.565" height="19.2" viewBox="0 0 18.342008 18"><defs><clipPath id="a"><path d="M0 8991.82h2104.365V0H0v8991.82z"/></clipPath></defs><g clip-path="url(#a)" transform="matrix(1.16408 0 0 -1.16408 -1712.851 10316.629)"><path d="M1486.61 8848.078h-14.632a.551.551 0 0 1-.55-.549.56.56 0 0 1 .55-.549h14.646c.307 0 .548.254.548.55a.563.563 0 0 1-.562.548m-14.07 4.614l6.606 6.606 1.806-1.804-6.607-6.594-1.819-.014.013 1.806zm8.412 8.413l1.806-1.807-1.017-1.015-1.805 1.805 1.016 1.017zm-9.523-8.172l-.014-2.609c0-.147.054-.293.161-.4a.537.537 0 0 1 .388-.16l2.595.012c.147 0 .281.054.388.161l8.961 8.961a.565.565 0 0 1 0 .79l-2.568 2.594a.565.565 0 0 1-.789 0l-1.792-1.806-7.17-7.155a.601.601 0 0 1-.16-.388" fill="#fff"/></g></svg>