<?xml version="1.0" encoding="UTF-8" standalone="no"?>
<!-- Created with Inkscape (http://www.inkscape.org/) -->

<svg
   xmlns:dc="http://purl.org/dc/elements/1.1/"
   xmlns:cc="http://creativecommons.org/ns#"
   xmlns:rdf="http://www.w3.org/1999/02/22-rdf-syntax-ns#"
   xmlns:svg="http://www.w3.org/2000/svg"
   xmlns="http://www.w3.org/2000/svg"
   xmlns:sodipodi="http://sodipodi.sourceforge.net/DTD/sodipodi-0.dtd"
   xmlns:inkscape="http://www.inkscape.org/namespaces/inkscape"
   width="9.0311136mm"
   height="9.0311136mm"
   viewBox="0 0 32.000009 32.000009"
   id="svg4254"
   version="1.1"
   inkscape:version="0.91 r"
   sodipodi:docname="icon-ig-circle.svg">
  <defs
     id="defs4256" />
  <sodipodi:namedview
     id="base"
     pagecolor="#ffffff"
     bordercolor="#666666"
     borderopacity="1.0"
     inkscape:pageopacity="0.0"
     inkscape:pageshadow="2"
     inkscape:zoom="1.979899"
     inkscape:cx="-32.889087"
     inkscape:cy="2.76176"
     inkscape:document-units="px"
     inkscape:current-layer="layer1"
     showgrid="false"
     fit-margin-top="0"
     fit-margin-left="0"
     fit-margin-right="0"
     fit-margin-bottom="0"
     inkscape:window-width="1440"
     inkscape:window-height="845"
     inkscape:window-x="0"
     inkscape:window-y="27"
     inkscape:window-maximized="1" />
  <metadata
     id="metadata4259">
    <rdf:RDF>
      <cc:Work
         rdf:about="">
        <dc:format>image/svg+xml</dc:format>
        <dc:type
           rdf:resource="http://purl.org/dc/dcmitype/StillImage" />
        <dc:title></dc:title>
      </cc:Work>
    </rdf:RDF>
  </metadata>
  <g
     inkscape:label="Capa 1"
     inkscape:groupmode="layer"
     id="layer1"
     transform="translate(-169.71428,-259.21934)">
    <path
       style="color:#000000;clip-rule:nonzero;display:inline;overflow:visible;visibility:visible;opacity:1;isolation:auto;mix-blend-mode:normal;color-interpolation:sRGB;color-interpolation-filters:linearRGB;solid-color:#000000;solid-opacity:1;fill:#7b7979;fill-opacity:1;fill-rule:nonzero;stroke:#000000;stroke-width:0;stroke-linecap:round;stroke-linejoin:round;stroke-miterlimit:4;stroke-dasharray:none;stroke-dashoffset:0;stroke-opacity:1;color-rendering:auto;image-rendering:auto;shape-rendering:auto;text-rendering:auto;enable-background:accumulate"
       d="m 185.71429,259.21935 a 15.999993,15.999993 0 0 0 -16,16 15.999993,15.999993 0 0 0 16,16 15.999993,15.999993 0 0 0 16,-16 15.999993,15.999993 0 0 0 -16,-16 z m 0,6.34961 c 3.5538,0 4.31086,0.0361 5.33008,0.24609 2.17614,0.44844 3.68089,1.9442 4.07031,4.04688 0.16536,0.89289 0.21739,1.78168 0.25586,4.32031 0.0542,3.57573 -0.0674,5.7934 -0.38086,6.875 -0.28568,0.98583 -0.70665,1.67005 -1.45313,2.36719 -0.69127,0.64556 -1.54291,1.05439 -2.70898,1.29883 -0.53468,0.11207 -0.86521,0.12327 -4.38281,0.14257 -2.09275,0.0115 -4.21649,-7.5e-4 -4.71875,-0.0273 -1.08899,-0.0575 -1.85768,-0.23802 -2.59571,-0.60742 -0.64412,-0.32239 -0.97649,-0.57313 -1.48828,-1.11719 -0.81199,-0.86315 -1.25107,-1.87373 -1.42578,-3.28906 -0.13178,-1.06758 -0.19754,-3.40995 -0.16016,-5.70313 0.0401,-2.45956 0.0966,-3.40501 0.25586,-4.25976 0.392,-2.10481 1.89431,-3.59847 4.07032,-4.04688 1.01921,-0.21003 1.77823,-0.24609 5.33203,-0.24609 z m 0,2.10156 c -1.96493,0 -3.93077,0.021 -4.29297,0.0625 -1.85852,0.21272 -2.86092,0.99384 -3.16211,2.46289 -0.14349,0.6999 -0.2171,2.37438 -0.2168,4.97461 3.1e-4,2.59474 0.0703,4.18465 0.21485,4.88672 0.13,0.63162 0.45293,1.2392 0.85156,1.60352 0.6437,0.5883 1.43535,0.84458 2.83008,0.91796 1.27928,0.0673 6.12111,0.073 7.36718,0.008 1.59846,-0.0837 2.34132,-0.3131 3.01172,-0.92578 0.39862,-0.36433 0.72156,-0.9719 0.85157,-1.60352 0.14451,-0.70207 0.21454,-2.29198 0.21484,-4.88672 3e-4,-2.60023 -0.0734,-4.27471 -0.2168,-4.97461 -0.30119,-1.46905 -1.30358,-2.25017 -3.16211,-2.46289 -0.3622,-0.0415 -2.32609,-0.0625 -4.29101,-0.0625 z m 5.26758,1.91016 c 0.15363,0.0245 0.30702,0.0836 0.44921,0.17773 0.2887,0.19104 0.45542,0.52874 0.45508,0.92383 -4e-4,0.61019 -0.39397,1.01567 -1.01953,1.05078 -0.28963,0.0163 -0.41489,-0.005 -0.55664,-0.0957 -0.54556,-0.34939 -0.71739,-0.88691 -0.46289,-1.44727 0.20666,-0.455 0.67385,-0.68299 1.13477,-0.60937 z m -5.51172,1.04101 c 0.57723,-0.0257 1.17236,0.0576 1.76562,0.26758 0.64679,0.22889 1.09573,0.50622 1.62891,1.00781 1.05538,0.99287 1.61129,2.38256 1.51953,3.79883 -0.0447,0.68989 -0.17645,1.19774 -0.47266,1.81445 -0.57275,1.1925 -1.52811,2.03273 -2.79882,2.46094 -0.48784,0.16439 -0.68606,0.19693 -1.27735,0.21485 -0.46531,0.0141 -0.8327,-0.008 -1.0957,-0.0664 -1.46532,-0.32906 -2.60445,-1.22278 -3.26172,-2.55859 -0.34443,-0.7 -0.45188,-1.12232 -0.49414,-1.91993 -0.14585,-2.75264 1.985,-4.90827 4.48633,-5.01953 z m 0.42578,2.02149 c -0.44752,-0.0358 -0.91531,0.0427 -1.36914,0.25586 -1.74723,0.82057 -2.11953,3.21796 -0.70313,4.52929 0.70279,0.65066 1.51214,0.88945 2.38868,0.70508 1.29159,-0.27167 2.17968,-1.3881 2.17968,-2.74023 0,-1.51797 -1.15353,-2.64264 -2.49609,-2.75 z"
       id="path4228"
       inkscape:connector-curvature="0" />
  </g>
</svg>
