<svg xmlns="http://www.w3.org/2000/svg" width="34.133" height="34.132" viewBox="0 0 31.999999 31.998924"><path d="M32 16c0 8.835-7.163 15.999-16 15.999-8.835 0-16-7.164-16-16S7.165 0 16 0c8.837 0 16 7.163 16 16" fill="#2f3031"/><g fill="#fff"><path d="M21.503 16.223a1.048 1.048 0 1 0 0-2.094 1.048 1.048 0 0 0 0 2.094"/><path d="M23.703 22.054h-1.925v-4.128h1.925v4.128zm-13.757 0l-1.649-.008v-4.12h1.925v4.128h-.276zm.276-9.081h13.481v4.403H8.297v-4.403h1.925zm11.556-.55V7.744H10.222v4.68H7.746V22.58l1.65.024h.826v1.65h11.556v-1.65h2.476v-10.18h-2.476z"/></g><path d="M19.303 19.576h-6.606a.274.274 0 0 0-.273.276c0 .151.122.276.273.276h6.606a.274.274 0 0 0 .273-.276.274.274 0 0 0-.273-.276m0 1.376h-6.606a.274.274 0 0 0-.273.276c0 .151.122.275.273.275h6.606a.274.274 0 0 0 .273-.275.274.274 0 0 0-.273-.276" fill="#2f3031"/></svg>