<svg xmlns="http://www.w3.org/2000/svg" width="19.2" height="19.203" viewBox="0 0 18.000044 18.002782"><path d="M.534 17.975a.682.682 0 0 1-.518-.546c-.014-.068-.018-2.548-.015-8.484L.006.558.048.454A.672.672 0 0 1 .454.048L.557.006 5.932.001c3.962-.004 5.403 0 5.484.016.244.046.44.202.527.417l.043.106v5.678l-.058.121a.667.667 0 0 1-.334.335c-.116.055-.134.058-.343.058-.21 0-.227-.003-.343-.058a.667.667 0 0 1-.334-.335l-.058-.122-.005-2.356-.005-2.357H1.503v14.994h9.003l.005-2.357.005-2.356.051-.11a.622.622 0 0 1 .222-.284c.253-.174.668-.175.918-.004.103.07.16.143.228.288l.051.11v5.678l-.043.105a.713.713 0 0 1-.514.416c-.07.015-1.576.02-5.448.019-4.55-.001-5.365-.01-5.447-.027zm13.488-5.26a.8.8 0 0 1-.514-.648.795.795 0 0 1 .098-.439c.028-.048.422-.458.94-.978l.893-.896h-4.75c-5.085 0-4.885.003-5.063-.09-.353-.18-.48-.669-.277-1.055a.66.66 0 0 1 .277-.273c.178-.092-.023-.088 5.074-.089h4.758l-.913-.914c-.98-.98-.987-.99-1.03-1.217-.057-.31.13-.648.441-.796.113-.053.14-.059.299-.058.152 0 .19.007.294.053.112.05.209.143 1.617 1.545.824.82 1.532 1.518 1.574 1.55.347.265.347.916 0 1.181-.042.032-.75.73-1.574 1.55-1.693 1.687-1.578 1.589-1.88 1.602a.609.609 0 0 1-.264-.027z" fill="#fff"/></svg>