<svg xmlns="http://www.w3.org/2000/svg" width="32" height="32.001" viewBox="0 0 29.999998 30.00114"><path d="M21.692 11.568c.006.147.008.298.008.45 0 4.56-3.471 9.82-9.823 9.82a9.752 9.752 0 0 1-5.293-1.551 6.93 6.93 0 0 0 5.113-1.428 3.462 3.462 0 0 1-3.225-2.4c.21.041.424.062.65.062.312 0 .619-.04.907-.121a3.454 3.454 0 0 1-2.77-3.383c0-.015 0-.03.004-.045a3.4 3.4 0 0 0 1.564.43 3.456 3.456 0 0 1-1.071-4.608 9.806 9.806 0 0 0 7.115 3.608 3.452 3.452 0 0 1 5.882-3.15 6.826 6.826 0 0 0 2.196-.838 3.472 3.472 0 0 1-1.52 1.912 6.84 6.84 0 0 0 1.983-.542 7.042 7.042 0 0 1-1.72 1.784M14.998 0C6.728 0 0 6.73 0 14.999 0 23.272 6.729 30 14.998 30 23.27 30.001 30 23.272 30 15c0-8.271-6.73-15-15.002-15" fill="#7b7979"/></svg>