<svg xmlns="http://www.w3.org/2000/svg" width="32" height="32.001" viewBox="0 0 29.999998 30.00114"><path d="M19.052 24.304a3.282 3.282 0 0 1-3.277-3.277c0-.38.068-.75.19-1.093l-5.031-2.812a3.273 3.273 0 0 1-2.602 1.29 3.282 3.282 0 0 1-3.281-3.276 3.281 3.281 0 0 1 3.276-3.277c1.058 0 2.002.501 2.599 1.286l5.028-2.809a3.28 3.28 0 0 1 3.09-4.361 3.28 3.28 0 0 1 3.277 3.277 3.282 3.282 0 0 1-3.277 3.277 3.274 3.274 0 0 1-2.599-1.287l-5.03 2.81a3.298 3.298 0 0 1 .003 2.164l5.034 2.814a3.277 3.277 0 0 1 2.596-1.28 3.282 3.282 0 0 1 3.28 3.277 3.279 3.279 0 0 1-3.276 3.277M14.998 0C6.728 0 0 6.73 0 14.999 0 23.272 6.729 30 14.998 30 23.27 30.001 30 23.272 30 15c0-8.271-6.73-15-15.002-15" fill="#7b7979"/></svg>