<svg xmlns="http://www.w3.org/2000/svg" width="20" height="18" viewBox="0 0 20.000001 18"><g fill="#fff"><path d="M18.887 13.914c0 .697-.596 1.264-1.328 1.264H2.446c-.733 0-1.329-.567-1.329-1.264V4.088c0-.697.596-1.263 1.329-1.263h15.108c.733 0 1.329.566 1.329 1.263v9.826zM17.56 1.758H2.446C1.097 1.758 0 2.8 0 4.084v9.83c0 1.284 1.097 2.329 2.446 2.329h15.108c1.35 0 2.446-1.045 2.446-2.329V4.088c0-1.284-1.092-2.33-2.441-2.33"/><path d="M12.614 8.878l4.89-4.175a.516.516 0 0 0 .043-.752.582.582 0 0 0-.791-.04L10.01 9.674l-1.316-1.12-.011-.01a.974.974 0 0 0-.092-.075l-5.355-4.56a.577.577 0 0 0-.79.043.512.512 0 0 0 .045.752l4.95 4.21-4.93 4.391a.515.515 0 0 0-.024.752.584.584 0 0 0 .79.028L8.281 9.63l1.357 1.154c.108.092.24.134.373.134a.568.568 0 0 0 .371-.137l1.395-1.19 4.974 4.497a.578.578 0 0 0 .791-.02.516.516 0 0 0-.02-.752L12.61 8.878z"/></g></svg>