<svg xmlns="http://www.w3.org/2000/svg" width="20.693" height="20.48" viewBox="0 0 19.4 19.200001"><path class="st25" d="M.1 3.4h.3c1 0 2.1.1 3.1.4 1.7.4 3.2 1 4.7 1.9 1.3.8 2.5 1.8 3.5 3 1.3 1.4 2.3 3.1 3 4.9.6 1.7 1 3.5 1 5.3 0 .2 0 .3.3.3h3.2c.2 0 .2-.1.2-.2 0-1.2-.1-2.4-.4-3.5-.6-2.8-1.7-5.4-3.4-7.7-1.2-1.6-2.6-3-4.3-4.2C9.7 2.4 8 1.6 6.1 1 4.2.4 2.3.1.3 0 .1 0 0 .1 0 .3v3.2c.1-.3.1-.2.1-.1zM11 19h1.6c.2 0 .3-.1.3-.3-.1-.6-.1-1.2-.2-1.8-.2-1.2-.5-2.3-1.1-3.4-.6-1.4-1.5-2.6-2.6-3.6-1-1-2.2-1.8-3.6-2.5C3.8 6.6 2.1 6.3.3 6.2c-.2 0-.3.1-.3.3v3.2c0 .2.1.3.3.3.9 0 1.8.2 2.6.5 1 .3 1.8.8 2.6 1.4 1.1.8 1.9 1.8 2.5 3 .6 1.2 1 2.6 1 4 0 .2.1.2.2.2.7-.1 1.2-.1 1.8-.1zM.1 16.5c0 1.4 1.1 2.5 2.6 2.5s2.6-1.2 2.6-2.6c0-1.4-1.2-2.6-2.6-2.5-1.5 0-2.6 1.2-2.6 2.6z" fill="#868686"/></svg>