<svg xmlns="http://www.w3.org/2000/svg" width="25.067" height="19.2" viewBox="0 0 23.5 18"><path class="st27" d="M20.45.25H3.05c-1.6 0-2.8 1.3-2.8 2.8v11.9c0 1.6 1.3 2.8 2.8 2.8h17.4c1.6 0 2.8-1.3 2.8-2.8V3.15c0-1.6-1.2-2.9-2.8-2.9zm1.6 14.8c0 .8-.7 1.5-1.5 1.5H3.15c-.8 0-1.5-.7-1.5-1.5V3.15c0-.8.7-1.5 1.5-1.5h17.4c.8 0 1.5.7 1.5 1.5v11.9zm0 0" fill="#868686" stroke="#878787" stroke-width=".5" stroke-miterlimit="10"/><path class="st27" d="M14.75 8.95l5.6-5.1c.3-.2.3-.6 0-.9-.2-.3-.6-.3-.9 0l-7.8 7-1.5-1.4-.1-.1-6.2-5.5c-.3-.2-.7-.2-.9.1-.2.3-.2.7.1.9l5.7 5.1-5.7 5.3c-.3.2-.3.6 0 .9.1.1.3.2.5.2s.3-.1.4-.2l5.8-5.4 1.6 1.4c.1.1.3.2.4.2.2 0 .3-.1.4-.2l1.6-1.4 5.7 5.4c.1.1.3.2.4.2.2 0 .3-.1.5-.2.2-.3.2-.7 0-.9l-5.6-5.4zm0 0" fill="#868686" stroke="#878787" stroke-width=".5" stroke-miterlimit="10"/></svg>