<svg xmlns="http://www.w3.org/2000/svg" width="23.147" height="23.147" viewBox="0 0 21.7 21.7"><path class="st25" d="M15.7 0H6C2.7 0 0 2.7 0 6v9.7c0 3.3 2.7 6 6 6h9.7c3.3 0 6-2.7 6-6V6c0-3.3-2.7-6-6-6zm4 15.7c0 2.2-1.8 4.1-4.1 4.1H5.9c-2.2 0-4.1-1.8-4.1-4.1V6c0-2.2 1.8-4.1 4.1-4.1h9.7c2.2 0 4.1 1.8 4.1 4.1v9.7zm0 0" fill="#868686"/><path class="st25" d="M10.8 5.2c-3.1 0-5.6 2.5-5.6 5.6 0 3.1 2.5 5.6 5.6 5.6 3.1 0 5.6-2.5 5.6-5.6 0-3.1-2.5-5.6-5.6-5.6zm0 9.3c-2 0-3.7-1.6-3.7-3.7 0-2 1.6-3.7 3.7-3.7 2 0 3.7 1.6 3.7 3.7 0 2-1.6 3.7-3.7 3.7zm5.9-10.9c-.4 0-.7.1-1 .4-.3.3-.4.6-.4 1s.2.7.4 1c.3.3.6.4 1 .4s.7-.2 1-.4c.3-.3.4-.6.4-1s-.1-.7-.4-1c-.3-.2-.7-.4-1-.4zm0 0" fill="#868686"/></svg>