<svg xmlns="http://www.w3.org/2000/svg" width="18.099" height="19.2" viewBox="0 0 16.968088 18.000001"><defs><clipPath id="a"><path d="M0 8991.82h2104.365V0H0v8991.82z"/></clipPath></defs><g clip-path="url(#a)" transform="matrix(1.01666 0 0 -1.01666 -1358.58 9010.74)"><path d="M1349.835 8846.355a2.176 2.176 0 0 0-2.173 2.174c0 1.197.975 2.172 2.173 2.172a2.175 2.175 0 0 0 2.173-2.172 2.175 2.175 0 0 0-2.173-2.174m-10.353 5.688a2.174 2.174 0 0 0 0 4.346 2.174 2.174 0 0 0 2.173-2.174 2.178 2.178 0 0 0-2.173-2.172m10.353 10.025a2.175 2.175 0 0 0 2.173-2.172 2.175 2.175 0 0 0-2.173-2.174 2.176 2.176 0 0 0-2.173 2.173c0 1.198.978 2.173 2.173 2.173m0-10.378a3.167 3.167 0 0 1-2.507-1.235l-4.864 2.716a3.173 3.173 0 0 1-.004 2.092l4.86 2.713a3.159 3.159 0 0 1 2.512-1.242 3.17 3.17 0 0 1 3.165 3.165 3.168 3.168 0 0 1-3.165 3.166 3.168 3.168 0 0 1-2.986-4.214l-4.856-2.713a3.147 3.147 0 0 1-2.511 1.242 3.17 3.17 0 0 1-3.165-3.164 3.17 3.17 0 0 1 3.168-3.166 3.17 3.17 0 0 1 2.515 1.246l4.86-2.716a3.175 3.175 0 0 1-.183-1.056 3.17 3.17 0 0 1 3.165-3.165 3.168 3.168 0 0 1 3.165 3.165 3.17 3.17 0 0 1-3.17 3.165" fill="#fff"/></g></svg>