<svg xmlns="http://www.w3.org/2000/svg" viewBox="0 0 24.400001 20" height="21.333" width="26.027"><g transform="translate(-407.414 -464.505)"><path d="M426.68 471.238c-.066-3.733-3.066-6.733-6.8-6.733-1.666 0-3.266.6-4.466 1.667-1.133 1-1.866 2.266-2.133 3.733h-.067c-3.2 0-5.8 2.6-5.8 5.8 0 3.2 2.6 5.8 5.8 5.8h2.134c.266 0 .533-.2.533-.533 0-.267-.2-.534-.533-.534h-2.134c-2.6 0-4.733-2.133-4.733-4.733 0-2.6 2.133-4.733 4.733-4.733h.467c.267 0 .533-.2.533-.467.2-1.4.867-2.6 1.934-3.533 1.066-.934 2.4-1.467 3.8-1.467 3.2 0 5.8 2.6 5.8 5.8v.4c0 .133.066.333.133.4.133.133.267.133.4.133h.4a4.04 4.04 0 0 1 4.067 4.067 4.04 4.04 0 0 1-4.067 4.067h-2.333c-.267 0-.534.2-.534.533 0 .267.2.533.534.533h2.333c2.8 0 5.133-2.266 5.133-5.133-.066-2.733-2.333-5-5.133-5.067z" class="st1" fill="#fff"/><path d="M419.88 468.038c.268 0 .534-.2.534-.533 0-.267-.2-.533-.533-.533-2.2 0-4 1.6-4.333 3.8-.067.266.133.533.466.6.334.066.534-.2.6-.467.2-1.667 1.6-2.867 3.267-2.867z" class="st1" fill="#fff"/><rect transform="rotate(89.328)" ry="1.783" y="-415.408" x="482.651" height="3.566" width="6.148" style="isolation:auto;mix-blend-mode:normal" color="#000" overflow="visible" fill="none" stroke="#fff" stroke-linecap="round" stroke-linejoin="round"/><rect transform="rotate(89.328)" ry="1.783" y="-417.059" x="478.92" height="3.566" width="6.148" style="isolation:auto;mix-blend-mode:normal" color="#000" overflow="visible" fill="none" stroke="#fff" stroke-linecap="round" stroke-linejoin="round"/></g></svg>