<svg xmlns="http://www.w3.org/2000/svg" width="25.084" height="17.97" viewBox="0 0 23.516421 16.84641"><path class="st28" d="M23.475 8.3c.1 1.1 0 2.2-.1 3.2-.1 1.2-.3 2.4-.8 3.5-.5.9-1.2 1.4-2.2 1.5-5.8.3-11.7.6-17.5 0-1.1-.1-1.8-.8-2.1-1.8-.4-1.2-.6-2.4-.7-3.6-.1-1.6-.1-3.1 0-4.6 0-1.4.1-2.8.6-4.2.3-.8.6-1.5 1.4-1.9.3-.2.7-.2 1.1-.2 4.4 0 8.8-.2 13.1-.2.9 0 1.8 0 2.7.1.7.1 1.4 0 2.1.2.8.2 1.3.8 1.6 1.5.5 1.3.7 2.6.8 4v2.5zm-14.2 0v4.2c0 .1-.1.2.1.3.1 0 .2 0 .3-.1l.6-.3c1.9-1.2 3.8-2.5 5.7-3.7.3-.2.3-.3 0-.5-.7-.5-1.5-1-2.2-1.5-1.3-.9-2.7-1.8-4-2.6-.1-.1-.2-.2-.3-.1-.1.1 0 .2 0 .3-.2 1.3-.2 2.6-.2 4z" opacity=".85" fill="#868686"/></svg>