<svg xmlns="http://www.w3.org/2000/svg" viewBox="0 0 14.247964 19" width="14.248" height="19"><path d="M2.183 9.63a5.478 5.478 0 0 1-.599-2.54c.018-2.994 2.468-5.464 5.461-5.505a5.505 5.505 0 0 1 3.969 1.594 5.5 5.5 0 0 1 1.65 3.945 5.48 5.48 0 0 1-.598 2.507l-4.493 7.53a.514.514 0 0 1-.449.255.514.514 0 0 1-.448-.255zm2.038 5.456l1.557 2.61c.286.479.789.764 1.346.764s1.06-.285 1.345-.764l1.827-3.061 2.675-4.484a6.513 6.513 0 0 0 .737-3.027 6.537 6.537 0 0 0-1.96-4.688A6.538 6.538 0 0 0 7.03.54a6.541 6.541 0 0 0-4.576 1.952A6.543 6.543 0 0 0 .54 7.084a6.603 6.603 0 0 0 .737 3.067l2.405 4.032z" fill="#878787" stroke="#878787" stroke-width="1.079"/><path d="M7.124 4.609c-.994 0-1.803.809-1.803 1.803 0 .994.809 1.803 1.803 1.803.994 0 1.803-.809 1.803-1.803 0-.994-.809-1.803-1.803-1.803z" fill="#878787" stroke="#878787" stroke-width=".816"/></svg>