<svg xmlns="http://www.w3.org/2000/svg" viewBox="0 0 32.537633 33.999999" height="36.267" width="34.707"><path class="st2" d="M5.971 34c-.122 0-.243 0-.365-.122-.366-.122-.488-.487-.488-.731v-5.971H2.56c-1.463 0-2.56-1.097-2.56-2.56V2.56C0 1.097 1.097 0 2.56 0h27.418c1.463 0 2.56 1.097 2.56 2.56v22.056c0 1.463-1.097 2.56-2.56 2.56H13.04l-6.58 6.58c0 .122-.244.244-.488.244zM2.56 1.706a.833.833 0 0 0-.853.853v22.057c0 .488.366.854.853.854h3.412c.488 0 .853.365.853.853v4.752l5.362-5.362a.93.93 0 0 1 .61-.243H30.1a.833.833 0 0 0 .853-.854V2.56a.833.833 0 0 0-.853-.853H2.56zm0 0" fill="#878787"/></svg>