<svg xmlns="http://www.w3.org/2000/svg" width="34.133" height="34.133" viewBox="0 0 31.999999 31.999999"><g fill="#2f3031"><path d="M20.907 10.801c0 .335-.262.6-.598.6a.592.592 0 0 1-.597-.6v-.32h-7.321v.32c0 .335-.262.6-.597.6a.594.594 0 0 1-.6-.6v-.32H8.732v1.546h14.553v-1.546h-2.377v.32zm-9.202 8.05h4.303a.59.59 0 0 1 .597.599.59.59 0 0 1-.597.597h-4.303a.59.59 0 0 1-.597-.597.59.59 0 0 1 .597-.599m0-2.888h8.605c.335 0 .597.263.597.599a.591.591 0 0 1-.597.598h-8.605a.591.591 0 0 1-.597-.598c0-.336.262-.6.597-.6m-2.974 6.68H23.27v-9.42H8.73v9.42z"/><path d="M24.466 23.226a.592.592 0 0 1-.599.598H8.134a.599.599 0 0 1-.6-.583V9.883c0-.336.263-.598.6-.598h3.06v-.51c0-.335.264-.598.6-.598.334 0 .597.263.597.598v.51h7.32v-.51c0-.335.263-.598.599-.598a.59.59 0 0 1 .597.598v.51h2.96a.59.59 0 0 1 .599.598v13.343zM16 0C7.163 0 0 7.163 0 16s7.163 16 16 16 16-7.163 16-16S24.837 0 16 0"/></g></svg>