<svg xmlns="http://www.w3.org/2000/svg" viewBox="0 0 24.400001 20" height="21.333" width="26.027"><g fill="#fff"><path class="st1" d="M19.267 6.733C19.2 3 16.2 0 12.467 0 10.8 0 9.2.6 8 1.667c-1.133 1-1.867 2.266-2.133 3.733H5.8C2.6 5.4 0 8 0 11.2 0 14.4 2.6 17 5.8 17h2.133c.267 0 .534-.2.534-.533 0-.267-.2-.534-.534-.534H5.8c-2.6 0-4.733-2.133-4.733-4.733 0-2.6 2.133-4.733 4.733-4.733h.467c.266 0 .533-.2.533-.467.2-1.4.867-2.6 1.933-3.533C9.8 1.533 11.133 1 12.533 1c3.2 0 5.8 2.6 5.8 5.8v.4c0 .133.067.333.134.4.133.133.266.133.4.133h.4a4.04 4.04 0 0 1 4.066 4.067 4.04 4.04 0 0 1-4.066 4.067h-2.334c-.266 0-.533.2-.533.533 0 .267.2.533.533.533h2.334c2.8 0 5.133-2.266 5.133-5.133-.067-2.733-2.333-5-5.133-5.067z"/><path class="st1" d="M12.467 3.533c.266 0 .533-.2.533-.533 0-.267-.2-.533-.533-.533-2.2 0-4 1.6-4.334 3.8-.066.266.134.533.467.6.333.066.533-.2.6-.467.2-1.667 1.6-2.867 3.267-2.867zm1.666 13.8l-1.266 1.134v-6.4c0-.267-.2-.534-.534-.534-.333 0-.533.2-.533.534v6.4l-1.267-1.134c-.2-.2-.533-.2-.733.067-.2.267-.2.533.067.733l1.866 1.667c.134.133.4.2.6.2.2 0 .4-.067.6-.2l1.867-1.667c.2-.2.2-.533.067-.733a.476.476 0 0 0-.734-.067z"/></g></svg>