<svg xmlns="http://www.w3.org/2000/svg" width="21.867" height="17.707" viewBox="0 0 20.499999 16.6"><path d="M18.3 4.2v.5c0 5.5-4.2 11.9-11.9 11.9-2.4 0-4.6-.7-6.4-1.9.3 0 .7.1 1 .1 2 0 3.8-.7 5.2-1.8-1.8 0-3.4-1.2-3.9-2.9.3.1.5.1.8.1.4 0 .8 0 1.1-.1C2.3 9.7.8 8 .8 6v-.1c.6.3 1.2.5 1.9.5C1.6 5.7.8 4.4.8 2.9c0-.8.2-1.5.6-2.1C3.5 3.3 6.5 5 10 5.2c-.1-.3-.1-.6-.1-1 0-2.3 1.9-4.2 4.2-4.2 1.2 0 2.3.5 3.1 1.3 1-.2 1.9-.5 2.7-1-.3 1-1 1.8-1.8 2.3.8-.1 1.7-.3 2.4-.7-.7 1-1.4 1.7-2.2 2.3z" class="st25" fill="#868686"/></svg>