<svg xmlns="http://www.w3.org/2000/svg" width="24.878" height="18"><path d="M11.051 17.917c-3.297-.509-6.845-2.796-9.538-6.15C1.07 11.214.441 10.25.21 9.766c-.287-.598-.282-.856.028-1.5.866-1.804 3.06-4.217 5.287-5.816C7.13 1.298 8.948.472 10.627.132 11.183.02 11.455 0 12.454 0s1.271.02 1.827.132c2.001.405 4.026 1.408 5.994 2.972.798.633 2.385 2.216 3.003 2.994.64.807 1.215 1.698 1.434 2.223.325.782.198 1.312-.613 2.55-1 1.526-2.494 3.075-4.184 4.34-1.988 1.489-4.07 2.414-6.094 2.708-.742.108-2.064.107-2.77 0zm2.639-2.515a6.871 6.871 0 0 0 2.66-1.168c.475-.358 1.22-1.135 1.514-1.58 1.493-2.253 1.493-5.072 0-7.33-.32-.484-1.164-1.342-1.65-1.677-1.157-.798-2.365-1.176-3.76-1.176-1.395 0-2.603.378-3.76 1.176C8.179 4 7.356 4.849 6.99 5.4c-1.476 2.23-1.4 5.305.182 7.43.393.527 1.108 1.224 1.592 1.553a6.634 6.634 0 0 0 4.925 1.018zm-1.694-2.776c-.494-.067-.795-.165-1.282-.417-.78-.405-1.395-1.12-1.743-2.032-.13-.341-.148-.472-.15-1.13-.003-.615.019-.814.124-1.146a3.756 3.756 0 0 1 2.593-2.462c.448-.116 1.285-.132 1.718-.032.173.04.534.176.801.304.958.454 1.754 1.476 1.976 2.534.171.82.068 1.58-.323 2.376-.323.658-.974 1.32-1.596 1.622-.683.333-1.457.472-2.118.383z" fill="#2f3031"/></svg>