<svg xmlns="http://www.w3.org/2000/svg" width="24.718" height="18"><path d="M8.485 17.362c-2.222-.687-2.423-.782-2.67-1.258-.123-.235-.724-2.763-.69-2.9.011-.048.356.034.984.236.532.171.982.326 1 .344.019.018.075.22.127.448l.127.56c.019.08.124.249.235.374.208.238.424.32 2.073.791.77.22.937.18 1.539-.365.237-.215.442-.39.456-.39.079 0 1.907.607 1.95.648.074.07-1.937 1.952-2.206 2.065-.427.178-.764.114-2.925-.553zm10.791-1.156l-8.932-2.739c-4.725-1.449-7.431-2.248-7.61-2.248-.436 0-.887.166-1.387.51l-.462.319-.204-.31c-.8-1.223-.912-3.434-.246-4.855.292-.622.262-.612.892-.289.537.276.568.284 1.172.283h.62l6.822-2.753C19.678.194 20.079.038 20.563.004c.56-.04 1.113.22 1.681.788 1.389 1.388 2.274 3.987 2.446 7.174.225 4.175-.896 7.741-2.695 8.58-.564.262-.887.221-2.719-.34zm2.267-1.656c.61-.371 1.14-1.71 1.432-3.605.138-.901.157-3.128.033-4.002-.341-2.42-1.154-4.41-1.973-4.833a1.007 1.007 0 0 0-.84 0c-1.076.556-1.852 3.696-1.638 6.628.207 2.847 1.12 5.44 2.058 5.85.287.126.687.11.928-.038z" fill="#1a1a1a"/></svg>