<svg xmlns="http://www.w3.org/2000/svg" width="18.15" height="18"><path d="M6.022 17.908a.392.392 0 0 1-.22-.334c0-.51.94-3.234 1.543-4.469l.63-1.293-.841-.854-.842-.855-1.262.67c-1.36.722-2.534 1.143-3.88 1.393-.808.15-.861.135-1.017-.275-.25-.659-.236-.676.852-1.015.559-.174 1.643-.64 2.41-1.037l1.394-.72-.421-.34C3.753 8.28 2.153 7.506.974 7.137c-.959-.301-1.019-.352-.915-.773.061-.248.165-.503.231-.567.196-.19 3.011.692 4.563 1.43l1.439.684.834-.848.835-.847-.8-1.599C6.478 3.252 5.623.464 5.826.262c.036-.035.282-.12.549-.186.38-.096.506-.052.587.206.358 1.144 1.04 2.762 1.51 3.579l.547.953.541-.833c.298-.458.8-1.523 1.118-2.367.583-1.554.879-1.846 1.474-1.46.216.139.194.38-.145 1.635-.219.81-.717 2.139-1.108 2.953l-.71 1.48.836.85.837.849.903-.51c1.175-.662 2.984-1.338 4.152-1.55.893-.163.936-.152 1.094.262.25.658.235.676-.852 1.014-1.138.354-3.757 1.657-3.757 1.87 0 .203 2.589 1.498 3.712 1.858.535.17.996.33 1.025.354.03.024 0 .252-.063.507-.085.337-.23.462-.537.462-.66 0-3.594-1.004-4.66-1.596l-.965-.535-.87.87-.87.87.535.947c.656 1.16 1.382 3.162 1.547 4.264.117.776.1.827-.327.934-.525.131-.825-.01-.825-.385 0-.423-1.011-2.732-1.554-3.549l-.494-.743-.583.975c-.321.537-.806 1.587-1.078 2.334-.49 1.346-.746 1.596-1.373 1.334zm3.76-9.605l-.692-.71-.704.712-.704.71.69.706.689.706.707-.707.707-.708z" fill="#2f3031"/></svg>