<svg xmlns="http://www.w3.org/2000/svg" xmlns:xlink="http://www.w3.org/1999/xlink" width="18.001" height="18"><defs><path id="a" d="M0 .001h70.99V70.99H0z"/><clipPath id="b"><use height="1" width="1" xlink:href="#a" overflow="visible"/></clipPath></defs><path clip-path="url(#b)" d="M35.049 6.009C29.072.033 20.336-1.482 12.951 1.447L27.08 15.576c.782.781.78 2.056-.002 2.836l-8.667 8.667a2.012 2.012 0 0 1-2.836.003L1.446 12.952C-1.482 20.338.034 29.074 6.008 35.048c5.17 5.172 12.41 6.987 19.052 5.487l27.249 27.25c4.272 4.272 11.201 4.272 15.475-.002 4.275-4.272 4.275-11.201 0-15.478a.174.174 0 0 1-.014-.012L40.539 25.061c1.497-6.644-.32-13.883-5.49-19.052m28.834 57.875a5.428 5.428 0 0 1-7.674-.002 5.43 5.43 0 0 1 0-7.672 5.427 5.427 0 0 1 7.674 7.674" transform="scale(.25356)" fill="#2f3031"/></svg>