<svg xmlns="http://www.w3.org/2000/svg" width="17.992" height="18"><path d="M15.737 17.944a1.63 1.63 0 0 1-.322-.16c-.074-.052-.91-.87-1.856-1.818-1.515-1.518-1.732-1.75-1.82-1.938-.135-.293-.155-.669-.05-.945l.074-.196-.309-.31-.309-.311-.2.151c-.828.629-1.878 1.064-3.037 1.26-.454.077-1.55.087-1.98.017-1.912-.306-3.505-1.259-4.613-2.758C.688 10.087.257 9.052.065 7.931c-.087-.507-.086-1.614 0-2.131C.527 3.067 2.453.929 5.095.216 5.711.05 6.122 0 6.873 0 8.019 0 8.9.2 9.889.685c.74.362 1.213.7 1.832 1.308 1.058 1.038 1.725 2.366 1.975 3.932.07.43.06 1.526-.017 1.98-.196 1.16-.631 2.21-1.26 3.038l-.151.2.31.308.31.31.197-.075a1.24 1.24 0 0 1 .964.064c.205.102.429.313 1.987 1.874 2.019 2.023 1.956 1.943 1.956 2.51 0 .48-.081.629-.654 1.202-.54.54-.716.641-1.148.661a1.15 1.15 0 0 1-.454-.054zm-8.096-5.51c2.235-.296 4.126-1.982 4.677-4.17.162-.641.214-1.556.124-2.165a5.664 5.664 0 0 0-4.083-4.653c-.876-.245-2.005-.254-2.897-.023a5.674 5.674 0 0 0-3.954 3.754 5.86 5.86 0 0 0-.172 2.694c.188 1.102.807 2.247 1.65 3.052a5.565 5.565 0 0 0 4.655 1.512zm-1.714-1.545a3.843 3.843 0 0 1-2.01-1.036c-1.181-1.13-1.505-2.957-.782-4.41l.15-.303.023.392a4.89 4.89 0 0 0 .556 2.062 5.013 5.013 0 0 0 3.241 2.545c.426.103 1.082.166 1.428.137l.25-.02-.236.145a4.156 4.156 0 0 1-1.06.437c-.359.094-1.199.122-1.56.051z" fill="#2f3031"/></svg>