<?xml version="1.0" encoding="UTF-8" standalone="no"?>
<svg
   xmlns:dc="http://purl.org/dc/elements/1.1/"
   xmlns:cc="http://creativecommons.org/ns#"
   xmlns:rdf="http://www.w3.org/1999/02/22-rdf-syntax-ns#"
   xmlns:svg="http://www.w3.org/2000/svg"
   xmlns="http://www.w3.org/2000/svg"
   height="45"
   width="45"
   xml:space="preserve"
   viewBox="0 0 45 45"
   y="0px"
   x="0px"
   id="Capa_1"
   version="1.1"><metadata
     id="metadata43"><rdf:RDF><cc:Work
         rdf:about=""><dc:format>image/svg+xml</dc:format><dc:type
           rdf:resource="http://purl.org/dc/dcmitype/StillImage" /><dc:title></dc:title></cc:Work></rdf:RDF></metadata><defs
     id="defs41" /><g
     transform="translate(-77.71186,-125.9661)"
     id="g4251"><rect
       style="opacity:1;fill:none;fill-opacity:1;stroke:none;stroke-width:1;stroke-linecap:round;stroke-linejoin:round;stroke-miterlimit:4;stroke-dasharray:none;stroke-dashoffset:0;stroke-opacity:1"
       id="rect4171"
       width="45"
       height="45"
       x="77.711861"
       y="125.9661"
       ry="0" /><g
       id="g3"
       transform="matrix(0.17175573,0,0,0.17175573,77.71186,125.9661)"
       style="fill:#ffffff"><path
         d="m 96.896,193.805 c 4.808,2.173 10.54,1.66 14.799,-1.324 l 68.285,-47.84 c 4.738,-3.319 7.508,-8.485 7.482,-13.958 -0.024,-5.473 -2.842,-10.617 -7.61,-13.899 L 111.127,69.473 c -4.287,-2.95 -10.024,-3.42 -14.812,-1.209 -4.787,2.209 -7.799,6.717 -7.776,11.638 l 0.474,102.327 c 0.022,4.919 3.076,9.403 7.883,11.576 z"
         id="path5"
         style="fill:#ffffff" /><path
         d="M 247,18 15,18 C 6.716,18 0,24.716 0,33 l 0,196 c 0,8.284 6.716,15 15,15 l 232,0 c 8.284,0 15,-6.716 15,-15 l 0,-196 c 0,-8.284 -6.716,-15 -15,-15 z m -15,196 -202,0 0,-166 202,0 0,166 z"
         id="path7"
         style="fill:#ffffff" /></g></g><g
     transform="translate(-77.71186,-125.9661)"
     id="g9" /><g
     transform="translate(-77.71186,-125.9661)"
     id="g11" /><g
     transform="translate(-77.71186,-125.9661)"
     id="g13" /><g
     transform="translate(-77.71186,-125.9661)"
     id="g15" /><g
     transform="translate(-77.71186,-125.9661)"
     id="g17" /><g
     transform="translate(-77.71186,-125.9661)"
     id="g19" /><g
     transform="translate(-77.71186,-125.9661)"
     id="g21" /><g
     transform="translate(-77.71186,-125.9661)"
     id="g23" /><g
     transform="translate(-77.71186,-125.9661)"
     id="g25" /><g
     transform="translate(-77.71186,-125.9661)"
     id="g27" /><g
     transform="translate(-77.71186,-125.9661)"
     id="g29" /><g
     transform="translate(-77.71186,-125.9661)"
     id="g31" /><g
     transform="translate(-77.71186,-125.9661)"
     id="g33" /><g
     transform="translate(-77.71186,-125.9661)"
     id="g35" /><g
     transform="translate(-77.71186,-125.9661)"
     id="g37" /></svg>