<?xml version="1.0" encoding="UTF-8" standalone="no"?>
<!-- Created with Inkscape (http://www.inkscape.org/) -->
<svg id="svg2" xmlns:rdf="http://www.w3.org/1999/02/22-rdf-syntax-ns#" xmlns="http://www.w3.org/2000/svg" height="57" width="66.318" version="1.1" xmlns:cc="http://creativecommons.org/ns#" xmlns:dc="http://purl.org/dc/elements/1.1/">
 <metadata id="metadata7">
  <rdf:RDF>
   <cc:Work rdf:about="">
    <dc:format>image/svg+xml</dc:format>
    <dc:type rdf:resource="http://purl.org/dc/dcmitype/StillImage"/>
    <dc:title/>
   </cc:Work>
  </rdf:RDF>
 </metadata>
 <g id="capa1" transform="translate(96.974643,-692.3165)">
  <g id="g3982">
   <rect id="rect3034" ry="0.56976" height="57" width="66.318" y="692.32" x="-96.975" fill="#FFF"/>
   <g id="g3963" transform="matrix(0.963784,0,0,0.963784,-2.3736206,26.052673)">
    <path id="path3032" fill="#acabb0" d="m-66.35,746.79c-0.76222-0.0975-1.6327-0.27877-2.2587-0.47028l-0.44926-0.13743,0.000599-0.44648c0.000719-0.59649,0.08673-2.2605,0.12784-2.4724,0.01858-0.0958,0.06273-0.15656,0.10196-0.14034,1.3966,0.57761,1.8505,0.71905,2.6147,0.81488,1.6244,0.20368,2.9687-0.0754,3.6739-0.76281,0.58467-0.56987,0.81313-1.1789,0.85849-2.2886l0.0306-0.74877-0.16886,0.20966c-0.26221,0.32553-0.71979,0.75914-1.0167,0.96343-0.89551,0.61613-2.1909,0.87888-3.4129,0.69227-2.0642-0.31524-3.4956-1.6705-4.0305-3.8162-0.49985-2.0052-0.12458-4.4611,0.8919-5.8371,0.87555-1.1852,2.2484-1.827,3.9055-1.8259,1.4323,0.00097,2.5756,0.54555,3.4442,1.6407,0.19089,0.24066,0.38066,0.48876,0.42171,0.55133,0.06584,0.10036,0.07399,0.0855,0.06907-0.12584-0.0031-0.13178-0.0029-0.59676,0-1.0333l0.0058-0.79369h1.768,1.768l-0.0083,5.3462c-0.0089,5.7575-0.02793,6.1846-0.32035,7.1901-0.58263,2.0033-1.8704,3.013-4.3755,3.4306-0.77364,0.12898-2.8364,0.16288-3.6416,0.0599z"/>
    <path id="path3030" fill="#FFF" d="m-63.269,738.83c1.0747-0.52779,1.6859-1.9187,1.4162-3.223-0.19064-0.92193-0.62762-1.5224-1.3649-1.8755-0.35943-0.17215-0.43771-0.18648-1.0183-0.18648-0.56964,0-0.65828,0.0154-0.9397,0.16384-0.80075,0.4222-1.2736,1.3631-1.2758,2.5385-0.0017,0.91346,0.23669,1.6206,0.72468,2.15,0.45391,0.49244,0.80024,0.62907,1.5507,0.61176,0.48458-0.0112,0.61926-0.0378,0.90713-0.17914z"/>
    <path id="path3028" fill="#acabb0" d="m-89.006,742.29c-2.0189-0.2947-3.4714-1.0856-4.4902-2.445-0.98649-1.3162-1.2995-3.4211-0.77689-5.2245,0.64079-2.2112,2.5706-3.7058,5.2147-4.0386,0.71783-0.0903,2.215-0.0395,2.8378,0.0964,2.5967,0.56662,4.241,2.1672,4.6973,4.5723,0.1903,1.0032,0.08933,2.4112-0.23565,3.2862-0.6944,1.8696-2.0866,3.0314-4.2981,3.5867-0.52072,0.13076-0.77467,0.15678-1.691,0.17331-0.59302,0.0107-1.1591,0.008-1.2579-0.007z"/>
    <path id="path3026" fill="#FFF" d="m-86.939,739.38c0.47266-0.21909,0.86995-0.63172,1.1059-1.1485,0.29124-0.63797,0.36226-0.99759,0.35732-1.8092-0.009-1.4861-0.49828-2.4801-1.4502-2.9463-0.3183-0.1559-0.39314-0.16758-1.0613-0.16556-0.84367,0.003-1.1056,0.0912-1.5802,0.53522-0.58192,0.54432-0.90361,1.4616-0.90361,2.5767,0,1.5842,0.62835,2.7056,1.7083,3.0488,0.47236,0.15012,1.4039,0.10362,1.8238-0.091z"/>
    <path id="path3024" fill="#acabb0" d="m-79.542,742.01c-0.01633-0.0428-0.02273-2.5847-0.01423-5.6487l0.01545-5.5708,1.7806-0.0159,1.7806-0.0159,0.0164,1.0342,0.0164,1.0342,0.11495-0.23961c0.18773-0.39132,0.5964-0.93676,0.95678-1.277,0.56481-0.53325,1.2866-0.79065,2.2108-0.78842,0.42476,0.001,1.2912,0.09,1.3386,0.13738,0.0188,0.0188-0.16387,3.1786-0.18508,3.2014-0.0079,0.009-0.29022-0.0169-0.62738-0.0565-1.4958-0.1755-2.5376,0.30499-3.0842,1.4224-0.35657,0.72897-0.35452,0.70861-0.39118,3.8899l-0.03382,2.9352-1.9326,0.0179c-1.543,0.0143-1.9385,0.002-1.9622-0.0599z"/>
    <path id="path3022" fill="#7c7c7a" d="m-74.982,724.17c-2.3249-0.33928-4.1263-1.6846-4.8845-3.6478-0.4234-1.0963-0.4944-2.6218-0.1853-3.9807,0.20389-0.89635,0.75366-1.8638,1.4181-2.4954,1.1693-1.1116,2.5728-1.6162,4.4838-1.6122,2.3536,0.005,3.9658,0.92235,4.8978,2.7872,0.51034,1.0211,0.7235,2.1433,0.70827,3.7289l-0.0053,0.55409h-3.8684-3.8684l0.03868,0.19468c0.07028,0.35369,0.38739,0.92702,0.63791,1.1534,0.5593,0.50529,1.3879,0.74584,2.5747,0.74748,1.148,0.002,2.1735-0.21936,3.0602-0.65932,0.19762-0.098,0.37-0.17826,0.3831-0.17826,0.01309,0,0.0238,0.62918,0.0238,1.3982v1.3982l-0.61399,0.18605c-1.2158,0.3684-2.1265,0.49493-3.4877,0.48457-0.52799-0.004-1.1188-0.0305-1.3129-0.0588z"/>
    <path id="path3020" fill="#FFF" d="m-72.09,716.85c-0.1083-0.89957-0.58382-1.5869-1.253-1.8111-0.43404-0.14541-1.1823-0.14912-1.5957-0.008-0.68958,0.23557-1.2305,1.0061-1.3629,1.9413l-0.03602,0.25459h2.1464,2.1464l-0.04538-0.37691z"/>
    <path id="path3018" fill="#7c7c7a" d="m-62.359,724.15c-1.234-0.22391-2.0508-0.74108-2.4627-1.5593-0.19295-0.38334-0.36666-1.0341-0.43149-1.6166-0.033-0.29651-0.06023-1.6634-0.0605-3.0374l-0.000599-2.4983-1.1082,0.0124-1.1082,0.0124,0.000012-1.3927,0.000006-1.3927h1.1381,1.1381v-1.2598c0-0.95588,0.01807-1.2653,0.07488-1.2824,0.60005-0.18087,3.6826-1.1323,3.7403-1.1544,0.06361-0.0244,0.07843,0.3221,0.07843,1.8333v1.8634h1.3478,1.3478v1.3777,1.3777h-1.3513-1.3513l0.02096,2.5308c0.01883,2.273,0.0321,2.5602,0.1303,2.8192,0.1404,0.37033,0.44589,0.66512,0.78872,0.76111,0.26012,0.0728,1.1366,0.0525,1.6199-0.0376l0.18669-0.0348,0.01264,0.52977c0.007,0.29137,0.02249,0.61063,0.03452,0.70946,0.01203,0.0988,0.02725,0.43579,0.03382,0.74877l0.01194,0.56906-0.74231,0.10028c-0.89116,0.12039-2.4803,0.13103-3.0884,0.0207z"/>
    <path id="path3016" fill="#7c7c7a" d="m-94.127,718.34,0-5.6615,1.797,0,1.797,0,0,1.0001,0,1.0001,0.18361-0.28952c0.5438-0.85749,1.1854-1.3564,2.1825-1.6971,1.0309-0.35223,2.4185-0.35624,3.4252-0.01,1.1673,0.40163,2.0646,1.3813,2.4114,2.6328,0.21339,0.77006,0.24954,1.5854,0.23103,5.2106l-0.01759,3.4443-1.958,0.0158-1.958,0.0158-0.02199-3.2505c-0.01916-2.8321-0.03502-3.295-0.12325-3.5967-0.1433-0.49005-0.31959-0.81022-0.58821-1.0683-0.30244-0.29058-0.57968-0.38232-1.131-0.37422-0.87977,0.0129-1.5088,0.40665-1.8833,1.1787-0.38809,0.80017-0.40858,0.99847-0.43451,4.2042l-0.02326,2.8753-1.9443,0.0158-1.9443,0.0158v-5.6615z"/>
    <path id="path3014" fill="#7c7c7a" d="m-56.648,723.96c-0.02244-0.0224-0.0408-0.81802-0.0408-1.768v-1.7272h1.797c0.98837,0,1.8139,0.00001,1.8345,0.00003,0.02061,0.00001,0.03457,0.78847,0.03101,1.7521l-0.0065,1.7521-1.7872,0.0158c-0.98299,0.009-1.8056-0.003-1.828-0.025z"/>
    <path id="path3012" fill="#000" d="m-77.714,706.41c-1.2118-0.2476-2.2633-0.96758-2.6939-1.8445-0.47323-0.96373-0.47284-2.2946,0.000959-3.2595,0.23724-0.48312,0.86716-1.1277,1.3752-1.4071,0.49264-0.27097,1.353-0.55931,2.0587-0.68992,0.58672-0.10859,2.958-0.14963,3.5345-0.0612l0.29194,0.0448-0.02615-0.31529c-0.08365-1.0087-0.81119-1.474-2.3847-1.5251-1.2508-0.0406-2.4591,0.19185-3.3625,0.64698l-0.33748,0.17002-0.03691-0.18454c-0.0203-0.1015-0.03691-0.70818-0.03691-1.3482v-1.1636l0.20543-0.0858c1.174-0.49053,3.3701-0.7877,5.0052-0.67729,2.1722,0.14669,3.7213,1.1124,4.3225,2.6948,0.31311,0.82404,0.30857,0.76799,0.35592,4.394,0.0319,2.4436,0.06816,3.5554,0.12752,3.9105,0.04561,0.27286,0.07032,0.50872,0.05491,0.52414-0.01541,0.0154-0.82895,0.028-1.8078,0.028h-1.7798l-0.04358-0.87178-0.04358-0.87178-0.25337,0.34764c-0.57742,0.79224-1.2974,1.2951-2.1758,1.5198-0.53939,0.13796-1.7349,0.15063-2.3501,0.0249z"/>
    <path id="path3010" fill="#FFF" d="m-74.57,703.66c0.74246-0.36453,1.3279-1.2219,1.3936-2.0409l0.0312-0.38873-0.71204-0.0121c-1.0529-0.0179-1.4434,0.005-1.9197,0.11126-0.52424,0.11722-0.8197,0.27833-1.0619,0.57911-0.16136,0.20035-0.18725,0.28441-0.2068,0.6714-0.02627,0.52022,0.08043,0.75169,0.4633,1.0051,0.33759,0.2234,0.57153,0.27722,1.1445,0.26332,0.42689-0.0104,0.56712-0.0408,0.8678-0.18845z"/>
    <path id="path3008" fill="#000" d="m-41.736,706.41c-1.464-0.31394-2.4731-1.1204-2.8681-2.2922-0.1477-0.43814-0.20078-1.3636-0.10878-1.8965,0.11185-0.64773,0.42356-1.2303,0.92487-1.7286,0.48064-0.47773,0.90316-0.72464,1.6882-0.98652,0.91226-0.30433,1.5255-0.38526,2.9621-0.3909,0.70833-0.003,1.4429,0.0154,1.6323,0.0404l0.34443,0.0454v-0.18365c0-0.6833-0.4401-1.2453-1.1681-1.4917-0.33383-0.11297-0.58532-0.14739-1.2336-0.16883-1.2505-0.0414-2.4009,0.18164-3.3974,0.65854-0.17002,0.0814-0.32093,0.13614-0.33535,0.12172-0.01442-0.0144-0.02916-0.537-0.03275-1.1613-0.0036-0.62428-0.0219-1.2119-0.04068-1.3058-0.03241-0.16203-0.01623-0.17755,0.31645-0.30356,1.7761-0.67274,4.5975-0.87401,6.2597-0.44654,1.6365,0.42085,2.7452,1.4875,3.1759,3.0555,0.12426,0.45237,0.13291,0.64344,0.1761,3.8901,0.02498,1.8779,0.07225,3.5626,0.10504,3.7438,0.03279,0.18121,0.06159,0.40359,0.06399,0.49419l0.0044,0.16473h-1.797-1.797l-0.0067-0.31448c-0.0037-0.17297-0.02391-0.56742-0.04493-0.87656l-0.03822-0.56208-0.2345,0.34118c-0.30684,0.44643-0.90168,0.98691-1.348,1.2248-0.57371,0.30579-1.1613,0.42754-2.0362,0.42187-0.41849-0.003-0.93749-0.0442-1.1661-0.0932z"/>
    <path id="path3006" fill="#FFF" d="m-38.589,703.67c0.42861-0.2097,0.71827-0.46164,0.95512-0.83074,0.25504-0.39743,0.47322-1.013,0.47322-1.3352v-0.26082l-0.79369-0.0234c-1.5619-0.046-2.3098,0.10861-2.7776,0.57433-0.50465,0.50244-0.47351,1.335,0.06532,1.746,0.32047,0.24443,0.65451,0.32782,1.2346,0.3082,0.41315-0.014,0.57858-0.049,0.84308-0.17839z"/>
    <path id="path3004" fill="#aa2416" d="m-94.427,706.24c0-0.0108,0.8491-1.2937,1.8869-2.8509s1.8869-2.8588,1.8869-2.8924c0-0.0598-0.4536-0.79584-1.3767-2.2339-0.25376-0.39535-0.63237-0.98837-0.84136-1.3178-0.20899-0.32946-0.54578-0.85509-0.74842-1.1681-0.20264-0.31298-0.40076-0.62971-0.44025-0.70384l-0.07181-0.13478h2.3265,2.3265l0.80194,1.6487c0.62688,1.2888,0.81726,1.632,0.87216,1.5724,0.03862-0.042,0.38834-0.69628,0.77714-1.454,0.38881-0.75776,0.75197-1.4586,0.80704-1.5574l0.10012-0.17971,2.1363-0.0157c1.175-0.009,2.1363-0.00054,2.1363,0.0181,0,0.0186-0.31342,0.52435-0.69649,1.1239-0.71104,1.1129-1.1334,1.7761-1.4001,2.1986-0.08236,0.1305-0.4262,0.6693-0.76408,1.1974l-0.61432,0.96008,0.15905,0.25392c0.2411,0.3849,0.63652,0.99534,1.3092,2.021,1.2461,1.9001,2.2463,3.4585,2.2463,3.4998,0,0.0189-1.0582,0.0344-2.3515,0.0344h-2.3515l-0.50344-0.94345c-0.78204-1.4655-0.97-1.8157-1.1732-2.1855l-0.18878-0.34353-0.21129,0.40343c-0.11621,0.22188-0.52828,1.0032-0.9157,1.7362l-0.70441,1.3328h-2.2096c-1.2153,0-2.2096-0.009-2.2096-0.0196z"/>
    <path id="path3002" fill="#000" d="m-66.992,700.6,0-5.6607,1.797,0,1.797,0,0,1.0021,0,1.0021,0.26636-0.45502c0.32921-0.5624,0.98092-1.2432,1.3852-1.4471,0.45241-0.22813,0.9911-0.34743,1.5814-0.35023,0.58815-0.003,1.2658,0.0581,1.3711,0.12321,0.05197,0.0321,0.04686,0.39791-0.02063,1.4765-0.04934,0.7886-0.08997,1.5012-0.09029,1.5836l-0.000599,0.14976h-1.0633c-0.98461,0-1.0899,0.0107-1.4227,0.14451-0.45352,0.18235-1.0169,0.7316-1.2407,1.2095-0.38025,0.81217-0.37042,0.71371-0.39256,3.9323l-0.02029,2.9502h-1.9736-1.9736v-5.6607z"/>
    <path id="path2998" fill="#000" d="m-58.426,706.23c0-0.0167,0.83742-1.2861,1.8609-2.8209s1.8739-2.8242,1.8897-2.8654c0.01582-0.0412-0.44686-0.82721-1.0282-1.7466-1.5122-2.3916-1.7367-2.7267-1.793-2.6756-0.02758,0.025-0.03184,0.0136-0.0095-0.0255,0.02238-0.0391-0.10807-0.30163-0.2899-0.58349-0.18184-0.28186-0.33061-0.5262-0.33061-0.54298,0-0.0168,1.0445-0.0291,2.3212-0.0275l2.3212,0.003,0.8079,1.6464c0.64077,1.3058,0.82142,1.6279,0.87321,1.5571,0.03591-0.0491,0.42712-0.79105,0.86933-1.6488l0.80404-1.5594,2.1415-0.00068c1.1778-0.00036,2.1415,0.0135,2.1415,0.0307,0,0.0336-0.94517,1.5237-2.8405,4.4782-0.6067,0.94575-0.63982,1.0132-0.55847,1.1381,1.5031,2.3077,3.6385,5.6193,3.6385,5.6426,0,0.0171-1.0645,0.0311-2.3655,0.0311h-2.3655l-0.2684-0.52414c-0.14762-0.28827-0.3716-0.71283-0.49774-0.94345-0.12615-0.23062-0.41174-0.76349-0.63466-1.1842-0.22292-0.42066-0.42883-0.7503-0.4576-0.73253-0.02876,0.0178-0.28774,0.48326-0.5755,1.0344-0.28777,0.55115-0.57298,1.0914-0.63379,1.2006-0.06082,0.1092-0.09242,0.22793-0.07022,0.26384,0.02219,0.0359,0.01559,0.05-0.01468,0.0313-0.03026-0.0187-0.16064,0.16582-0.28972,0.41006l-0.23469,0.44406h-2.2054c-1.213,0-2.2054-0.0137-2.2054-0.0304z"/>
   </g>
  </g>
 </g>
</svg>
