<?xml version="1.0" encoding="UTF-8" standalone="no"?>
<!-- Created with Inkscape (http://www.inkscape.org/) -->

<svg
   xmlns:dc="http://purl.org/dc/elements/1.1/"
   xmlns:cc="http://creativecommons.org/ns#"
   xmlns:rdf="http://www.w3.org/1999/02/22-rdf-syntax-ns#"
   xmlns:svg="http://www.w3.org/2000/svg"
   xmlns="http://www.w3.org/2000/svg"
   xmlns:sodipodi="http://sodipodi.sourceforge.net/DTD/sodipodi-0.dtd"
   xmlns:inkscape="http://www.inkscape.org/namespaces/inkscape"
   width="113.00001"
   height="30.029644"
   id="svg19372"
   version="1.1"
   inkscape:version="0.91 r"
   sodipodi:docname="logo-nonprofit.svg">
  <defs
     id="defs19374" />
  <sodipodi:namedview
     id="base"
     pagecolor="#ffffff"
     bordercolor="#666666"
     borderopacity="1.0"
     inkscape:pageopacity="0.0"
     inkscape:pageshadow="2"
     inkscape:zoom="5.6"
     inkscape:cx="57.440517"
     inkscape:cy="7.6492176"
     inkscape:document-units="px"
     inkscape:current-layer="capa1"
     showgrid="false"
     inkscape:window-width="1440"
     inkscape:window-height="845"
     inkscape:window-x="0"
     inkscape:window-y="27"
     inkscape:window-maximized="1"
     showguides="true"
     inkscape:guide-bbox="true"
     fit-margin-top="0"
     fit-margin-left="0"
     fit-margin-right="0"
     fit-margin-bottom="0">
    <sodipodi:guide
       orientation="0,1"
       position="330.61027,808.21803"
       id="guide3178" />
  </sodipodi:namedview>
  <metadata
     id="metadata19377">
    <rdf:RDF>
      <cc:Work
         rdf:about="">
        <dc:format>image/svg+xml</dc:format>
        <dc:type
           rdf:resource="http://purl.org/dc/dcmitype/StillImage" />
        <dc:title />
      </cc:Work>
    </rdf:RDF>
  </metadata>
  <g
     inkscape:label="Capa 1"
     inkscape:groupmode="layer"
     id="capa1"
     transform="translate(-370.43561,-992.12395)">
    <rect
       style="opacity:1;fill:#ffffff;fill-opacity:1;stroke:none;stroke-width:0.80000001;stroke-linecap:round;stroke-linejoin:round;stroke-miterlimit:4;stroke-dasharray:none;stroke-dashoffset:0;stroke-opacity:1"
       id="rect3570"
       width="113"
       height="30"
       x="370.43561"
       y="992.13879" />
    <path
       inkscape:connector-curvature="0"
       id="path3481"
       style="font-style:normal;font-variant:normal;font-weight:normal;font-stretch:normal;font-size:305.14248657px;line-height:126.99999809%;font-family:'Arial Black';-inkscape-font-specification:'Arial Black,';text-align:start;letter-spacing:0px;word-spacing:0px;writing-mode:lr-tb;text-anchor:start;fill:#006680;fill-opacity:1;stroke:none"
       d="m 370.43562,996.98908 4.28406,0 0,1.95552 q 0.96081,-1.19818 1.94422,-1.70684 0.98342,-0.51997 2.39637,-0.51997 1.91031,0 2.98415,1.14166 1.08514,1.13036 1.08514,3.50415 l 0,7.6299 -4.62317,0 0,-6.6013 q 0,-1.1304 -0.41823,-1.5938 -0.41824,-0.4748 -1.17558,-0.4748 -0.83647,0 -1.35643,0.633 -0.51997,0.633 -0.51997,2.2721 l 0,5.7648 -4.60056,0 0,-12.00442 z" />
    <path
       inkscape:connector-curvature="0"
       id="path3483"
       style="font-style:normal;font-variant:normal;font-weight:normal;font-stretch:normal;font-size:305.14248657px;line-height:126.99999809%;font-family:'Arial Black';-inkscape-font-specification:'Arial Black,';text-align:start;letter-spacing:0px;word-spacing:0px;writing-mode:lr-tb;text-anchor:start;fill:#006680;fill-opacity:1;stroke:none"
       d="m 385.33377,1003.0252 q 0,-2.7468 1.85379,-4.52144 1.85379,-1.78597 5.00749,-1.78597 3.60585,0 5.44834,2.09117 1.48077,1.68424 1.48077,4.14844 0,2.7694 -1.84248,4.544 -1.83119,1.7634 -5.07532,1.7634 -2.89373,0 -4.67969,-1.4695 -2.1929,-1.8199 -2.1929,-4.7701 z m 4.61187,-0.011 q 0,1.6051 0.6443,2.3738 0.65561,0.7686 1.63902,0.7686 0.99472,0 1.62772,-0.7573 0.64431,-0.7574 0.64431,-2.4303 0,-1.5599 -0.64431,-2.3173 -0.6443,-0.7686 -1.59381,-0.7686 -1.00602,0 -1.66162,0.7799 -0.65561,0.7687 -0.65561,2.3512 z" />
    <path
       inkscape:connector-curvature="0"
       id="path3485"
       style="font-style:normal;font-variant:normal;font-weight:normal;font-stretch:normal;font-size:305.14248657px;line-height:126.99999809%;font-family:'Arial Black';-inkscape-font-specification:'Arial Black,';text-align:start;letter-spacing:0px;word-spacing:0px;writing-mode:lr-tb;text-anchor:start;fill:#006680;fill-opacity:1;stroke:none"
       d="m 401.36228,996.98908 4.28406,0 0,1.95552 q 0.96081,-1.19818 1.94422,-1.70684 0.98342,-0.51997 2.39637,-0.51997 1.91031,0 2.98415,1.14166 1.08514,1.13036 1.08514,3.50415 l 0,7.6299 -4.62317,0 0,-6.6013 q 0,-1.1304 -0.41823,-1.5938 -0.41824,-0.4748 -1.17558,-0.4748 -0.83647,0 -1.35643,0.633 -0.51997,0.633 -0.51997,2.2721 l 0,5.7648 -4.60056,0 0,-12.00442 z" />
    <path
       inkscape:connector-curvature="0"
       id="path3468"
       style="font-style:normal;font-variant:normal;font-weight:normal;font-stretch:normal;font-size:305.14248657px;line-height:126.99999809%;font-family:'Arial Black';-inkscape-font-specification:'Arial Black,';text-align:start;letter-spacing:0px;word-spacing:0px;writing-mode:lr-tb;text-anchor:start;fill:#000000;fill-opacity:1;stroke:none"
       d="m 416.9252,1013.5443 0,-16.57111 4.30667,0 0,1.77467 q 0.89299,-1.11906 1.63903,-1.51468 1.00602,-0.53127 2.22681,-0.53127 2.40767,0 3.71888,1.84249 1.32252,1.8425 1.32252,4.5553 0,2.9955 -1.43555,4.578 -1.43556,1.5712 -3.62846,1.5712 -1.06254,0 -1.94422,-0.3617 -0.87038,-0.3617 -1.5599,-1.0738 l 0,5.7309 -4.64578,0 z m 4.61187,-10.535 q 0,1.4243 0.59909,2.1138 0.59909,0.6895 1.51468,0.6895 0.80256,0 1.34513,-0.6556 0.54258,-0.6669 0.54258,-2.2494 0,-1.4582 -0.56518,-2.1364 -0.56519,-0.6895 -1.37904,-0.6895 -0.88169,0 -1.46947,0.6895 -0.58779,0.6895 -0.58779,2.2381 z" />
    <path
       inkscape:connector-curvature="0"
       id="path3470"
       style="font-style:normal;font-variant:normal;font-weight:normal;font-stretch:normal;font-size:305.14248657px;line-height:126.99999809%;font-family:'Arial Black';-inkscape-font-specification:'Arial Black,';text-align:start;letter-spacing:0px;word-spacing:0px;writing-mode:lr-tb;text-anchor:start;fill:#000000;fill-opacity:1;stroke:none"
       d="m 432.41113,996.97319 4.30668,0 0,1.96683 q 0.6217,-1.27731 1.2773,-1.75206 0.66692,-0.48605 1.63903,-0.48605 1.01733,0 2.22681,0.633 l -1.42426,3.27809 q -0.81385,-0.3392 -1.2886,-0.3392 -0.9043,0 -1.40166,0.7461 -0.71212,1.0512 -0.71212,3.9336 l 0,4.0241 -4.62318,0 0,-12.00441 z" />
    <path
       inkscape:connector-curvature="0"
       id="path3472"
       style="font-style:normal;font-variant:normal;font-weight:normal;font-stretch:normal;font-size:305.14248657px;line-height:126.99999809%;font-family:'Arial Black';-inkscape-font-specification:'Arial Black,';text-align:start;letter-spacing:0px;word-spacing:0px;writing-mode:lr-tb;text-anchor:start;fill:#000000;fill-opacity:1;stroke:none"
       d="m 442.42613,1003.0093 q 0,-2.7468 1.85379,-4.52142 1.85379,-1.78597 5.0075,-1.78597 3.60585,0 5.44833,2.09116 1.48077,1.68423 1.48077,4.14843 0,2.7694 -1.84248,4.544 -1.83118,1.7634 -5.07532,1.7634 -2.89372,0 -4.67969,-1.4695 -2.1929,-1.8198 -2.1929,-4.7701 z m 4.61187,-0.011 q 0,1.6051 0.6443,2.3738 0.65562,0.7686 1.63903,0.7686 0.99472,0 1.62772,-0.7573 0.6443,-0.7574 0.6443,-2.4303 0,-1.5599 -0.6443,-2.3172 -0.64431,-0.76868 -1.59381,-0.76868 -1.00602,0 -1.66163,0.77998 -0.65561,0.7686 -0.65561,2.3511 z" />
    <path
       inkscape:connector-curvature="0"
       id="path3474"
       style="font-style:normal;font-variant:normal;font-weight:normal;font-stretch:normal;font-size:305.14248657px;line-height:126.99999809%;font-family:'Arial Black';-inkscape-font-specification:'Arial Black,';text-align:start;letter-spacing:0px;word-spacing:0px;writing-mode:lr-tb;text-anchor:start;fill:#000000;fill-opacity:1;stroke:none"
       d="m 463.57517,996.97319 2.1929,0 0,3.36851 -2.1929,0 0,8.6359 -4.61187,0 0,-8.6359 -1.71815,0 0,-3.36851 1.71815,0 0,-0.54257 q 0,-0.73473 0.15826,-1.61641 0.15824,-0.88169 0.58778,-1.43556 0.44084,-0.56518 1.22079,-0.90429 0.79125,-0.35041 2.30594,-0.35041 1.20948,0 3.51541,0.28259 l -0.50866,2.78069 q -0.82516,-0.13565 -1.33382,-0.13565 -0.6217,0 -0.89299,0.21477 -0.27128,0.20347 -0.38432,0.65561 -0.0565,0.24868 -0.0565,1.05123 z" />
    <path
       inkscape:connector-curvature="0"
       id="path3476"
       style="font-style:normal;font-variant:normal;font-weight:normal;font-stretch:normal;font-size:305.14248657px;line-height:126.99999809%;font-family:'Arial Black';-inkscape-font-specification:'Arial Black,';text-align:start;letter-spacing:0px;word-spacing:0px;writing-mode:lr-tb;text-anchor:start;fill:#000000;fill-opacity:1;stroke:none"
       d="m 467.62186,992.40654 4.60056,0 0,3.1311 -4.60056,0 0,-3.1311 z m 0,4.56665 4.60056,0 0,12.00441 -4.60056,0 0,-12.00441 z" />
    <path
       inkscape:connector-curvature="0"
       id="path3478"
       style="font-style:normal;font-variant:normal;font-weight:normal;font-stretch:normal;font-size:305.14248657px;line-height:126.99999809%;font-family:'Arial Black';-inkscape-font-specification:'Arial Black,';text-align:start;letter-spacing:0px;word-spacing:0px;writing-mode:lr-tb;text-anchor:start;fill:#000000;fill-opacity:1;stroke:none"
       d="m 480.73405,992.40654 0,4.56665 2.532,0 0,3.35721 -2.532,0 0,4.2614 q 0,0.7687 0.14694,1.0173 0.22607,0.3844 0.79125,0.3844 0.50867,0 1.42426,-0.2939 l 0.33911,3.1763 q -1.70685,0.373 -3.18762,0.373 -1.71815,0 -2.53201,-0.4408 -0.81386,-0.4409 -1.20948,-1.3339 -0.38432,-0.9042 -0.38432,-2.9163 l 0,-4.2275 -1.69554,0 0,-3.35721 1.69554,0 0,-2.2042 4.61187,-2.36245 z" />
    <path
       inkscape:connector-curvature="0"
       id="path3488"
       style="font-style:normal;font-variant:normal;font-weight:normal;font-stretch:normal;font-size:100px;line-height:126.99999809%;font-family:'Arial Black';-inkscape-font-specification:'Arial Black,';text-align:start;letter-spacing:0px;word-spacing:0px;writing-mode:lr-tb;text-anchor:start;fill:#7c7c7a;fill-opacity:1;stroke:none"
       d="m 381.98775,1019.6606 -1.91145,0 -0.26301,0.8964 -1.71512,0 2.0411,-5.4306 1.82996,0 2.04111,5.4306 -1.75587,0 -0.26672,-0.8964 z m -0.35191,-1.1743 -0.60011,-1.9522 -0.5964,1.9522 1.19651,0 z" />
    <path
       inkscape:connector-curvature="0"
       id="path3490"
       style="font-style:normal;font-variant:normal;font-weight:normal;font-stretch:normal;font-size:100px;line-height:126.99999809%;font-family:'Arial Black';-inkscape-font-specification:'Arial Black,';text-align:start;letter-spacing:0px;word-spacing:0px;writing-mode:lr-tb;text-anchor:start;fill:#7c7c7a;fill-opacity:1;stroke:none"
       d="m 386.98495,1022.0536 0,-5.4306 1.41136,0 0,0.5816 q 0.29265,-0.3668 0.53713,-0.4964 0.32969,-0.1741 0.72977,-0.1741 0.78903,0 1.21873,0.6038 0.43341,0.6038 0.43341,1.4928 0,0.9817 -0.47045,1.5003 -0.47046,0.5149 -1.1891,0.5149 -0.34821,0 -0.63715,-0.1185 -0.28524,-0.1186 -0.51121,-0.3519 l 0,1.8781 -1.52249,0 z m 1.51138,-3.4525 q 0,0.4668 0.19633,0.6927 0.19633,0.226 0.49639,0.226 0.26301,0 0.44082,-0.2149 0.17781,-0.2185 0.17781,-0.7371 0,-0.4779 -0.18522,-0.7002 -0.18522,-0.2259 -0.45194,-0.2259 -0.28894,0 -0.48156,0.2259 -0.19263,0.226 -0.19263,0.7335 z" />
    <path
       inkscape:connector-curvature="0"
       id="path3492"
       style="font-style:normal;font-variant:normal;font-weight:normal;font-stretch:normal;font-size:100px;line-height:126.99999809%;font-family:'Arial Black';-inkscape-font-specification:'Arial Black,';text-align:start;letter-spacing:0px;word-spacing:0px;writing-mode:lr-tb;text-anchor:start;fill:#7c7c7a;fill-opacity:1;stroke:none"
       d="m 392.05993,1016.623 1.41137,0 0,0.6445 q 0.20374,-0.4186 0.41859,-0.5741 0.21856,-0.1593 0.53713,-0.1593 0.3334,0 0.72976,0.2074 l -0.46675,1.0743 q -0.26671,-0.1112 -0.42229,-0.1112 -0.29635,0 -0.45934,0.2445 -0.23338,0.3445 -0.23338,1.2892 l 0,1.3187 -1.51509,0 0,-3.934 z" />
    <path
       inkscape:connector-curvature="0"
       id="path3494"
       style="font-style:normal;font-variant:normal;font-weight:normal;font-stretch:normal;font-size:100px;line-height:126.99999809%;font-family:'Arial Black';-inkscape-font-specification:'Arial Black,';text-align:start;letter-spacing:0px;word-spacing:0px;writing-mode:lr-tb;text-anchor:start;fill:#7c7c7a;fill-opacity:1;stroke:none"
       d="m 395.342,1018.6011 q 0,-0.9002 0.60752,-1.4817 0.60752,-0.5853 1.64104,-0.5853 1.18169,0 1.7855,0.6853 0.48527,0.5519 0.48527,1.3595 0,0.9075 -0.60381,1.4891 -0.60011,0.5779 -1.66326,0.5779 -0.94832,0 -1.53361,-0.4816 -0.71865,-0.5964 -0.71865,-1.5632 z m 1.51139,-0 q 0,0.526 0.21115,0.7779 0.21485,0.2519 0.53713,0.2519 0.32598,0 0.53343,-0.2482 0.21115,-0.2482 0.21115,-0.7964 0,-0.5112 -0.21115,-0.7594 -0.21115,-0.2519 -0.52232,-0.2519 -0.32969,0 -0.54454,0.2556 -0.21485,0.2519 -0.21485,0.7705 z" />
    <path
       inkscape:connector-curvature="0"
       id="path3496"
       style="font-style:normal;font-variant:normal;font-weight:normal;font-stretch:normal;font-size:100px;line-height:126.99999809%;font-family:'Arial Black';-inkscape-font-specification:'Arial Black,';text-align:start;letter-spacing:0px;word-spacing:0px;writing-mode:lr-tb;text-anchor:start;fill:#7c7c7a;fill-opacity:1;stroke:none"
       d="m 400.65407,1015.1264 1.51138,0 0,1.0372 -1.51138,0 0,-1.0372 z m 0,1.4966 1.51138,0 0,3.8155 q 0,0.7297 -0.10743,1.0335 -0.10372,0.3038 -0.38895,0.4927 -0.28524,0.1889 -0.81497,0.1889 -0.43711,0 -1.08538,-0.1297 l 0.22597,-1.0965 q 0.18152,0.037 0.26672,0.037 0.19262,0 0.29264,-0.1334 0.10002,-0.1296 0.10002,-0.5223 l 0,-3.6858 z" />
    <path
       inkscape:connector-curvature="0"
       id="path3498"
       style="font-style:normal;font-variant:normal;font-weight:normal;font-stretch:normal;font-size:100px;line-height:126.99999809%;font-family:'Arial Black';-inkscape-font-specification:'Arial Black,';text-align:start;letter-spacing:0px;word-spacing:0px;writing-mode:lr-tb;text-anchor:start;fill:#7c7c7a;fill-opacity:1;stroke:none"
       d="m 407.49604,1018.9641 -3.02277,0 q 0.0408,0.3631 0.19634,0.5409 0.21855,0.2556 0.57047,0.2556 0.22226,0 0.4223,-0.1112 0.12224,-0.07 0.26301,-0.2482 l 1.48545,0.1371 q -0.3408,0.5927 -0.82237,0.852 -0.48157,0.2556 -1.38173,0.2556 -0.78162,0 -1.22985,-0.2185 -0.44823,-0.2223 -0.74458,-0.7002 -0.29265,-0.4815 -0.29265,-1.1298 0,-0.9224 0.589,-1.4929 0.5927,-0.5704 1.63363,-0.5704 0.84459,0 1.33357,0.2556 0.48898,0.2556 0.74458,0.7408 0.2556,0.4853 0.2556,1.2632 l 0,0.1704 z m -1.53361,-0.7223 q -0.0444,-0.4371 -0.23708,-0.6261 -0.18892,-0.1889 -0.50009,-0.1889 -0.35932,0 -0.57418,0.2853 -0.13706,0.1778 -0.1741,0.5297 l 1.48545,0 z" />
    <path
       inkscape:connector-curvature="0"
       id="path3500"
       style="font-style:normal;font-variant:normal;font-weight:normal;font-stretch:normal;font-size:100px;line-height:126.99999809%;font-family:'Arial Black';-inkscape-font-specification:'Arial Black,';text-align:start;letter-spacing:0px;word-spacing:0px;writing-mode:lr-tb;text-anchor:start;fill:#7c7c7a;fill-opacity:1;stroke:none"
       d="m 411.13002,1019.0197 1.4336,0.163 q -0.11854,0.4482 -0.38896,0.7779 -0.27042,0.326 -0.69272,0.5075 -0.41859,0.1815 -1.06686,0.1815 -0.62604,0 -1.04463,-0.1148 -0.41489,-0.1186 -0.71494,-0.3779 -0.30006,-0.263 -0.47046,-0.6149 -0.1704,-0.3519 -0.1704,-0.9335 0,-0.6075 0.20745,-1.0113 0.15187,-0.2963 0.41488,-0.5297 0.26301,-0.2371 0.54084,-0.3519 0.44082,-0.1815 1.12984,-0.1815 0.96313,0 1.46692,0.3445 0.5075,0.3445 0.71124,1.0076 l -1.41877,0.1889 q -0.0667,-0.2519 -0.24449,-0.3779 -0.1741,-0.1296 -0.47045,-0.1296 -0.37414,0 -0.60752,0.2704 -0.22967,0.2667 -0.22967,0.8113 0,0.4852 0.22967,0.7371 0.22967,0.2519 0.58529,0.2519 0.29635,0 0.49639,-0.1519 0.20374,-0.1518 0.30375,-0.4667 z" />
    <path
       inkscape:connector-curvature="0"
       id="path3502"
       style="font-style:normal;font-variant:normal;font-weight:normal;font-stretch:normal;font-size:100px;line-height:126.99999809%;font-family:'Arial Black';-inkscape-font-specification:'Arial Black,';text-align:start;letter-spacing:0px;word-spacing:0px;writing-mode:lr-tb;text-anchor:start;fill:#7c7c7a;fill-opacity:1;stroke:none"
       d="m 415.08259,1015.1264 0,1.4966 0.82978,0 0,1.1002 -0.82978,0 0,1.3965 q 0,0.2519 0.0482,0.3334 0.0741,0.126 0.25931,0.126 0.1667,0 0.46675,-0.096 l 0.11113,1.041 q -0.55936,0.1222 -1.04463,0.1222 -0.56307,0 -0.82978,-0.1445 -0.26671,-0.1444 -0.39637,-0.4371 -0.12595,-0.2963 -0.12595,-0.9557 l 0,-1.3854 -0.55565,0 0,-1.1002 0.55565,0 0,-0.7224 1.51139,-0.7742 z" />
    <path
       inkscape:connector-curvature="0"
       id="path3504"
       style="font-style:normal;font-variant:normal;font-weight:normal;font-stretch:normal;font-size:100px;line-height:126.99999809%;font-family:'Arial Black';-inkscape-font-specification:'Arial Black,';text-align:start;letter-spacing:0px;word-spacing:0px;writing-mode:lr-tb;text-anchor:start;fill:#7c7c7a;fill-opacity:1;stroke:none"
       d="m 418.97588,1018.6011 q 0,-0.9002 0.60752,-1.4817 0.60751,-0.5853 1.64103,-0.5853 1.18169,0 1.78551,0.6853 0.48527,0.5519 0.48527,1.3595 0,0.9075 -0.60381,1.4891 -0.60011,0.5779 -1.66326,0.5779 -0.94832,0 -1.53362,-0.4816 -0.71864,-0.5964 -0.71864,-1.5632 z m 1.51138,-0 q 0,0.526 0.21115,0.7779 0.21486,0.2519 0.53713,0.2519 0.32599,0 0.53344,-0.2482 0.21114,-0.2482 0.21114,-0.7964 0,-0.5112 -0.21114,-0.7594 -0.21115,-0.2519 -0.52232,-0.2519 -0.32969,0 -0.54454,0.2556 -0.21486,0.2519 -0.21486,0.7705 z" />
    <path
       inkscape:connector-curvature="0"
       id="path3506"
       style="font-style:normal;font-variant:normal;font-weight:normal;font-stretch:normal;font-size:100px;line-height:126.99999809%;font-family:'Arial Black';-inkscape-font-specification:'Arial Black,';text-align:start;letter-spacing:0px;word-spacing:0px;writing-mode:lr-tb;text-anchor:start;fill:#7c7c7a;fill-opacity:1;stroke:none"
       d="m 425.90675,1016.623 0.71865,0 0,1.1039 -0.71865,0 0,2.8301 -1.51138,0 0,-2.8301 -0.56307,0 0,-1.1039 0.56307,0 0,-0.1778 q 0,-0.2408 0.0519,-0.5298 0.0519,-0.2889 0.19263,-0.4704 0.14447,-0.1852 0.40007,-0.2964 0.25931,-0.1148 0.75569,-0.1148 0.39637,0 1.15206,0.093 l -0.1667,0.9113 q -0.27041,-0.044 -0.43711,-0.044 -0.20374,0 -0.29265,0.07 -0.0889,0.067 -0.12595,0.2149 -0.0185,0.082 -0.0185,0.3445 z" />
    <path
       inkscape:connector-curvature="0"
       id="path3510"
       style="font-style:normal;font-variant:normal;font-weight:normal;font-stretch:normal;font-size:100px;line-height:126.99999809%;font-family:'Arial Black';-inkscape-font-specification:'Arial Black,';text-align:start;letter-spacing:0px;word-spacing:0px;writing-mode:lr-tb;text-anchor:start;fill:#7c7c7a;fill-opacity:1;stroke:none"
       d="m 437.42734,1017.8973 -1.441,-0.1519 q 0.0815,-0.3778 0.23338,-0.5927 0.15558,-0.2186 0.44452,-0.3778 0.20744,-0.1149 0.57047,-0.1779 0.36304,-0.063 0.78533,-0.063 0.6779,0 1.08908,0.078 0.41119,0.074 0.68531,0.3148 0.19263,0.1667 0.30376,0.4742 0.11113,0.3037 0.11113,0.5816 l 0,1.7373 q 0,0.2779 0.0333,0.4371 0.037,0.1556 0.15558,0.4001 l -1.41506,0 q -0.0852,-0.1519 -0.11114,-0.2297 -0.0259,-0.082 -0.0519,-0.2519 -0.29634,0.2853 -0.58899,0.4075 -0.40007,0.163 -0.9298,0.163 -0.70382,0 -1.07056,-0.326 -0.36303,-0.326 -0.36303,-0.8038 0,-0.4482 0.26301,-0.7372 0.26301,-0.2889 0.97055,-0.4297 0.8483,-0.1704 1.10019,-0.2371 0.2519,-0.07 0.53343,-0.1815 0,-0.2778 -0.11483,-0.3889 -0.11484,-0.1112 -0.40378,-0.1112 -0.37044,0 -0.55566,0.1186 -0.14447,0.093 -0.23337,0.3482 z m 1.30764,0.7927 q -0.31117,0.1111 -0.64826,0.1963 -0.45934,0.1223 -0.58159,0.2408 -0.12594,0.1223 -0.12594,0.2779 0,0.1778 0.12224,0.2926 0.12595,0.1111 0.36673,0.1111 0.2519,0 0.46675,-0.1222 0.21856,-0.1223 0.30747,-0.2964 0.0926,-0.1778 0.0926,-0.4593 l 0,-0.2408 z" />
    <path
       inkscape:connector-curvature="0"
       id="path3512"
       style="font-style:normal;font-variant:normal;font-weight:normal;font-stretch:normal;font-size:100px;line-height:126.99999809%;font-family:'Arial Black';-inkscape-font-specification:'Arial Black,';text-align:start;letter-spacing:0px;word-spacing:0px;writing-mode:lr-tb;text-anchor:start;fill:#7c7c7a;fill-opacity:1;stroke:none"
       d="m 441.13541,1016.623 1.41137,0 0,0.6445 q 0.20374,-0.4186 0.41859,-0.5741 0.21856,-0.1593 0.53714,-0.1593 0.33339,0 0.72976,0.2074 l -0.46675,1.0743 q -0.26671,-0.1112 -0.4223,-0.1112 -0.29635,0 -0.45934,0.2445 -0.23338,0.3445 -0.23338,1.2892 l 0,1.3187 -1.51509,0 0,-3.934 z" />
    <path
       inkscape:connector-curvature="0"
       id="path3514"
       style="font-style:normal;font-variant:normal;font-weight:normal;font-stretch:normal;font-size:100px;line-height:126.99999809%;font-family:'Arial Black';-inkscape-font-specification:'Arial Black,';text-align:start;letter-spacing:0px;word-spacing:0px;writing-mode:lr-tb;text-anchor:start;fill:#7c7c7a;fill-opacity:1;stroke:none"
       d="m 444.14336,1016.623 1.78921,0 0.62604,1.0965 0.72606,-1.0965 1.66326,0 -1.34099,1.8744 1.43731,2.0596 -1.75958,0 -0.72606,-1.2669 -0.85571,1.2669 -1.63362,0 1.42988,-2.0596 -1.3558,-1.8744 z" />
    <path
       inkscape:connector-curvature="0"
       id="path3516"
       style="font-style:normal;font-variant:normal;font-weight:normal;font-stretch:normal;font-size:100px;line-height:126.99999809%;font-family:'Arial Black';-inkscape-font-specification:'Arial Black,';text-align:start;letter-spacing:0px;word-spacing:0px;writing-mode:lr-tb;text-anchor:start;fill:#7c7c7a;fill-opacity:1;stroke:none"
       d="m 450.92606,1017.8973 -1.441,-0.1519 q 0.0815,-0.3778 0.23338,-0.5927 0.15558,-0.2186 0.44453,-0.3778 0.20744,-0.1149 0.57047,-0.1779 0.36302,-0.063 0.78532,-0.063 0.6779,0 1.08909,0.078 0.41118,0.074 0.6853,0.3148 0.19263,0.1667 0.30376,0.4742 0.11114,0.3037 0.11114,0.5816 l 0,1.7373 q 0,0.2779 0.0333,0.4371 0.0371,0.1556 0.15559,0.4001 l -1.41507,0 q -0.0852,-0.1519 -0.11113,-0.2297 -0.0259,-0.082 -0.0519,-0.2519 -0.29634,0.2853 -0.58899,0.4075 -0.40007,0.163 -0.9298,0.163 -0.70383,0 -1.07056,-0.326 -0.36303,-0.326 -0.36303,-0.8038 0,-0.4482 0.26301,-0.7372 0.26301,-0.2889 0.97055,-0.4297 0.8483,-0.1704 1.10019,-0.2371 0.2519,-0.07 0.53344,-0.1815 0,-0.2778 -0.11484,-0.3889 -0.11484,-0.1112 -0.40378,-0.1112 -0.37044,0 -0.55565,0.1186 -0.14447,0.093 -0.23338,0.3482 z m 1.30765,0.7927 q -0.31117,0.1111 -0.64827,0.1963 -0.45934,0.1223 -0.58159,0.2408 -0.12594,0.1223 -0.12594,0.2779 0,0.1778 0.12224,0.2926 0.12595,0.1111 0.36673,0.1111 0.2519,0 0.46675,-0.1222 0.21856,-0.1223 0.30747,-0.2964 0.0926,-0.1778 0.0926,-0.4593 l 0,-0.2408 z" />
    <path
       inkscape:connector-curvature="0"
       id="path3518"
       style="font-style:normal;font-variant:normal;font-weight:normal;font-stretch:normal;font-size:100px;line-height:126.99999809%;font-family:'Arial Black';-inkscape-font-specification:'Arial Black,';text-align:start;letter-spacing:0px;word-spacing:0px;writing-mode:lr-tb;text-anchor:start;fill:#7c7c7a;fill-opacity:1;stroke:none"
       d="m 454.61932,1016.623 1.40395,0 0,0.6408 q 0.31487,-0.3926 0.63716,-0.5593 0.32227,-0.1704 0.78532,-0.1704 0.62604,0 0.97796,0.3741 0.35562,0.3704 0.35562,1.1484 l 0,2.5004 -1.51509,0 0,-2.1633 q 0,-0.3705 -0.13707,-0.5224 -0.13705,-0.1555 -0.38525,-0.1555 -0.27412,0 -0.44452,0.2074 -0.17041,0.2075 -0.17041,0.7446 l 0,1.8892 -1.50767,0 0,-3.934 z" />
    <path
       inkscape:connector-curvature="0"
       id="path3520"
       style="font-style:normal;font-variant:normal;font-weight:normal;font-stretch:normal;font-size:100px;line-height:126.99999809%;font-family:'Arial Black';-inkscape-font-specification:'Arial Black,';text-align:start;letter-spacing:0px;word-spacing:0px;writing-mode:lr-tb;text-anchor:start;fill:#7c7c7a;fill-opacity:1;stroke:none"
       d="m 464.05435,1018.9641 -3.02277,0 q 0.0408,0.3631 0.19634,0.5409 0.21855,0.2556 0.57047,0.2556 0.22226,0 0.42229,-0.1112 0.12225,-0.07 0.26301,-0.2482 l 1.48546,0.1371 q -0.3408,0.5927 -0.82238,0.852 -0.48156,0.2556 -1.38173,0.2556 -0.78162,0 -1.22984,-0.2185 -0.44823,-0.2223 -0.74459,-0.7002 -0.29264,-0.4815 -0.29264,-1.1298 0,-0.9224 0.589,-1.4929 0.5927,-0.5704 1.63362,-0.5704 0.8446,0 1.33358,0.2556 0.48897,0.2556 0.74458,0.7408 0.2556,0.4853 0.2556,1.2632 l 0,0.1704 z m -1.53361,-0.7223 q -0.0445,-0.4371 -0.23708,-0.6261 -0.18893,-0.1889 -0.50009,-0.1889 -0.35932,0 -0.57418,0.2853 -0.13706,0.1778 -0.1741,0.5297 l 1.48545,0 z" />
    <path
       inkscape:connector-curvature="0"
       id="path3522"
       style="font-style:normal;font-variant:normal;font-weight:normal;font-stretch:normal;font-size:100px;line-height:126.99999809%;font-family:'Arial Black';-inkscape-font-specification:'Arial Black,';text-align:start;letter-spacing:0px;word-spacing:0px;writing-mode:lr-tb;text-anchor:start;fill:#7c7c7a;fill-opacity:1;stroke:none"
       d="m 466.57331,1015.1264 0,1.4966 0.82978,0 0,1.1002 -0.82978,0 0,1.3965 q 0,0.2519 0.0482,0.3334 0.0741,0.126 0.25931,0.126 0.16669,0 0.46675,-0.096 l 0.11113,1.041 q -0.55936,0.1222 -1.04463,0.1222 -0.56306,0 -0.82978,-0.1445 -0.26671,-0.1444 -0.39637,-0.4371 -0.12594,-0.2963 -0.12594,-0.9557 l 0,-1.3854 -0.55566,0 0,-1.1002 0.55566,0 0,-0.7224 1.51137,-0.7742 z" />
    <path
       inkscape:connector-curvature="0"
       id="path3524"
       style="font-style:normal;font-variant:normal;font-weight:normal;font-stretch:normal;font-size:100px;line-height:126.99999809%;font-family:'Arial Black';-inkscape-font-specification:'Arial Black,';text-align:start;letter-spacing:0px;word-spacing:0px;writing-mode:lr-tb;text-anchor:start;fill:#7c7c7a;fill-opacity:1;stroke:none"
       d="m 468.12174,1019.0456 1.6114,0 0,1.5114 -1.6114,0 0,-1.5114 z" />
    <path
       inkscape:connector-curvature="0"
       id="path3526"
       style="font-style:normal;font-variant:normal;font-weight:normal;font-stretch:normal;font-size:100px;line-height:126.99999809%;font-family:'Arial Black';-inkscape-font-specification:'Arial Black,';text-align:start;letter-spacing:0px;word-spacing:0px;writing-mode:lr-tb;text-anchor:start;fill:#7c7c7a;fill-opacity:1;stroke:none"
       d="m 470.46661,1018.6011 q 0,-0.9002 0.60751,-1.4817 0.60752,-0.5853 1.64104,-0.5853 1.18169,0 1.78551,0.6853 0.48527,0.5519 0.48527,1.3595 0,0.9075 -0.60381,1.4891 -0.60011,0.5779 -1.66326,0.5779 -0.94832,0 -1.53361,-0.4816 -0.71865,-0.5964 -0.71865,-1.5632 z m 1.51138,-0 q 0,0.526 0.21115,0.7779 0.21485,0.2519 0.53714,0.2519 0.32598,0 0.53342,-0.2482 0.21115,-0.2482 0.21115,-0.7964 0,-0.5112 -0.21115,-0.7594 -0.21115,-0.2519 -0.52232,-0.2519 -0.32968,0 -0.54454,0.2556 -0.21485,0.2519 -0.21485,0.7705 z" />
    <path
       inkscape:connector-curvature="0"
       id="path3528"
       style="font-style:normal;font-variant:normal;font-weight:normal;font-stretch:normal;font-size:100px;line-height:126.99999809%;font-family:'Arial Black';-inkscape-font-specification:'Arial Black,';text-align:start;letter-spacing:0px;word-spacing:0px;writing-mode:lr-tb;text-anchor:start;fill:#7c7c7a;fill-opacity:1;stroke:none"
       d="m 475.73422,1016.623 1.41137,0 0,0.6445 q 0.20374,-0.4186 0.41859,-0.5741 0.21856,-0.1593 0.53714,-0.1593 0.33339,0 0.72975,0.2074 l -0.46674,1.0743 q -0.26672,-0.1112 -0.4223,-0.1112 -0.29635,0 -0.45934,0.2445 -0.23338,0.3445 -0.23338,1.2892 l 0,1.3187 -1.51509,0 0,-3.934 z" />
    <path
       inkscape:connector-curvature="0"
       id="path3530"
       style="font-style:normal;font-variant:normal;font-weight:normal;font-stretch:normal;font-size:100px;line-height:126.99999809%;font-family:'Arial Black';-inkscape-font-specification:'Arial Black,';text-align:start;letter-spacing:0px;word-spacing:0px;writing-mode:lr-tb;text-anchor:start;fill:#7c7c7a;fill-opacity:1;stroke:none"
       d="m 482.02054,1016.623 1.41136,0 0,3.7155 0.004,0.1741 q 0,0.3704 -0.15929,0.7038 -0.15559,0.3371 -0.4186,0.5445 -0.2593,0.2075 -0.66308,0.3001 -0.40007,0.093 -0.91868,0.093 -1.1854,0 -1.62993,-0.3556 -0.44081,-0.3556 -0.44081,-0.952 0,-0.074 0.007,-0.2001 l 1.46323,0.1667 q 0.0556,0.2038 0.1704,0.2815 0.1667,0.1149 0.41859,0.1149 0.32599,0 0.48528,-0.1741 0.16299,-0.1741 0.16299,-0.6075 l 0,-0.5964 q -0.22227,0.263 -0.44453,0.3815 -0.34821,0.1852 -0.75198,0.1852 -0.78904,0 -1.2743,-0.689 -0.34451,-0.489 -0.34451,-1.2928 0,-0.9187 0.44452,-1.4003 0.44453,-0.4815 1.16317,-0.4815 0.45934,0 0.7557,0.1556 0.30005,0.1555 0.55935,0.5149 l 0,-0.5816 z m -1.41877,1.9077 q 0,0.426 0.18151,0.6335 0.18151,0.2037 0.47786,0.2037 0.28153,0 0.47045,-0.2111 0.19263,-0.2149 0.19263,-0.6446 0,-0.4297 -0.20003,-0.6557 -0.20004,-0.2296 -0.48898,-0.2296 -0.28894,0 -0.46305,0.2111 -0.17039,0.2074 -0.17039,0.6927 z" />
    <path
       inkscape:connector-curvature="0"
       id="path3514-3"
       style="font-style:normal;font-variant:normal;font-weight:normal;font-stretch:normal;font-size:100px;line-height:126.99999809%;font-family:'Arial Black';-inkscape-font-specification:'Arial Black,';text-align:start;letter-spacing:0px;word-spacing:0px;writing-mode:lr-tb;text-anchor:start;fill:#7c7c7a;fill-opacity:1;stroke:none"
       d="m 430.72692,1016.6337 1.78921,0 0.62605,1.0965 0.72605,-1.0965 1.66326,0 -1.34098,1.8744 1.4373,2.0596 -1.75958,0 -0.72605,-1.2668 -0.85571,1.2668 -1.63363,0 1.42988,-2.0596 -1.3558,-1.8744 z" />
  </g>
</svg>
