<?xml version="1.0" encoding="UTF-8" standalone="no"?>
<!-- Created with Inkscape (http://www.inkscape.org/) -->

<svg
   xmlns:dc="http://purl.org/dc/elements/1.1/"
   xmlns:cc="http://creativecommons.org/ns#"
   xmlns:rdf="http://www.w3.org/1999/02/22-rdf-syntax-ns#"
   xmlns:svg="http://www.w3.org/2000/svg"
   xmlns="http://www.w3.org/2000/svg"
   xmlns:sodipodi="http://sodipodi.sourceforge.net/DTD/sodipodi-0.dtd"
   xmlns:inkscape="http://www.inkscape.org/namespaces/inkscape"
   width="113.00001"
   height="30.029644"
   id="svg19372"
   version="1.1"
   inkscape:version="0.91 r"
   sodipodi:docname="logo-nonprofit.svg">
  <defs
     id="defs19374" />
  <sodipodi:namedview
     id="base"
     pagecolor="#ffffff"
     bordercolor="#666666"
     borderopacity="1.0"
     inkscape:pageopacity="0.0"
     inkscape:pageshadow="2"
     inkscape:zoom="2.8"
     inkscape:cx="3.7477833"
     inkscape:cy="-51.628137"
     inkscape:document-units="px"
     inkscape:current-layer="capa1"
     showgrid="false"
     inkscape:window-width="1440"
     inkscape:window-height="845"
     inkscape:window-x="0"
     inkscape:window-y="27"
     inkscape:window-maximized="1"
     showguides="true"
     inkscape:guide-bbox="true"
     fit-margin-top="0"
     fit-margin-left="0"
     fit-margin-right="0"
     fit-margin-bottom="0">
    <sodipodi:guide
       orientation="0,1"
       position="330.61027,808.21803"
       id="guide3178" />
  </sodipodi:namedview>
  <metadata
     id="metadata19377">
    <rdf:RDF>
      <cc:Work
         rdf:about="">
        <dc:format>image/svg+xml</dc:format>
        <dc:type
           rdf:resource="http://purl.org/dc/dcmitype/StillImage" />
        <dc:title></dc:title>
      </cc:Work>
    </rdf:RDF>
  </metadata>
  <g
     inkscape:label="Capa 1"
     inkscape:groupmode="layer"
     id="capa1"
     transform="translate(-370.43561,-992.12395)">
    <rect
       style="opacity:1;fill:#ffffff;fill-opacity:1;stroke:none;stroke-width:0.80000001;stroke-linecap:round;stroke-linejoin:round;stroke-miterlimit:4;stroke-dasharray:none;stroke-dashoffset:0;stroke-opacity:1"
       id="rect3570"
       width="113"
       height="30"
       x="370.43561"
       y="992.13879" />
    <g
       id="g3572">
      <g
         transform="matrix(0.07586548,0,0,0.07586548,342.33234,944.60742)"
         id="text3153-2"
         style="font-style:normal;font-weight:normal;font-size:305.14248657px;line-height:126.99999809%;font-family:Sans;letter-spacing:0px;word-spacing:0px;fill:#006680;fill-opacity:1;stroke:none">
        <path
           inkscape:connector-curvature="0"
           id="path3481"
           style="font-style:normal;font-variant:normal;font-weight:normal;font-stretch:normal;font-size:305.14248657px;line-height:126.99999809%;font-family:'Arial Black';-inkscape-font-specification:'Arial Black,';text-align:start;writing-mode:lr-tb;text-anchor:start;fill:#006680"
           d="m 370.43562,690.45443 56.46924,0 0,25.7762 q 12.66461,-15.79351 25.6272,-22.4983 12.9626,-6.85379 31.58702,-6.85379 25.18021,0 39.33477,15.04854 14.30355,14.89953 14.30355,46.18856 l 0,100.57186 -60.9391,0 0,-87.01329 q 0,-14.89953 -5.51282,-21.00834 -5.51283,-6.25781 -15.49552,-6.25781 -11.02566,0 -17.87944,8.34374 -6.85379,8.34374 -6.85379,29.94807 l 0,75.98763 -60.64111,0 0,-158.23307 z" />
        <path
           inkscape:connector-curvature="0"
           id="path3483"
           style="font-style:normal;font-variant:normal;font-weight:normal;font-stretch:normal;font-size:305.14248657px;line-height:126.99999809%;font-family:'Arial Black';-inkscape-font-specification:'Arial Black,';text-align:start;writing-mode:lr-tb;text-anchor:start;fill:#006680"
           d="m 566.81149,770.01795 q 0,-36.20587 24.43524,-59.59814 24.43524,-23.54127 66.00494,-23.54127 47.52952,0 71.81576,27.56415 19.51839,22.2003 19.51839,54.68129 0,36.50386 -24.28624,59.89613 -24.13725,23.24328 -66.89891,23.24328 -38.14281,0 -61.68408,-19.3694 -28.9051,-23.98825 -28.9051,-62.87604 z m 60.79011,-0.14899 q 0,21.15734 8.49273,31.28902 8.64173,10.13169 21.60433,10.13169 13.11159,0 21.45533,-9.98269 8.49273,-9.98269 8.49273,-32.034 0,-20.56136 -8.49273,-30.54405 -8.49274,-10.13169 -21.00835,-10.13169 -13.26058,0 -21.90231,10.28068 -8.64173,10.13169 -8.64173,30.99104 z" />
        <path
           inkscape:connector-curvature="0"
           id="path3485"
           style="font-style:normal;font-variant:normal;font-weight:normal;font-stretch:normal;font-size:305.14248657px;line-height:126.99999809%;font-family:'Arial Black';-inkscape-font-specification:'Arial Black,';text-align:start;writing-mode:lr-tb;text-anchor:start;fill:#006680"
           d="m 778.0869,690.45443 56.46924,0 0,25.7762 q 12.6646,-15.79351 25.6272,-22.4983 12.96259,-6.85379 31.58701,-6.85379 25.18022,0 39.33478,15.04854 14.30355,14.89953 14.30355,46.18856 l 0,100.57186 -60.9391,0 0,-87.01329 q 0,-14.89953 -5.51283,-21.00834 -5.51283,-6.25781 -15.49552,-6.25781 -11.02565,0 -17.87944,8.34374 -6.85378,8.34374 -6.85378,29.94807 l 0,75.98763 -60.64111,0 0,-158.23307 z" />
      </g>
      <g
         transform="matrix(0.07586548,0,0,0.07586548,342.33234,944.60742)"
         id="text3153-8-2"
         style="font-style:normal;font-weight:normal;font-size:305.14248657px;line-height:126.99999809%;font-family:Sans;letter-spacing:0px;word-spacing:0px;fill:#000000;fill-opacity:1;stroke:none">
        <path
           inkscape:connector-curvature="0"
           id="path3468"
           style="font-style:normal;font-variant:normal;font-weight:normal;font-stretch:normal;font-size:305.14248657px;line-height:126.99999809%;font-family:'Arial Black';-inkscape-font-specification:'Arial Black,';text-align:start;writing-mode:lr-tb;text-anchor:start"
           d="m 983.22531,908.67227 0,-218.42719 56.76719,0 0,23.39227 q 11.7707,-14.75054 21.6044,-19.96537 13.2606,-7.00279 29.3521,-7.00279 31.736,0 49.0194,24.28625 17.4325,24.28624 17.4325,60.04512 0,39.48377 -18.9224,60.34312 -18.9224,20.71036 -47.8275,20.71036 -14.0056,0 -25.6272,-4.76785 -11.4727,-4.76785 -20.5614,-14.15456 l 0,75.54064 -61.23709,0 z M 1044.0154,769.8086 q 0,18.77342 7.8968,27.86213 7.8967,9.08872 19.9653,9.08872 10.5787,0 17.7305,-8.64173 7.1518,-8.79073 7.1518,-29.65008 0,-19.2204 -7.4498,-28.16012 -7.4498,-9.08871 -18.1774,-9.08871 -11.6217,0 -19.3694,9.08871 -7.7478,9.08872 -7.7478,29.50108 z" />
        <path
           inkscape:connector-curvature="0"
           id="path3470"
           style="font-style:normal;font-variant:normal;font-weight:normal;font-stretch:normal;font-size:305.14248657px;line-height:126.99999809%;font-family:'Arial Black';-inkscape-font-specification:'Arial Black,';text-align:start;writing-mode:lr-tb;text-anchor:start"
           d="m 1187.3489,690.24508 56.7673,0 0,25.92519 q 8.1947,-16.83647 16.8364,-23.09428 8.7908,-6.4068 21.6044,-6.4068 13.4096,0 29.3521,8.34374 l -18.7735,43.20866 q -10.7276,-4.46986 -16.9854,-4.46986 -11.9197,0 -18.4755,9.83369 -9.3867,13.85657 -9.3867,51.85038 l 0,53.04235 -60.9391,0 0,-158.23307 z" />
        <path
           inkscape:connector-curvature="0"
           id="path3472"
           style="font-style:normal;font-variant:normal;font-weight:normal;font-stretch:normal;font-size:305.14248657px;line-height:126.99999809%;font-family:'Arial Black';-inkscape-font-specification:'Arial Black,';text-align:start;writing-mode:lr-tb;text-anchor:start"
           d="m 1319.3588,769.8086 q 0,-36.20587 24.4352,-59.59814 24.4353,-23.54127 66.005,-23.54127 47.5295,0 71.8157,27.56414 19.5184,22.20031 19.5184,54.6813 0,36.50386 -24.2862,59.89613 -24.1372,23.24328 -66.8989,23.24328 -38.1428,0 -61.6841,-19.3694 -28.9051,-23.98825 -28.9051,-62.87604 z m 60.7901,-0.14899 q 0,21.15734 8.4927,31.28902 8.6418,10.13169 21.6044,10.13169 13.1116,0 21.4553,-9.98269 8.4927,-9.98269 8.4927,-32.034 0,-20.56136 -8.4927,-30.54405 -8.4927,-10.13169 -21.0083,-10.13169 -13.2606,0 -21.9024,10.28068 -8.6417,10.13169 -8.6417,30.99104 z" />
        <path
           inkscape:connector-curvature="0"
           id="path3474"
           style="font-style:normal;font-variant:normal;font-weight:normal;font-stretch:normal;font-size:305.14248657px;line-height:126.99999809%;font-family:'Arial Black';-inkscape-font-specification:'Arial Black,';text-align:start;writing-mode:lr-tb;text-anchor:start"
           d="m 1598.1291,690.24508 28.9051,0 0,44.40062 -28.9051,0 0,113.83245 -60.7901,0 0,-113.83245 -22.6473,0 0,-44.40062 22.6473,0 0,-7.15177 q 0,-9.6847 2.086,-21.30634 2.0859,-11.62164 7.7477,-18.92241 5.8108,-7.44977 16.0915,-11.91963 10.4297,-4.61885 30.3951,-4.61885 15.9425,0 46.3375,3.72488 l -6.7048,36.65286 q -10.8766,-1.78795 -17.5814,-1.78795 -8.1948,0 -11.7707,2.83091 -3.5758,2.68192 -5.0658,8.64173 -0.745,3.2779 -0.745,13.85657 z" />
        <path
           inkscape:connector-curvature="0"
           id="path3476"
           style="font-style:normal;font-variant:normal;font-weight:normal;font-stretch:normal;font-size:305.14248657px;line-height:126.99999809%;font-family:'Arial Black';-inkscape-font-specification:'Arial Black,';text-align:start;writing-mode:lr-tb;text-anchor:start"
           d="m 1651.4694,630.05096 60.6411,0 0,41.27171 -60.6411,0 0,-41.27171 z m 0,60.19412 60.6411,0 0,158.23307 -60.6411,0 0,-158.23307 z" />
        <path
           inkscape:connector-curvature="0"
           id="path3478"
           style="font-style:normal;font-variant:normal;font-weight:normal;font-stretch:normal;font-size:305.14248657px;line-height:126.99999809%;font-family:'Arial Black';-inkscape-font-specification:'Arial Black,';text-align:start;writing-mode:lr-tb;text-anchor:start"
           d="m 1824.3041,630.05096 0,60.19412 33.3749,0 0,44.25162 -33.3749,0 0,56.17125 q 0,10.13169 1.9369,13.40958 2.9799,5.06585 10.4297,5.06585 6.7048,0 18.7734,-3.87388 l 4.4699,41.86769 q -22.4983,4.91685 -42.0167,4.91685 -22.6473,0 -33.375,-5.81082 -10.7277,-5.81082 -15.9425,-17.58145 -5.0658,-11.91963 -5.0658,-38.4408 l 0,-55.72427 -22.3493,0 0,-44.25162 22.3493,0 0,-29.05409 60.7901,-31.14003 z" />
      </g>
      <g
         transform="matrix(0.07586548,0,0,0.07586548,342.33234,944.60742)"
         id="text3153-8-2-6"
         style="font-style:normal;font-weight:normal;font-size:111.3814621px;line-height:126.99999809%;font-family:Sans;letter-spacing:0px;word-spacing:0px;fill:#7c7c7a;fill-opacity:1;stroke:none">
        <path
           inkscape:connector-curvature="0"
           id="path3488"
           style="font-style:normal;font-variant:normal;font-weight:normal;font-stretch:normal;font-size:100px;line-height:126.99999809%;font-family:'Arial Black';-inkscape-font-specification:'Arial Black,';text-align:start;writing-mode:lr-tb;text-anchor:start;fill:#7c7c7a;fill-opacity:1"
           d="m 522.70694,989.2923 -25.19531,0 -3.4668,11.8164 -22.60742,0 26.9043,-71.58203 24.12109,0 26.9043,71.58203 -23.14454,0 -3.51562,-11.8164 z m -4.63867,-15.47852 -7.91016,-25.73242 -7.86133,25.73242 15.77149,0 z" />
        <path
           inkscape:connector-curvature="0"
           id="path3490"
           style="font-style:normal;font-variant:normal;font-weight:normal;font-stretch:normal;font-size:100px;line-height:126.99999809%;font-family:'Arial Black';-inkscape-font-specification:'Arial Black,';text-align:start;writing-mode:lr-tb;text-anchor:start;fill:#7c7c7a;fill-opacity:1"
           d="m 588.57608,1020.8353 0,-71.58207 18.60352,0 0,7.66602 q 3.85742,-4.83398 7.08007,-6.54297 4.34571,-2.29492 9.61914,-2.29492 10.4004,0 16.06446,7.95898 5.71289,7.95899 5.71289,19.67774 0,12.93945 -6.20117,19.77539 -6.20118,6.78713 -15.67383,6.78713 -4.58985,0 -8.39844,-1.5625 -3.75976,-1.56252 -6.73828,-4.63869 l 0,24.75589 -20.06836,0 z m 19.92188,-45.50785 q 0,6.15235 2.58789,9.13086 2.58789,2.97852 6.54296,2.97852 3.4668,0 5.81055,-2.83203 2.34375,-2.88086 2.34375,-9.7168 0,-6.29883 -2.4414,-9.22852 -2.44141,-2.97851 -5.95704,-2.97851 -3.80859,0 -6.34765,2.97851 -2.53906,2.97852 -2.53906,9.66797 z" />
        <path
           inkscape:connector-curvature="0"
           id="path3492"
           style="font-style:normal;font-variant:normal;font-weight:normal;font-stretch:normal;font-size:100px;line-height:126.99999809%;font-family:'Arial Black';-inkscape-font-specification:'Arial Black,';text-align:start;writing-mode:lr-tb;text-anchor:start;fill:#7c7c7a;fill-opacity:1"
           d="m 655.47061,949.25323 18.60352,0 0,8.4961 q 2.68554,-5.51758 5.51758,-7.56836 2.88085,-2.09961 7.08007,-2.09961 4.39453,0 9.61914,2.73437 l -6.15234,14.16016 q -3.51562,-1.46484 -5.56641,-1.46484 -3.90625,0 -6.05468,3.22265 -3.07618,4.54102 -3.07618,16.99219 l 0,17.38281 -19.9707,0 0,-51.85547 z" />
        <path
           inkscape:connector-curvature="0"
           id="path3494"
           style="font-style:normal;font-variant:normal;font-weight:normal;font-stretch:normal;font-size:100px;line-height:126.99999809%;font-family:'Arial Black';-inkscape-font-specification:'Arial Black,';text-align:start;writing-mode:lr-tb;text-anchor:start;fill:#7c7c7a;fill-opacity:1"
           d="m 698.73233,975.32745 q 0,-11.86523 8.00781,-19.53125 8.00782,-7.71484 21.63086,-7.71484 15.57617,0 23.53516,9.0332 6.39648,7.27539 6.39648,17.91992 0,11.9629 -7.95898,19.62891 -7.91016,7.61721 -21.92383,7.61721 -12.5,0 -20.21484,-6.34768 -9.47266,-7.86133 -9.47266,-20.60547 z m 19.92188,-0.0488 q 0,6.93359 2.7832,10.2539 2.83203,3.32031 7.08008,3.32031 4.29687,0 7.03125,-3.27148 2.7832,-3.27148 2.7832,-10.49805 0,-6.73828 -2.7832,-10.00976 -2.78321,-3.32032 -6.88477,-3.32032 -4.3457,0 -7.17773,3.36915 -2.83203,3.32031 -2.83203,10.15625 z" />
        <path
           inkscape:connector-curvature="0"
           id="path3496"
           style="font-style:normal;font-variant:normal;font-weight:normal;font-stretch:normal;font-size:100px;line-height:126.99999809%;font-family:'Arial Black';-inkscape-font-specification:'Arial Black,';text-align:start;writing-mode:lr-tb;text-anchor:start;fill:#7c7c7a;fill-opacity:1"
           d="m 768.75186,929.52667 19.92188,0 0,13.67188 -19.92188,0 0,-13.67188 z m 0,19.72656 19.92188,0 0,50.29297 q 0,9.6191 -1.41602,13.6231 -1.36719,4.0039 -5.12695,6.4941 -3.75977,2.4902 -10.74219,2.4902 -5.76172,0 -14.30664,-1.709 l 2.97852,-14.4531 q 2.39257,0.4883 3.51562,0.4883 2.53906,0 3.85742,-1.7578 1.31836,-1.709 1.31836,-6.88478 l 0,-48.58399 z" />
        <path
           inkscape:connector-curvature="0"
           id="path3498"
           style="font-style:normal;font-variant:normal;font-weight:normal;font-stretch:normal;font-size:100px;line-height:126.99999809%;font-family:'Arial Black';-inkscape-font-specification:'Arial Black,';text-align:start;writing-mode:lr-tb;text-anchor:start;fill:#7c7c7a;fill-opacity:1"
           d="m 858.93741,980.11261 -39.84375,0 q 0.53711,4.78516 2.58789,7.12891 2.88086,3.36914 7.51953,3.36914 2.92969,0 5.56641,-1.46485 1.61132,-0.92773 3.46679,-3.27148 l 19.58008,1.80664 q -4.49219,7.8125 -10.83984,11.23047 -6.34766,3.36916 -18.21289,3.36916 -10.30274,0 -16.21094,-2.88088 -5.9082,-2.92969 -9.81445,-9.22852 -3.85743,-6.34765 -3.85743,-14.89257 0,-12.15821 7.76368,-19.67774 7.8125,-7.51953 21.5332,-7.51953 11.13281,0 17.57812,3.36914 6.44532,3.36914 9.81446,9.76563 3.36914,6.39648 3.36914,16.65039 l 0,2.24609 z m -20.21485,-9.52148 q -0.58593,-5.76172 -3.125,-8.25196 -2.49023,-2.49023 -6.59179,-2.49023 -4.73633,0 -7.56836,3.75976 -1.80664,2.34375 -2.29492,6.98243 l 19.58007,0 z" />
        <path
           inkscape:connector-curvature="0"
           id="path3500"
           style="font-style:normal;font-variant:normal;font-weight:normal;font-stretch:normal;font-size:100px;line-height:126.99999809%;font-family:'Arial Black';-inkscape-font-specification:'Arial Black,';text-align:start;writing-mode:lr-tb;text-anchor:start;fill:#7c7c7a;fill-opacity:1"
           d="m 906.8378,980.84503 18.89648,2.14844 q -1.5625,5.9082 -5.12695,10.25391 -3.56445,4.29687 -9.13086,6.68945 -5.51758,2.39257 -14.0625,2.39257 -8.25195,0 -13.76953,-1.5137 -5.46875,-1.56247 -9.42383,-4.98043 -3.95508,-3.4668 -6.20117,-8.10547 -2.24609,-4.63867 -2.24609,-12.30469 0,-8.00781 2.73437,-13.33008 2.00195,-3.90625 5.46875,-6.98242 3.4668,-3.125 7.12891,-4.63867 5.81054,-2.39258 14.89258,-2.39258 12.69531,0 19.33593,4.54102 6.68946,4.54101 9.375,13.28125 l -18.70117,2.49023 q -0.87891,-3.32031 -3.22266,-4.98047 -2.29492,-1.70898 -6.20117,-1.70898 -4.93164,0 -8.00781,3.56445 -3.02734,3.51562 -3.02734,10.69336 0,6.39648 3.02734,9.7168 3.02734,3.32031 7.71484,3.32031 3.90625,0 6.54297,-2.00195 2.68555,-2.00196 4.00391,-6.15235 z" />
        <path
           inkscape:connector-curvature="0"
           id="path3502"
           style="font-style:normal;font-variant:normal;font-weight:normal;font-stretch:normal;font-size:100px;line-height:126.99999809%;font-family:'Arial Black';-inkscape-font-specification:'Arial Black,';text-align:start;writing-mode:lr-tb;text-anchor:start;fill:#7c7c7a;fill-opacity:1"
           d="m 958.93741,929.52667 0,19.72656 10.9375,0 0,14.50196 -10.9375,0 0,18.4082 q 0,3.32031 0.63476,4.39453 0.97657,1.66016 3.41797,1.66016 2.19727,0 6.15235,-1.26953 l 1.46484,13.72075 q -7.37305,1.6113 -13.76953,1.6113 -7.42188,0 -10.9375,-1.9043 -3.51563,-1.90432 -5.22461,-5.76174 -1.66016,-3.90625 -1.66016,-12.59765 l 0,-18.26172 -7.32422,0 0,-14.50196 7.32422,0 0,-9.52148 19.92188,-10.20508 z" />
        <path
           inkscape:connector-curvature="0"
           id="path3504"
           style="font-style:normal;font-variant:normal;font-weight:normal;font-stretch:normal;font-size:100px;line-height:126.99999809%;font-family:'Arial Black';-inkscape-font-specification:'Arial Black,';text-align:start;writing-mode:lr-tb;text-anchor:start;fill:#7c7c7a;fill-opacity:1"
           d="m 1010.2558,975.32745 q 0,-11.86523 8.0078,-19.53125 8.0078,-7.71484 21.6308,-7.71484 15.5762,0 23.5352,9.0332 6.3965,7.27539 6.3965,17.91992 0,11.9629 -7.959,19.62891 -7.9102,7.61721 -21.9238,7.61721 -12.5,0 -20.2149,-6.34768 -9.4726,-7.86133 -9.4726,-20.60547 z m 19.9218,-0.0488 q 0,6.93359 2.7832,10.2539 2.8321,3.32031 7.0801,3.32031 4.2969,0 7.0313,-3.27148 2.7832,-3.27148 2.7832,-10.49805 0,-6.73828 -2.7832,-10.00976 -2.7832,-3.32032 -6.8848,-3.32032 -4.3457,0 -7.1777,3.36915 -2.8321,3.32031 -2.8321,10.15625 z" />
        <path
           inkscape:connector-curvature="0"
           id="path3506"
           style="font-style:normal;font-variant:normal;font-weight:normal;font-stretch:normal;font-size:100px;line-height:126.99999809%;font-family:'Arial Black';-inkscape-font-specification:'Arial Black,';text-align:start;writing-mode:lr-tb;text-anchor:start;fill:#7c7c7a;fill-opacity:1"
           d="m 1101.6132,949.25323 9.4726,0 0,14.55079 -9.4726,0 0,37.30468 -19.9219,0 0,-37.30468 -7.4219,0 0,-14.55079 7.4219,0 0,-2.34375 q 0,-3.17382 0.6836,-6.98242 0.6836,-3.80859 2.5391,-6.20117 1.9043,-2.44141 5.2734,-3.90625 3.418,-1.51367 9.9609,-1.51367 5.2247,0 15.1856,1.2207 l -2.1973,12.01172 q -3.5644,-0.58594 -5.7617,-0.58594 -2.6855,0 -3.8574,0.92774 -1.1719,0.8789 -1.6602,2.83203 -0.2441,1.07422 -0.2441,4.54101 z" />
        <path
           inkscape:connector-curvature="0"
           id="path3508"
           style="font-style:normal;font-variant:normal;font-weight:normal;font-stretch:normal;font-size:100px;line-height:126.99999809%;font-family:'Arial Black';-inkscape-font-specification:'Arial Black,';text-align:start;writing-mode:lr-tb;text-anchor:start;fill:#7c7c7a;fill-opacity:1"
           d="m 1154.0058,929.52667 24.3652,0 12.6953,22.02149 12.3047,-22.02149 24.1211,0 -22.2656,34.66797 24.3652,36.91406 -24.8535,0 -14.1113,-22.99804 -14.1602,22.99804 -24.707,0 24.707,-37.30468 -22.4609,-34.27735 z" />
        <path
           inkscape:connector-curvature="0"
           id="path3510"
           style="font-style:normal;font-variant:normal;font-weight:normal;font-stretch:normal;font-size:100px;line-height:126.99999809%;font-family:'Arial Black';-inkscape-font-specification:'Arial Black,';text-align:start;writing-mode:lr-tb;text-anchor:start;fill:#7c7c7a;fill-opacity:1"
           d="m 1253.4687,966.05011 -18.9942,-2.00195 q 1.0742,-4.98047 3.0762,-7.8125 2.0508,-2.88086 5.8594,-4.98047 2.7343,-1.51367 7.5195,-2.34375 4.7852,-0.83008 10.3516,-0.83008 8.9355,0 14.3554,1.02539 5.4199,0.97656 9.0332,4.15039 2.5391,2.19727 4.0039,6.25 1.4649,4.00391 1.4649,7.66602 l 0,22.90039 q 0,3.66211 0.4394,5.76172 0.4883,2.05078 2.0508,5.27343 l -18.6523,0 q -1.1231,-2.00195 -1.4649,-3.02734 -0.3418,-1.07422 -0.6836,-3.32031 -3.9062,3.75976 -7.7636,5.37105 -5.2735,2.1485 -12.2559,2.1485 -9.2773,0 -14.1113,-4.2969 -4.7852,-4.29687 -4.7852,-10.5957 0,-5.9082 3.4668,-9.7168 3.4668,-3.80859 12.793,-5.66406 11.1816,-2.24609 14.5019,-3.125 3.3203,-0.92773 7.0313,-2.39258 0,-3.66211 -1.5137,-5.12695 -1.5137,-1.46484 -5.3223,-1.46484 -4.8828,0 -7.3242,1.5625 -1.9043,1.2207 -3.0761,4.58984 z m 17.2363,10.44922 q -4.1016,1.46484 -8.5449,2.58789 -6.0547,1.61133 -7.6661,3.17383 -1.6601,1.61133 -1.6601,3.66211 0,2.34375 1.6113,3.85742 1.6602,1.46484 4.834,1.46484 3.3203,0 6.1523,-1.61133 2.8809,-1.61132 4.0528,-3.90625 1.2207,-2.34375 1.2207,-6.05468 l 0,-3.17383 z" />
        <path
           inkscape:connector-curvature="0"
           id="path3512"
           style="font-style:normal;font-variant:normal;font-weight:normal;font-stretch:normal;font-size:100px;line-height:126.99999809%;font-family:'Arial Black';-inkscape-font-specification:'Arial Black,';text-align:start;writing-mode:lr-tb;text-anchor:start;fill:#7c7c7a;fill-opacity:1"
           d="m 1302.3456,949.25323 18.6035,0 0,8.4961 q 2.6856,-5.51758 5.5176,-7.56836 2.8809,-2.09961 7.0801,-2.09961 4.3945,0 9.6191,2.73437 l -6.1523,14.16016 q -3.5156,-1.46484 -5.5664,-1.46484 -3.9063,0 -6.0547,3.22265 -3.0762,4.54102 -3.0762,16.99219 l 0,17.38281 -19.9707,0 0,-51.85547 z" />
        <path
           inkscape:connector-curvature="0"
           id="path3514"
           style="font-style:normal;font-variant:normal;font-weight:normal;font-stretch:normal;font-size:100px;line-height:126.99999809%;font-family:'Arial Black';-inkscape-font-specification:'Arial Black,';text-align:start;writing-mode:lr-tb;text-anchor:start;fill:#7c7c7a;fill-opacity:1"
           d="m 1341.994,949.25323 23.584,0 8.252,14.45313 9.5703,-14.45313 21.9238,0 -17.6758,24.70704 18.9454,27.14843 -23.1934,0 -9.5703,-16.69922 -11.2793,16.69922 -21.5332,0 18.8476,-27.14843 -17.8711,-24.70704 z" />
        <path
           inkscape:connector-curvature="0"
           id="path3516"
           style="font-style:normal;font-variant:normal;font-weight:normal;font-stretch:normal;font-size:100px;line-height:126.99999809%;font-family:'Arial Black';-inkscape-font-specification:'Arial Black,';text-align:start;writing-mode:lr-tb;text-anchor:start;fill:#7c7c7a;fill-opacity:1"
           d="m 1431.3983,966.05011 -18.9941,-2.00195 q 1.0742,-4.98047 3.0762,-7.8125 2.0508,-2.88086 5.8594,-4.98047 2.7343,-1.51367 7.5195,-2.34375 4.7851,-0.83008 10.3515,-0.83008 8.9356,0 14.3555,1.02539 5.4199,0.97656 9.0332,4.15039 2.5391,2.19727 4.0039,6.25 1.4649,4.00391 1.4649,7.66602 l 0,22.90039 q 0,3.66211 0.4394,5.76172 0.4883,2.05078 2.0508,5.27343 l -18.6523,0 q -1.1231,-2.00195 -1.4649,-3.02734 -0.3418,-1.07422 -0.6836,-3.32031 -3.9062,3.75976 -7.7637,5.37105 -5.2734,2.1485 -12.2558,2.1485 -9.2774,0 -14.1113,-4.2969 -4.7852,-4.29687 -4.7852,-10.5957 0,-5.9082 3.4668,-9.7168 3.4668,-3.80859 12.793,-5.66406 11.1816,-2.24609 14.5019,-3.125 3.3203,-0.92773 7.0313,-2.39258 0,-3.66211 -1.5137,-5.12695 -1.5137,-1.46484 -5.3223,-1.46484 -4.8828,0 -7.3242,1.5625 -1.9043,1.2207 -3.0762,4.58984 z m 17.2364,10.44922 q -4.1016,1.46484 -8.5449,2.58789 -6.0547,1.61133 -7.6661,3.17383 -1.6601,1.61133 -1.6601,3.66211 0,2.34375 1.6113,3.85742 1.6602,1.46484 4.834,1.46484 3.3203,0 6.1523,-1.61133 2.8809,-1.61132 4.0528,-3.90625 1.2207,-2.34375 1.2207,-6.05468 l 0,-3.17383 z" />
        <path
           inkscape:connector-curvature="0"
           id="path3518"
           style="font-style:normal;font-variant:normal;font-weight:normal;font-stretch:normal;font-size:100px;line-height:126.99999809%;font-family:'Arial Black';-inkscape-font-specification:'Arial Black,';text-align:start;writing-mode:lr-tb;text-anchor:start;fill:#7c7c7a;fill-opacity:1"
           d="m 1480.08,949.25323 18.5058,0 0,8.44727 q 4.1504,-5.17578 8.3985,-7.37305 4.248,-2.24609 10.3515,-2.24609 8.252,0 12.8907,4.93164 4.6875,4.88281 4.6875,15.13672 l 0,32.95898 -19.9707,0 0,-28.51562 q 0,-4.88281 -1.8067,-6.88477 -1.8066,-2.05078 -5.0781,-2.05078 -3.6133,0 -5.8594,2.73438 -2.2461,2.73437 -2.2461,9.81445 l 0,24.90234 -19.873,0 0,-51.85547 z" />
        <path
           inkscape:connector-curvature="0"
           id="path3520"
           style="font-style:normal;font-variant:normal;font-weight:normal;font-stretch:normal;font-size:100px;line-height:126.99999809%;font-family:'Arial Black';-inkscape-font-specification:'Arial Black,';text-align:start;writing-mode:lr-tb;text-anchor:start;fill:#7c7c7a;fill-opacity:1"
           d="m 1604.4452,980.11261 -39.8437,0 q 0.5371,4.78516 2.5879,7.12891 2.8808,3.36914 7.5195,3.36914 2.9297,0 5.5664,-1.46485 1.6113,-0.92773 3.4668,-3.27148 l 19.5801,1.80664 q -4.4922,7.8125 -10.8399,11.23047 -6.3476,3.36916 -18.2129,3.36916 -10.3027,0 -16.2109,-2.88088 -5.9082,-2.92969 -9.8145,-9.22852 -3.8574,-6.34765 -3.8574,-14.89257 0,-12.15821 7.7637,-19.67774 7.8125,-7.51953 21.5332,-7.51953 11.1328,0 17.5781,3.36914 6.4453,3.36914 9.8145,9.76563 3.3691,6.39648 3.3691,16.65039 l 0,2.24609 z m -20.2148,-9.52148 q -0.586,-5.76172 -3.125,-8.25196 -2.4903,-2.49023 -6.5918,-2.49023 -4.7363,0 -7.5684,3.75976 -1.8066,2.34375 -2.2949,6.98243 l 19.5801,0 z" />
        <path
           inkscape:connector-curvature="0"
           id="path3522"
           style="font-style:normal;font-variant:normal;font-weight:normal;font-stretch:normal;font-size:100px;line-height:126.99999809%;font-family:'Arial Black';-inkscape-font-specification:'Arial Black,';text-align:start;writing-mode:lr-tb;text-anchor:start;fill:#7c7c7a;fill-opacity:1"
           d="m 1637.6483,929.52667 0,19.72656 10.9375,0 0,14.50196 -10.9375,0 0,18.4082 q 0,3.32031 0.6348,4.39453 0.9766,1.66016 3.418,1.66016 2.1972,0 6.1523,-1.26953 l 1.4649,13.72075 q -7.3731,1.6113 -13.7696,1.6113 -7.4218,0 -10.9375,-1.9043 -3.5156,-1.90432 -5.2246,-5.76174 -1.6601,-3.90625 -1.6601,-12.59765 l 0,-18.26172 -7.3242,0 0,-14.50196 7.3242,0 0,-9.52148 19.9218,-10.20508 z" />
        <path
           inkscape:connector-curvature="0"
           id="path3524"
           style="font-style:normal;font-variant:normal;font-weight:normal;font-stretch:normal;font-size:100px;line-height:126.99999809%;font-family:'Arial Black';-inkscape-font-specification:'Arial Black,';text-align:start;writing-mode:lr-tb;text-anchor:start;fill:#7c7c7a;fill-opacity:1"
           d="m 1658.0585,981.18683 21.2402,0 0,19.92187 -21.2402,0 0,-19.92187 z" />
        <path
           inkscape:connector-curvature="0"
           id="path3526"
           style="font-style:normal;font-variant:normal;font-weight:normal;font-stretch:normal;font-size:100px;line-height:126.99999809%;font-family:'Arial Black';-inkscape-font-specification:'Arial Black,';text-align:start;writing-mode:lr-tb;text-anchor:start;fill:#7c7c7a;fill-opacity:1"
           d="m 1688.9667,975.32745 q 0,-11.86523 8.0078,-19.53125 8.0078,-7.71484 21.6309,-7.71484 15.5761,0 23.5351,9.0332 6.3965,7.27539 6.3965,17.91992 0,11.9629 -7.959,19.62891 -7.9101,7.61721 -21.9238,7.61721 -12.5,0 -20.2148,-6.34768 -9.4727,-7.86133 -9.4727,-20.60547 z m 19.9219,-0.0488 q 0,6.93359 2.7832,10.2539 2.832,3.32031 7.0801,3.32031 4.2968,0 7.0312,-3.27148 2.7832,-3.27148 2.7832,-10.49805 0,-6.73828 -2.7832,-10.00976 -2.7832,-3.32032 -6.8848,-3.32032 -4.3457,0 -7.1777,3.36915 -2.832,3.32031 -2.832,10.15625 z" />
        <path
           inkscape:connector-curvature="0"
           id="path3528"
           style="font-style:normal;font-variant:normal;font-weight:normal;font-stretch:normal;font-size:100px;line-height:126.99999809%;font-family:'Arial Black';-inkscape-font-specification:'Arial Black,';text-align:start;writing-mode:lr-tb;text-anchor:start;fill:#7c7c7a;fill-opacity:1"
           d="m 1758.4003,949.25323 18.6035,0 0,8.4961 q 2.6856,-5.51758 5.5176,-7.56836 2.8809,-2.09961 7.0801,-2.09961 4.3945,0 9.6191,2.73437 l -6.1523,14.16016 q -3.5157,-1.46484 -5.5664,-1.46484 -3.9063,0 -6.0547,3.22265 -3.0762,4.54102 -3.0762,16.99219 l 0,17.38281 -19.9707,0 0,-51.85547 z" />
        <path
           inkscape:connector-curvature="0"
           id="path3530"
           style="font-style:normal;font-variant:normal;font-weight:normal;font-stretch:normal;font-size:100px;line-height:126.99999809%;font-family:'Arial Black';-inkscape-font-specification:'Arial Black,';text-align:start;writing-mode:lr-tb;text-anchor:start;fill:#7c7c7a;fill-opacity:1"
           d="m 1841.2616,949.25323 18.6035,0 0,48.97461 0.049,2.29496 q 0,4.8828 -2.0996,9.2773 -2.0508,4.4434 -5.5176,7.1777 -3.418,2.7344 -8.7403,3.9551 -5.2734,1.2207 -12.1093,1.2207 -15.625,0 -21.4844,-4.6875 -5.8105,-4.6875 -5.8105,-12.5488 0,-0.9766 0.098,-2.6367 l 19.2871,2.1972 q 0.7324,2.6856 2.2461,3.711 2.1973,1.5137 5.5176,1.5137 4.2969,0 6.3965,-2.295 2.1484,-2.2949 2.1484,-8.00778 l 0,-7.86133 q -2.9297,3.4668 -5.8594,5.0293 -4.5898,2.4414 -9.9121,2.4414 -10.4004,0 -16.7968,-9.08203 -4.5411,-6.44531 -4.5411,-17.04101 0,-12.10938 5.8594,-18.45703 5.8594,-6.34766 15.332,-6.34766 6.0547,0 9.961,2.05078 3.9551,2.05078 7.373,6.78711 l 0,-7.66602 z m -18.7011,25.14649 q 0,5.61523 2.3925,8.34961 2.3926,2.68555 6.2989,2.68555 3.7109,0 6.2011,-2.78321 2.5391,-2.83203 2.5391,-8.49609 0,-5.66406 -2.6367,-8.64258 -2.6367,-3.02734 -6.4453,-3.02734 -3.8086,0 -6.1036,2.7832 -2.246,2.73437 -2.246,9.13086 z" />
      </g>
    </g>
  </g>
</svg>
