<?xml version="1.0" encoding="UTF-8" standalone="no"?>
<!-- Created with Inkscape (http://www.inkscape.org/) -->

<svg
   xmlns:dc="http://purl.org/dc/elements/1.1/"
   xmlns:cc="http://creativecommons.org/ns#"
   xmlns:rdf="http://www.w3.org/1999/02/22-rdf-syntax-ns#"
   xmlns:svg="http://www.w3.org/2000/svg"
   xmlns="http://www.w3.org/2000/svg"
   xmlns:xlink="http://www.w3.org/1999/xlink"
   xmlns:sodipodi="http://sodipodi.sourceforge.net/DTD/sodipodi-0.dtd"
   xmlns:inkscape="http://www.inkscape.org/namespaces/inkscape"
   width="100"
   height="100"
   id="svg3008"
   version="1.1"
   inkscape:version="0.48.4 r9939"
   sodipodi:docname="icon-circle-facebook.svg">
  <defs
     id="defs3010">
    <defs
       id="defs4733">
      <rect
         id="SVGID_1_-92"
         x="0"
         y="0"
         width="99.941002"
         height="91.085999" />
    </defs>
    <clipPath
       id="SVGID_2_-4">
      <use
         height="1"
         width="1"
         y="0"
         x="0"
         style="overflow:visible"
         xlink:href="#SVGID_1_-92"
         overflow="visible"
         id="use4737" />
    </clipPath>
    <defs
       id="defs4710">
      <rect
         id="SVGID_1_-9"
         x="0"
         y="0.001"
         width="70.989998"
         height="70.988998" />
    </defs>
    <clipPath
       id="SVGID_2_-16">
      <use
         height="1"
         width="1"
         y="0"
         x="0"
         style="overflow:visible"
         xlink:href="#SVGID_1_-9"
         overflow="visible"
         id="use4714" />
    </clipPath>
    <clipPath
       id="SVGID_2_-5-8">
      <rect
         x="0"
         id="use4664-4"
         y="0"
         width="76"
         height="95.635002" />
    </clipPath>
    <clipPath
       id="clipPath4599">
      <rect
         x="0"
         id="use4601"
         y="0"
         width="76"
         height="95.635002" />
    </clipPath>
    <clipPath
       id="clipPath4603">
      <rect
         x="0"
         id="use4605"
         y="0"
         width="76"
         height="95.635002" />
    </clipPath>
    <clipPath
       id="clipPath4607">
      <rect
         x="0"
         id="use4609"
         y="0"
         width="76"
         height="95.635002" />
    </clipPath>
    <clipPath
       id="clipPath4611">
      <rect
         x="0"
         id="use4613"
         y="0"
         width="76"
         height="95.635002" />
    </clipPath>
    <clipPath
       id="clipPath4615">
      <rect
         x="0"
         id="use4617"
         y="0"
         width="76"
         height="95.635002" />
    </clipPath>
    <clipPath
       id="clipPath4619">
      <rect
         x="0"
         id="use4621"
         y="0"
         width="76"
         height="95.635002" />
    </clipPath>
    <clipPath
       id="clipPath4623">
      <rect
         x="0"
         id="use4625"
         y="0"
         width="76"
         height="95.635002" />
    </clipPath>
    <clipPath
       id="clipPath4627">
      <rect
         x="0"
         id="use4629"
         y="0"
         width="76"
         height="95.635002" />
    </clipPath>
    <clipPath
       id="SVGID_2_-4-1">
      <use
         height="1"
         width="1"
         y="0"
         x="0"
         style="overflow:visible"
         xlink:href="#SVGID_1_-92"
         overflow="visible"
         id="use4737-2" />
    </clipPath>
    <clipPath
       id="SVGID_2_-01">
      <rect
         y="0"
         x="0"
         id="use5945"
         width="99.083"
         height="100" />
    </clipPath>
    <clipPath
       id="clipPath5720">
      <rect
         y="0"
         x="0"
         id="use5722"
         width="99.083"
         height="100" />
    </clipPath>
    <clipPath
       id="clipPath5724">
      <rect
         y="0"
         x="0"
         id="use5726"
         width="99.083"
         height="100" />
    </clipPath>
    <clipPath
       id="SVGID_2_-3">
      <rect
         y="0"
         x="0"
         id="use5919"
         width="99.999001"
         height="100.001" />
    </clipPath>
    <clipPath
       id="clipPath5802">
      <rect
         y="0"
         x="0"
         id="use5804"
         width="99.999001"
         height="100.001" />
    </clipPath>
  </defs>
  <sodipodi:namedview
     id="base"
     pagecolor="#ffffff"
     bordercolor="#666666"
     borderopacity="1.0"
     inkscape:pageopacity="0.0"
     inkscape:pageshadow="2"
     inkscape:zoom="4"
     inkscape:cx="94.834645"
     inkscape:cy="35.621877"
     inkscape:document-units="px"
     inkscape:current-layer="capa1"
     showgrid="false"
     inkscape:window-width="1440"
     inkscape:window-height="845"
     inkscape:window-x="0"
     inkscape:window-y="27"
     inkscape:window-maximized="1"
     showguides="true"
     inkscape:guide-bbox="true">
    <sodipodi:guide
       orientation="1,0"
       position="517.1981,771.25147"
       id="guide4126" />
    <sodipodi:guide
       orientation="1,0"
       position="550.71429,709.28572"
       id="guide4366" />
    <sodipodi:guide
       orientation="1,0"
       position="529.26943,-512.29886"
       id="guide5163" />
    <sodipodi:guide
       orientation="0,1"
       position="248.90159,-436.28488"
       id="guide5378" />
    <sodipodi:guide
       orientation="1,0"
       position="613.06158,596.09101"
       id="guide4779" />
  </sodipodi:namedview>
  <metadata
     id="metadata3013">
    <rdf:RDF>
      <cc:Work
         rdf:about="">
        <dc:format>image/svg+xml</dc:format>
        <dc:type
           rdf:resource="http://purl.org/dc/dcmitype/StillImage" />
        <dc:title></dc:title>
      </cc:Work>
    </rdf:RDF>
  </metadata>
  <g
     inkscape:label="Capa 1"
     inkscape:groupmode="layer"
     id="capa1"
     style="display:inline"
     transform="translate(0,-952.36218)">
    <text
       xml:space="preserve"
       style="font-size:40px;font-style:normal;font-weight:normal;line-height:125%;letter-spacing:0px;word-spacing:0px;fill:#000000;fill-opacity:1;stroke:none;font-family:Sans"
       x="241.42645"
       y="248.28076"
       id="text4128"
       sodipodi:linespacing="125%"><tspan
         sodipodi:role="line"
         id="tspan4130"
         x="241.42645"
         y="248.28076" /></text>
    <flowRoot
       xml:space="preserve"
       id="flowRoot4132"
       style="font-size:40px;font-style:normal;font-weight:normal;line-height:125%;letter-spacing:0px;word-spacing:0px;fill:#000000;fill-opacity:1;stroke:none;font-family:Sans"><flowRegion
         id="flowRegion4134"><rect
           id="rect4136"
           width="319.20819"
           height="51.012703"
           x="228.79955"
           y="306.8696" /></flowRegion><flowPara
         id="flowPara4138" /></flowRoot>    <flowRoot
       xml:space="preserve"
       id="flowRoot4299"
       style="font-size:40px;font-style:normal;font-weight:normal;line-height:125%;letter-spacing:0px;word-spacing:0px;fill:#000000;fill-opacity:1;stroke:none;font-family:Sans"><flowRegion
         id="flowRegion4301"><rect
           id="rect4303"
           width="23.233509"
           height="49.497475"
           x="587.90875"
           y="181.61069" /></flowRegion><flowPara
         id="flowPara4305" /></flowRoot>    <path
       inkscape:connector-curvature="0"
       id="path3834-4-2"
       d="m 43.60865,1052.1245 c -8.01952,-1.1415 -14.82855,-3.7115 -21.39207,-8.075 -10.349027,-6.88 -17.8665505,-17.5616 -20.8180595,-29.5791 -1.09700397,-4.467 -1.39500497,-7.0265 -1.398504974276,-12.006 C -0.00498447,995.15026 1.1180195,989.51076 3.9050275,982.85876 7.8910405,973.34473 15.36956,964.76271 24.32459,959.42719 c 16.15305,-9.62503 36.18261,-9.43603 52.19065,0.495 4.46751,2.77051 10.07153,7.80653 12.97304,11.65754 5.91851,7.85553 9.27052,16.16253 10.34503,25.64053 0.33,2.92114 0.145,10.30064 -0.335,13.10514 -1.81651,10.6795 -6.57852,19.9575 -14.10705,27.4861 -7.42052,7.4205 -16.27755,12.0115 -27.04956,14.0215 -3.09501,0.5775 -11.55504,0.746 -14.73405,0.295 z m 4.47501,-30.4176 c 5.50752,-1.276 9.48253,-3.4455 13.27854,-7.248 3.15051,-3.1555 5.85552,-7.399 7.11603,-11.162 0.76348,-2.2785 1.58849,-6.22014 1.77349,-8.47214 0.085,-1.0205 0.255,-2.052 0.375,-2.292 0.125,-0.24 1.042,-1.2995 2.042,-2.354 1.76101,-1.8565 2.46201,-2.779 2.10701,-2.773 -0.095,0 -0.9365,0.245 -1.87151,0.5455 -2.704,0.864 -2.84,0.764 -1.391,-1.0195 0.995,-1.2245 1.93451,-2.6495 2.17251,-3.2945 0.135,-0.36 0.095,-0.36 -0.671,0 -0.44501,0.2 -1.80251,0.711 -3.01401,1.1355 l -2.202,0.7715 -1.727,-1.09 c -2.19551,-1.3865 -2.74301,-1.6195 -4.33351,-1.8465 -3.04551,-0.435 -6.30752,0.5765 -8.38503,2.6005 -2.20101,2.1435 -3.08751,4.313 -3.08751,7.5545 0,2.4305 0.285,2.276 -3.07351,1.67 -5.90552,-1.0655 -10.32653,-3.358 -15.10505,-7.832 -1.3245,-1.24 -2.4895,-2.173 -2.5895,-2.073 -0.33,0.33 -1.06051,3.5985 -1.05751,4.7295 0.004,1.3805 0.51301,3.5905 1.07351,4.665 0.235,0.445 0.872,1.3515 1.42,2.011 0.993,1.1955 1.2265,1.7475 0.7385,1.7475 -0.14,0 -0.925,-0.215 -1.741,-0.48 -0.8165,-0.265 -1.55601,-0.405 -1.64401,-0.32 -0.26,0.26 0.5785,3.19714 1.30051,4.56864 0.857,1.6285 2.91901,3.5475 4.85951,4.5225 l 1.52101,0.764 -1.91001,0.065 c -1.747,0.06 -1.91001,0.1 -1.91001,0.502 0,1.1065 1.85301,3.3725 3.75702,4.594 0.602,0.385 1.8545,1.0045 2.783,1.3735 0.92901,0.37 1.71451,0.764 1.74651,0.878 0.075,0.265 -2.36401,1.65 -4.20051,2.385 -2.03251,0.813 -3.90401,1.202 -6.50652,1.3515 -1.25001,0.07 -2.41251,0.175 -2.58351,0.23 -0.49,0.155 0.43,0.695 3.17851,1.861 4.49251,1.9035 7.09152,2.3865 12.19404,2.266 2.654,-0.065 4.23901,-0.21 5.56601,-0.5175 z"
       style="fill:#000000;fill-opacity:1" />
  </g>
  <g
     style="display:inline"
     id="g4076"
     inkscape:groupmode="layer"
     inkscape:label="copia Capa 1"
     transform="translate(0,-952.36218)">
    <text
       sodipodi:linespacing="125%"
       id="text4122"
       y="227.06755"
       x="-510.93515"
       style="font-size:40px;font-style:normal;font-weight:normal;line-height:125%;letter-spacing:0px;word-spacing:0px;fill:#000000;fill-opacity:1;stroke:none;font-family:Sans"
       xml:space="preserve"><tspan
         y="227.06755"
         x="-510.93515"
         id="tspan4124"
         sodipodi:role="line" /></text>
    <flowRoot
       style="font-size:40px;font-style:normal;font-weight:normal;line-height:125%;letter-spacing:0px;word-spacing:0px;fill:#000000;fill-opacity:1;stroke:none;font-family:Sans"
       id="flowRoot4126"
       xml:space="preserve"
       transform="translate(-752.3616,-21.213203)"><flowRegion
         id="flowRegion4128"><rect
           y="306.8696"
           x="228.79955"
           height="51.012703"
           width="319.20819"
           id="rect4130" /></flowRegion><flowPara
         id="flowPara4132" /></flowRoot>    <flowRoot
       style="font-size:40px;font-style:normal;font-weight:normal;line-height:125%;letter-spacing:0px;word-spacing:0px;fill:#000000;fill-opacity:1;stroke:none;font-family:Sans"
       id="flowRoot4202"
       xml:space="preserve"
       transform="translate(-752.3616,-21.213203)"><flowRegion
         id="flowRegion4204"><rect
           y="181.61069"
           x="587.90875"
           height="49.497475"
           width="23.233509"
           id="rect4206" /></flowRegion><flowPara
         id="flowPara4208" /></flowRoot>  </g>
  <g
     inkscape:groupmode="layer"
     id="layer1"
     inkscape:label="Mení"
     transform="translate(0,-952.36218)" />
</svg>
