<?xml version="1.0" encoding="UTF-8" standalone="no"?>
<!-- Created with Inkscape (http://www.inkscape.org/) -->

<svg
   xmlns:dc="http://purl.org/dc/elements/1.1/"
   xmlns:cc="http://creativecommons.org/ns#"
   xmlns:rdf="http://www.w3.org/1999/02/22-rdf-syntax-ns#"
   xmlns:svg="http://www.w3.org/2000/svg"
   xmlns="http://www.w3.org/2000/svg"
   xmlns:xlink="http://www.w3.org/1999/xlink"
   xmlns:sodipodi="http://sodipodi.sourceforge.net/DTD/sodipodi-0.dtd"
   xmlns:inkscape="http://www.inkscape.org/namespaces/inkscape"
   width="100"
   height="100"
   id="svg3008"
   version="1.1"
   inkscape:version="0.48.4 r9939"
   sodipodi:docname="icon-circle-nif.svg">
  <defs
     id="defs3010">
    <defs
       id="defs4733">
      <rect
         id="SVGID_1_-92"
         x="0"
         y="0"
         width="99.941002"
         height="91.085999" />
    </defs>
    <clipPath
       id="SVGID_2_-4">
      <use
         height="1"
         width="1"
         y="0"
         x="0"
         style="overflow:visible"
         xlink:href="#SVGID_1_-92"
         overflow="visible"
         id="use4737" />
    </clipPath>
    <defs
       id="defs4710">
      <rect
         id="SVGID_1_-9"
         x="0"
         y="0.001"
         width="70.989998"
         height="70.988998" />
    </defs>
    <clipPath
       id="SVGID_2_-16">
      <use
         height="1"
         width="1"
         y="0"
         x="0"
         style="overflow:visible"
         xlink:href="#SVGID_1_-9"
         overflow="visible"
         id="use4714" />
    </clipPath>
    <clipPath
       id="SVGID_2_-5-8">
      <rect
         x="0"
         id="use4664-4"
         y="0"
         width="76"
         height="95.635002" />
    </clipPath>
    <clipPath
       id="clipPath4599">
      <rect
         x="0"
         id="use4601"
         y="0"
         width="76"
         height="95.635002" />
    </clipPath>
    <clipPath
       id="clipPath4603">
      <rect
         x="0"
         id="use4605"
         y="0"
         width="76"
         height="95.635002" />
    </clipPath>
    <clipPath
       id="clipPath4607">
      <rect
         x="0"
         id="use4609"
         y="0"
         width="76"
         height="95.635002" />
    </clipPath>
    <clipPath
       id="clipPath4611">
      <rect
         x="0"
         id="use4613"
         y="0"
         width="76"
         height="95.635002" />
    </clipPath>
    <clipPath
       id="clipPath4615">
      <rect
         x="0"
         id="use4617"
         y="0"
         width="76"
         height="95.635002" />
    </clipPath>
    <clipPath
       id="clipPath4619">
      <rect
         x="0"
         id="use4621"
         y="0"
         width="76"
         height="95.635002" />
    </clipPath>
    <clipPath
       id="clipPath4623">
      <rect
         x="0"
         id="use4625"
         y="0"
         width="76"
         height="95.635002" />
    </clipPath>
    <clipPath
       id="clipPath4627">
      <rect
         x="0"
         id="use4629"
         y="0"
         width="76"
         height="95.635002" />
    </clipPath>
    <clipPath
       id="SVGID_2_-4-1">
      <use
         height="1"
         width="1"
         y="0"
         x="0"
         style="overflow:visible"
         xlink:href="#SVGID_1_-92"
         overflow="visible"
         id="use4737-2" />
    </clipPath>
    <clipPath
       id="SVGID_2_-01">
      <rect
         y="0"
         x="0"
         id="use5945"
         width="99.083"
         height="100" />
    </clipPath>
    <clipPath
       id="clipPath5720">
      <rect
         y="0"
         x="0"
         id="use5722"
         width="99.083"
         height="100" />
    </clipPath>
    <clipPath
       id="clipPath5724">
      <rect
         y="0"
         x="0"
         id="use5726"
         width="99.083"
         height="100" />
    </clipPath>
    <clipPath
       id="SVGID_2_-3">
      <rect
         y="0"
         x="0"
         id="use5919"
         width="99.999001"
         height="100.001" />
    </clipPath>
    <clipPath
       id="clipPath5802">
      <rect
         y="0"
         x="0"
         id="use5804"
         width="99.999001"
         height="100.001" />
    </clipPath>
  </defs>
  <sodipodi:namedview
     id="base"
     pagecolor="#ffffff"
     bordercolor="#666666"
     borderopacity="1.0"
     inkscape:pageopacity="0.0"
     inkscape:pageshadow="2"
     inkscape:zoom="2.8284271"
     inkscape:cx="118.93259"
     inkscape:cy="94.818203"
     inkscape:document-units="px"
     inkscape:current-layer="capa1"
     showgrid="false"
     inkscape:window-width="1440"
     inkscape:window-height="845"
     inkscape:window-x="0"
     inkscape:window-y="27"
     inkscape:window-maximized="1"
     showguides="true"
     inkscape:guide-bbox="true">
    <sodipodi:guide
       orientation="1,0"
       position="517.1981,771.25147"
       id="guide4126" />
    <sodipodi:guide
       orientation="1,0"
       position="550.71429,709.28572"
       id="guide4366" />
    <sodipodi:guide
       orientation="1,0"
       position="529.26943,-512.29886"
       id="guide5163" />
    <sodipodi:guide
       orientation="0,1"
       position="248.90159,-436.28488"
       id="guide5378" />
    <sodipodi:guide
       orientation="1,0"
       position="613.06158,596.09101"
       id="guide4779" />
  </sodipodi:namedview>
  <metadata
     id="metadata3013">
    <rdf:RDF>
      <cc:Work
         rdf:about="">
        <dc:format>image/svg+xml</dc:format>
        <dc:type
           rdf:resource="http://purl.org/dc/dcmitype/StillImage" />
        <dc:title></dc:title>
      </cc:Work>
    </rdf:RDF>
  </metadata>
  <g
     inkscape:label="Capa 1"
     inkscape:groupmode="layer"
     id="capa1"
     style="display:inline"
     transform="translate(0,-952.36218)">
    <text
       xml:space="preserve"
       style="font-size:40px;font-style:normal;font-weight:normal;line-height:125%;letter-spacing:0px;word-spacing:0px;fill:#000000;fill-opacity:1;stroke:none;font-family:Sans"
       x="241.42645"
       y="248.28076"
       id="text4128"
       sodipodi:linespacing="125%"><tspan
         sodipodi:role="line"
         id="tspan4130"
         x="241.42645"
         y="248.28076" /></text>
    <flowRoot
       xml:space="preserve"
       id="flowRoot4132"
       style="font-size:40px;font-style:normal;font-weight:normal;line-height:125%;letter-spacing:0px;word-spacing:0px;fill:#000000;fill-opacity:1;stroke:none;font-family:Sans"><flowRegion
         id="flowRegion4134"><rect
           id="rect4136"
           width="319.20819"
           height="51.012703"
           x="228.79955"
           y="306.8696" /></flowRegion><flowPara
         id="flowPara4138" /></flowRoot>    <flowRoot
       xml:space="preserve"
       id="flowRoot4299"
       style="font-size:40px;font-style:normal;font-weight:normal;line-height:125%;letter-spacing:0px;word-spacing:0px;fill:#000000;fill-opacity:1;stroke:none;font-family:Sans"><flowRegion
         id="flowRegion4301"><rect
           id="rect4303"
           width="23.233509"
           height="49.497475"
           x="587.90875"
           y="181.61069" /></flowRegion><flowPara
         id="flowPara4305" /></flowRoot>    <path
       inkscape:connector-curvature="0"
       id="path3830-0-0"
       d="m 43.814916,1052.2885 c -11.64058,-1.6996 -21.22169,-6.4429 -29.26894,-14.4902 -7.1260501,-7.126 -11.5166201,-15.1496 -13.7511501,-25.1298 -0.67504,-3.0149 -0.77705,-4.3702 -0.77705,-10.3242 0,-5.95407 0.10201,-7.30934 0.77705,-10.32426 2.23453,-9.98012 6.6251,-18.00374 13.7511501,-25.12979 7.12602,-7.12603 15.14966,-11.5166 25.12977,-13.75115 3.01493,-0.67504 4.3702,-0.77704 10.32426,-0.77704 5.95404,0 7.30932,0.102 10.32424,0.77704 9.98013,2.23455 18.00375,6.62512 25.12979,13.75115 7.12603,7.12605 11.51661,15.14967 13.751138,25.12979 0.67504,3.01492 0.77705,4.37019 0.77705,10.32426 0,5.954 -0.10201,7.3093 -0.77705,10.3242 -2.234528,9.9802 -6.625108,18.0038 -13.751138,25.1298 -6.99006,6.9901 -14.67804,11.2665 -24.42117,13.5844 -2.96329,0.7049 -4.50057,0.852 -9.86271,0.9437 -3.49375,0.06 -6.8036,0.043 -7.35524,-0.038 z m 20.14333,-16.1507 c 1.33314,-0.6205 2.42389,-1.2594 2.42389,-1.4196 0,-0.1603 -2.12809,-3.9777 -4.7291,-8.4831 -4.28826,-7.428 -4.7947,-8.1676 -5.43286,-7.9337 -1.49638,0.5483 -4.66602,0.2823 -6.31586,-0.5301 -5.99313,-2.951 -11.95585,-13.2458 -11.93283,-20.6024 0.008,-2.66258 0.82616,-4.92732 2.1825,-6.04375 l 0.83555,-0.68777 -4.71528,-8.17196 c -2.59341,-4.49457 -4.82126,-8.28231 -4.95078,-8.4172 -0.36221,-0.37719 -4.23229,2.29244 -5.54283,3.82352 -1.8382,2.14752 -2.31351,4.05346 -2.10142,8.42652 0.32468,6.69466 2.47775,13.71971 6.92085,22.58144 6.38528,12.7355 15.94962,23.9591 23.57904,27.6698 2.13609,1.0389 2.5591,1.1286 4.84777,1.0274 1.99645,-0.088 3.00146,-0.3407 4.93136,-1.2391 z m 8.70369,-3.4218 c 2.95697,-1.6323 3.75007,-2.3475 3.75007,-3.3815 0,-0.9087 -9.10271,-16.8657 -10.11598,-17.7331 -0.91537,-0.7837 -1.62312,-0.5919 -4.84724,1.3139 -2.85293,1.6864 -3.07798,1.9156 -3.08544,3.1433 -0.005,0.9006 9.03347,16.915 9.95031,17.629 0.87167,0.6789 1.68906,0.4963 4.34828,-0.9716 z m -26.03736,-43.62312 c 3.37855,-1.86228 4.37842,-2.70418 4.37842,-3.68677 0,-0.81148 -8.89751,-16.65192 -9.93743,-17.69184 -0.79079,-0.7908 -2.03056,-0.54286 -4.54757,0.90946 -3.19827,1.84541 -3.57287,2.20791 -3.54651,3.432 0.0306,1.42187 9.23554,17.25513 10.36569,17.82986 1.04693,0.53243 0.75608,0.60257 3.2874,-0.79271 z"
       style="fill:#000000;fill-opacity:1" />
  </g>
  <g
     style="display:inline"
     id="g4076"
     inkscape:groupmode="layer"
     inkscape:label="copia Capa 1"
     transform="translate(0,-952.36218)">
    <text
       sodipodi:linespacing="125%"
       id="text4122"
       y="227.06755"
       x="-510.93515"
       style="font-size:40px;font-style:normal;font-weight:normal;line-height:125%;letter-spacing:0px;word-spacing:0px;fill:#000000;fill-opacity:1;stroke:none;font-family:Sans"
       xml:space="preserve"><tspan
         y="227.06755"
         x="-510.93515"
         id="tspan4124"
         sodipodi:role="line" /></text>
    <flowRoot
       style="font-size:40px;font-style:normal;font-weight:normal;line-height:125%;letter-spacing:0px;word-spacing:0px;fill:#000000;fill-opacity:1;stroke:none;font-family:Sans"
       id="flowRoot4126"
       xml:space="preserve"
       transform="translate(-752.3616,-21.213203)"><flowRegion
         id="flowRegion4128"><rect
           y="306.8696"
           x="228.79955"
           height="51.012703"
           width="319.20819"
           id="rect4130" /></flowRegion><flowPara
         id="flowPara4132" /></flowRoot>    <flowRoot
       style="font-size:40px;font-style:normal;font-weight:normal;line-height:125%;letter-spacing:0px;word-spacing:0px;fill:#000000;fill-opacity:1;stroke:none;font-family:Sans"
       id="flowRoot4202"
       xml:space="preserve"
       transform="translate(-752.3616,-21.213203)"><flowRegion
         id="flowRegion4204"><rect
           y="181.61069"
           x="587.90875"
           height="49.497475"
           width="23.233509"
           id="rect4206" /></flowRegion><flowPara
         id="flowPara4208" /></flowRoot>  </g>
  <g
     inkscape:groupmode="layer"
     id="layer1"
     inkscape:label="Mení"
     transform="translate(0,-952.36218)" />
</svg>
