<?xml version="1.0" encoding="UTF-8" standalone="no"?>
<!-- Created with Inkscape (http://www.inkscape.org/) -->

<svg
   xmlns:dc="http://purl.org/dc/elements/1.1/"
   xmlns:cc="http://creativecommons.org/ns#"
   xmlns:rdf="http://www.w3.org/1999/02/22-rdf-syntax-ns#"
   xmlns:svg="http://www.w3.org/2000/svg"
   xmlns="http://www.w3.org/2000/svg"
   xmlns:xlink="http://www.w3.org/1999/xlink"
   xmlns:sodipodi="http://sodipodi.sourceforge.net/DTD/sodipodi-0.dtd"
   xmlns:inkscape="http://www.inkscape.org/namespaces/inkscape"
   width="100"
   height="100"
   id="svg3008"
   version="1.1"
   inkscape:version="0.48.4 r9939"
   sodipodi:docname="icon-circle-googleplus.svg">
  <defs
     id="defs3010">
    <defs
       id="defs4733">
      <rect
         id="SVGID_1_-92"
         x="0"
         y="0"
         width="99.941002"
         height="91.085999" />
    </defs>
    <clipPath
       id="SVGID_2_-4">
      <use
         height="1"
         width="1"
         y="0"
         x="0"
         style="overflow:visible"
         xlink:href="#SVGID_1_-92"
         overflow="visible"
         id="use4737" />
    </clipPath>
    <defs
       id="defs4710">
      <rect
         id="SVGID_1_-9"
         x="0"
         y="0.001"
         width="70.989998"
         height="70.988998" />
    </defs>
    <clipPath
       id="SVGID_2_-16">
      <use
         height="1"
         width="1"
         y="0"
         x="0"
         style="overflow:visible"
         xlink:href="#SVGID_1_-9"
         overflow="visible"
         id="use4714" />
    </clipPath>
    <clipPath
       id="SVGID_2_-5-8">
      <rect
         x="0"
         id="use4664-4"
         y="0"
         width="76"
         height="95.635002" />
    </clipPath>
    <clipPath
       id="clipPath4599">
      <rect
         x="0"
         id="use4601"
         y="0"
         width="76"
         height="95.635002" />
    </clipPath>
    <clipPath
       id="clipPath4603">
      <rect
         x="0"
         id="use4605"
         y="0"
         width="76"
         height="95.635002" />
    </clipPath>
    <clipPath
       id="clipPath4607">
      <rect
         x="0"
         id="use4609"
         y="0"
         width="76"
         height="95.635002" />
    </clipPath>
    <clipPath
       id="clipPath4611">
      <rect
         x="0"
         id="use4613"
         y="0"
         width="76"
         height="95.635002" />
    </clipPath>
    <clipPath
       id="clipPath4615">
      <rect
         x="0"
         id="use4617"
         y="0"
         width="76"
         height="95.635002" />
    </clipPath>
    <clipPath
       id="clipPath4619">
      <rect
         x="0"
         id="use4621"
         y="0"
         width="76"
         height="95.635002" />
    </clipPath>
    <clipPath
       id="clipPath4623">
      <rect
         x="0"
         id="use4625"
         y="0"
         width="76"
         height="95.635002" />
    </clipPath>
    <clipPath
       id="clipPath4627">
      <rect
         x="0"
         id="use4629"
         y="0"
         width="76"
         height="95.635002" />
    </clipPath>
    <clipPath
       id="SVGID_2_-4-1">
      <use
         height="1"
         width="1"
         y="0"
         x="0"
         style="overflow:visible"
         xlink:href="#SVGID_1_-92"
         overflow="visible"
         id="use4737-2" />
    </clipPath>
    <clipPath
       id="SVGID_2_-01">
      <rect
         y="0"
         x="0"
         id="use5945"
         width="99.083"
         height="100" />
    </clipPath>
    <clipPath
       id="clipPath5720">
      <rect
         y="0"
         x="0"
         id="use5722"
         width="99.083"
         height="100" />
    </clipPath>
    <clipPath
       id="clipPath5724">
      <rect
         y="0"
         x="0"
         id="use5726"
         width="99.083"
         height="100" />
    </clipPath>
    <clipPath
       id="SVGID_2_-3">
      <rect
         y="0"
         x="0"
         id="use5919"
         width="99.999001"
         height="100.001" />
    </clipPath>
    <clipPath
       id="clipPath5802">
      <rect
         y="0"
         x="0"
         id="use5804"
         width="99.999001"
         height="100.001" />
    </clipPath>
  </defs>
  <sodipodi:namedview
     id="base"
     pagecolor="#ffffff"
     bordercolor="#666666"
     borderopacity="1.0"
     inkscape:pageopacity="0.0"
     inkscape:pageshadow="2"
     inkscape:zoom="2.8284271"
     inkscape:cx="135.27567"
     inkscape:cy="48.205145"
     inkscape:document-units="px"
     inkscape:current-layer="capa1"
     showgrid="false"
     inkscape:window-width="1440"
     inkscape:window-height="845"
     inkscape:window-x="0"
     inkscape:window-y="27"
     inkscape:window-maximized="1"
     showguides="true"
     inkscape:guide-bbox="true">
    <sodipodi:guide
       orientation="1,0"
       position="517.1981,771.25147"
       id="guide4126" />
    <sodipodi:guide
       orientation="1,0"
       position="550.71429,709.28572"
       id="guide4366" />
    <sodipodi:guide
       orientation="1,0"
       position="529.26943,-512.29886"
       id="guide5163" />
    <sodipodi:guide
       orientation="0,1"
       position="248.90159,-436.28488"
       id="guide5378" />
    <sodipodi:guide
       orientation="1,0"
       position="613.06158,596.09101"
       id="guide4779" />
  </sodipodi:namedview>
  <metadata
     id="metadata3013">
    <rdf:RDF>
      <cc:Work
         rdf:about="">
        <dc:format>image/svg+xml</dc:format>
        <dc:type
           rdf:resource="http://purl.org/dc/dcmitype/StillImage" />
        <dc:title></dc:title>
      </cc:Work>
    </rdf:RDF>
  </metadata>
  <g
     inkscape:label="Capa 1"
     inkscape:groupmode="layer"
     id="capa1"
     style="display:inline"
     transform="translate(0,-952.36218)">
    <text
       xml:space="preserve"
       style="font-size:40px;font-style:normal;font-weight:normal;line-height:125%;letter-spacing:0px;word-spacing:0px;fill:#000000;fill-opacity:1;stroke:none;font-family:Sans"
       x="241.42645"
       y="248.28076"
       id="text4128"
       sodipodi:linespacing="125%"><tspan
         sodipodi:role="line"
         id="tspan4130"
         x="241.42645"
         y="248.28076" /></text>
    <flowRoot
       xml:space="preserve"
       id="flowRoot4132"
       style="font-size:40px;font-style:normal;font-weight:normal;line-height:125%;letter-spacing:0px;word-spacing:0px;fill:#000000;fill-opacity:1;stroke:none;font-family:Sans"><flowRegion
         id="flowRegion4134"><rect
           id="rect4136"
           width="319.20819"
           height="51.012703"
           x="228.79955"
           y="306.8696" /></flowRegion><flowPara
         id="flowPara4138" /></flowRoot>    <flowRoot
       xml:space="preserve"
       id="flowRoot4299"
       style="font-size:40px;font-style:normal;font-weight:normal;line-height:125%;letter-spacing:0px;word-spacing:0px;fill:#000000;fill-opacity:1;stroke:none;font-family:Sans"><flowRegion
         id="flowRegion4301"><rect
           id="rect4303"
           width="23.233509"
           height="49.497475"
           x="587.90875"
           y="181.61069" /></flowRegion><flowPara
         id="flowPara4305" /></flowRoot>    <path
       style="fill:#000000;fill-opacity:1"
       d="m 43.94787,1052.0668 c -0.48497,-0.087 -1.35293,-0.2083 -1.9324,-0.2667 -0.57946,-0.058 -1.41442,-0.2083 -1.8559,-0.3333 -0.43997,-0.1208 -1.02144,-0.2417 -1.29043,-0.2708 -0.91845,-0.087 -4.14128,-1.0463 -7.22712,-2.1513 -1.77291,-0.635 -8.13757,-3.8837 -8.59454,-4.387 -0.055,-0.058 -0.93245,-0.6717 -1.9529,-1.3609 -1.02095,-0.6891 -1.8999,-1.3112 -1.9534,-1.3829 -0.055,-0.071 -0.62497,-0.555 -1.26993,-1.075 -1.45343,-1.1721 -5.00024,-4.7042 -6.17018,-6.1442 -1.42292,-1.7504 -1.62691,-1.995 -1.9683904,-2.357 -0.18,-0.1917 -0.275,-0.3959 -0.215,-0.4542 0.06,-0.058 -0.05,-0.1625 -0.21,-0.2333 -0.175,-0.067 -0.32,-0.2042 -0.32,-0.3042 0,-0.1625 -0.71546,-1.2804 -0.98145,-1.5338 -0.055,-0.054 -0.32,-0.5149 -0.58547,-1.0254 -0.265,-0.5104 -0.54947,-0.9279 -0.63046,-0.9279 -0.08,0 -0.145,-0.1208 -0.145,-0.2666 0,-0.15 -0.135,-0.3792 -0.3,-0.5163 -0.165,-0.1375 -0.255,-0.2917 -0.2,-0.3417 0.055,-0.054 -0.085,-0.35 -0.3,-0.6558 -0.22,-0.3083 -0.345,-0.5596 -0.275,-0.5596 0.07,0 -0.08,-0.2833 -0.33,-0.6346 -0.25,-0.35 -0.42498,-0.635 -0.395,-0.635 0.05,0 -0.25,-0.662 -0.62197,-1.4716 -0.72346,-1.5663 -1.22093,-2.8475 -1.47642,-3.8021 -0.085,-0.3208 -0.245,-0.8058 -0.35496,-1.0742 -0.33999,-0.8479 -0.69696,-2.035 -0.74696,-2.4812 -0.05,-0.2375 -0.145,-0.7283 -0.265,-1.0925 -0.12,-0.3667 -0.265,-1.0038 -0.315,-1.4213 -0.055,-0.4175 -0.18499998,-1.0879 -0.29498998,-1.4895 -0.11,-0.4 -0.235,-1.2388 -0.28,-1.86 -0.05,-0.6209 -0.175,-1.8763 -0.285,-2.7896 -0.11,-0.9129 -0.205000000782,-2.8908 -0.205000000782,-4.3946 0,-1.5041 0.090000000782,-3.48189 0.205000000782,-4.39509 0.11,-0.91313 0.24,-2.16846 0.285,-2.78954 0.05,-0.62112 0.17,-1.46016 0.28,-1.86454 0.10999,-0.40458 0.24498998,-1.0922 0.29498998,-1.52849 0.055,-0.43646 0.225,-1.14946 0.37996,-1.58492 0.155,-0.43546 0.24,-0.83216 0.19,-0.88158 -0.05,-0.05 0.09,-0.54087 0.305,-1.092 0.215,-0.55112 0.35,-1.00204 0.295,-1.00204 -0.055,0 0.004,-0.19541 0.13,-0.435 0.13,-0.23875 0.3,-0.70066 0.38496,-1.02549 0.2,-0.77467 0.62796,-1.92104 1.17194,-3.12987 0.24,-0.53713 0.45497,-1.02059 0.46997,-1.07429 0.11,-0.36417 0.63297,-1.36392 0.96845,-1.85567 0.22,-0.3225 0.38,-0.60637 0.36,-0.63125 -0.105,-0.11833 0.60646,-1.45412 1.55892,-2.92961 0.295,-0.45446 0.53297,-0.87571 0.53297,-0.93604 0,-0.0604 0.09,-0.21584 0.2,-0.34542 0.56847,-0.67646 1.56341,-2.09154 1.47092,-2.09154 -0.06,0 0.05,-0.1625 0.235,-0.36166 0.3599604,-0.38292 0.5949704,-0.66142 1.9818904,-2.37333 1.33793,-1.65117 4.04979,-4.38166 5.7827,-5.8227 0.85945,-0.71471 1.60641,-1.35087 1.65991,-1.41371 0.055,-0.0629 0.53748,-0.41208 1.07444,-0.77566 0.53748,-0.36417 1.07095,-0.75358 1.18644,-0.86612 0.115,-0.1125 0.53297,-0.37834 0.92795,-0.59088 0.395,-0.2125 0.71797,-0.45396 0.71797,-0.53716 0,-0.0829 0.085,-0.15084 0.19,-0.15084 0.105,0 0.67446,-0.30916 1.26443,-0.68625 1.20894,-0.77345 5.7997,-3.02882 7.13862,-3.50711 2.98685,-1.06704 6.35417,-2.07925 7.12963,-2.14304 0.215,-0.0208 0.87395,-0.13458 1.46492,-0.25917 3.10433,-0.65558 5.12973,-0.82712 9.76648,-0.82712 4.63626,0 6.66165,0.17167 9.76649,0.82712 0.59097,0.12459 1.24993,0.24167 1.46492,0.25917 1.9389,0.15958 7.93308,2.33249 11.51239,4.17337 1.98889,1.02291 5.6792,3.20916 5.96968,3.53674 0.055,0.0604 0.40496,0.32458 0.78146,0.58625 0.75646,0.527 0.74596,0.51875 2.53885,1.95799 1.81742,1.45838 5.56174,5.28083 7.02066,7.16703 0.68545,0.88629 1.32541,1.61146 1.42191,1.61146 0.095,0 0.12,0.0883 0.055,0.19708 -0.065,0.10792 0,0.24958 0.185,0.31417 0.17,0.0646 0.305,0.19958 0.305,0.29958 0,0.15833 0.699,1.2565 0.97646,1.53387 0.055,0.0542 0.30999,0.493 0.56545,0.97662 0.255,0.48346 0.658,1.14267 0.89096,1.465 0.235,0.3225 0.5465,0.89362 0.697,1.26962 0.15,0.37584 0.54346,1.16713 0.87441,1.75796 0.33,0.59087 0.721,1.382 0.86696,1.758 0.34,0.86891 0.74946,1.87333 1.10246,2.69237 0.155,0.35291 0.275,0.76737 0.275,0.9212 0,0.15417 0.125,0.56838 0.27499,0.92121 0.15,0.35291 0.365,0.99304 0.475,1.42279 0.65096,2.56066 0.81646,3.27782 1.08092,4.68791 0.83196,4.42849 1.12345,10.11232 0.708,13.79522 -0.14,1.2221 -0.27,2.5821 -0.295,3.0225 -0.055,1.0237 -0.53446,3.2625 -1.49492,7.0125 -0.11,0.43 -0.29,1.0012 -0.4,1.2696 -0.11,0.2708 -0.26999,0.752 -0.35499,1.0741 -0.265,1 -0.76796,2.2708 -1.49792,3.8025 -0.385,0.8096 -0.7125,1.5154 -0.726,1.5692 0,0.054 -0.15,0.3166 -0.305,0.5862 -0.155,0.2667 -0.29,0.5321 -0.305,0.5859 -0.1,0.4 -0.84045,1.7379 -1.67391,3.0275 -0.275,0.4295 -0.51596,0.8491 -0.52896,0.9316 0,0.083 -0.12,0.2583 -0.235,0.3917 -0.115,0.1333 -0.64645,0.8554 -1.18041,1.6075 -0.5345,0.7521 -1.12496,1.5429 -1.31246,1.7579 -0.185,0.2167 -0.84045,1.0058 -1.45091,1.7579 -1.27091,1.5654 -4.19328,4.4546 -5.9152,5.8479 -0.64445,0.5221 -1.21591,1.0075 -1.26941,1.0792 -0.055,0.071 -0.53748,0.4267 -1.07445,0.7883 -0.53697,0.3625 -1.02045,0.7125 -1.07445,0.7788 -0.055,0.067 -0.44997,0.3333 -0.87895,0.5929 -0.42998,0.2583 -0.86895,0.5433 -0.97645,0.6308 -0.84895,0.6921 -6.83564,3.7529 -8.49705,4.3442 -3.06034,1.0891 -6.35216,2.0771 -7.12962,2.1396 -0.215,0 -0.87395,0.1333 -1.46492,0.2583 -3.19484,0.6746 -5.08274,0.8267 -9.96998,0.8025 -2.73485,0 -5.36821,-0.096 -5.85169,-0.1833 z m 26.40261,-21.3908 c 2.20338,-0.5513 3.6323,-1.3808 5.33871,-3.0983 1.56942,-1.5804 2.35537,-2.8492 3.15234,-5.0896 0.31999,-0.8942 0.35495,-2.1637 0.41495,-15.0891 l 0.07,-14.11255 -8.21006,0 -8.21007,0 0.65347,1.3185 c 1.57142,3.17066 2.01839,6.32525 1.40442,9.91275 -0.32,1.8567 -0.54047,2.5438 -1.32643,4.0975 -1.96939,3.8942 -5.13822,6.6008 -9.23901,7.8929 -1.68691,0.5313 -5.22922,0.7446 -7.32511,0.4408 -5.19023,-0.7516 -9.91598,-4.6258 -11.82288,-9.6929 -0.70196,-1.8641 -0.76895,-2.34 -0.77195,-5.4729 -0.004,-3.67891 0.26,-4.91291 1.53841,-7.2759 l 0.66147,-1.22083 -8.18257,0 -8.18257,0 0.004,13.72173 c 0.004,12.6571 0.05,13.8283 0.36,15.0896 1.08794,4.165 4.15578,7.3583 8.13307,8.4645 1.31043,0.3625 2.17588,0.3834 20.8359,0.4 17.15609,0 19.61496,0 20.70491,-0.2875 z m -17.67607,-17.9725 c 3.97229,-1.155 7.03813,-4.2795 8.15657,-8.3133 0.58697,-2.1179 0.315,-5.2261 -0.63497,-7.19663 -0.92295,-1.91812 -1.9724,-3.24329 -3.53631,-4.46524 -1.03245,-0.80629 -1.61342,-1.12709 -3.43382,-1.89546 -1.02545,-0.43296 -4.62526,-0.6115 -5.90219,-0.2925 -0.89145,0.2225 -3.16983,1.14854 -3.37582,1.37183 -0.055,0.0583 -0.45998,0.35333 -0.90795,0.6555 -2.86635,1.9435 -4.73775,5.72286 -4.66025,9.4112 0.15499,7.2538 7.4366,12.7183 14.29474,10.7246 z m -4.66325,-2.3316 c -0.055,-0.058 -0.315,-0.1459 -0.56997,-0.1917 -1.60292,-0.3083 -4.11579,-2.145 -5.09524,-3.7271 -0.97944,-1.5821 -1.23043,-2.5737 -1.23043,-4.8633 0,-2.07082 0.05,-2.20165 0.70896,-3.61369 1.02095,-2.11004 2.29538,-3.35975 4.45127,-4.36483 1.20094,-0.56 1.43392,-0.5995 3.53231,-0.59908 2.15189,3.3e-4 2.30338,0.0292 3.61331,0.66133 3.10684,1.50162 5.16673,4.6807 5.17373,7.98587 0,4.9158 -3.92279,8.8179 -8.89054,8.8179 -0.87395,0 -1.63641,-0.046 -1.6934,-0.1042 z M 39.5456,989.98466 c 0.84246,-0.81424 4.08129,-2.75345 4.59926,-2.75345 0.17,0 0.395,-0.0808 0.49497,-0.18042 0.335,-0.32708 2.29888,-0.64341 4.57926,-0.73862 2.90835,-0.12167 5.00774,0.29292 7.42361,1.466 0.69546,0.3375 2.36188,1.38329 2.53936,1.59366 0.055,0.0633 0.46498,0.4 0.90946,0.74738 l 0.81195,0.6317 9.15002,-0.0504 9.15001,-0.0504 0,-4.59028 c 0,-3.91045 -0.065,-4.74933 -0.36995,-5.66453 -0.72096,-2.16233 -1.54542,-3.57116 -2.85385,-4.87612 -1.52492,-1.5205 -1.62042,-1.59562 -2.95485,-2.3172 -2.50836,-1.35696 -1.37392,-1.28083 -20.13243,-1.35058 l -16.9446,-0.0629 0,7.42869 0,7.42878 -1.46493,0 -1.46542,0 0,-7.42257 0,-7.42257 -0.58597,0 -0.58597,0 0,7.42257 0,7.42257 -1.46492,0 -1.46492,0 0,-7.12957 c 0,-6.66099 -0.05,-7.12936 -0.34,-7.12653 -0.81996,0.004 -0.82296,0.0292 -0.87645,7.23416 l -0.05,6.92423 -1.41593,0.0575 -1.41642,0.0575 -0.005,-6.21032 -0.005,-6.21028 -1.23944,1.29529 c -1.35042,1.4115 -2.24188,3.01462 -2.83635,5.10137 -0.315,1.11153 -0.37995,2.00662 -0.395,5.71336 l 0,4.39537 9.22852,0 9.22851,0 0.78845,-0.7625 z M 64.86976,986.574 c -0.90095,-0.51095 -0.98394,-0.9362 -0.99144,-5.0819 l 0,-3.88358 0.69796,-0.65791 0.69746,-0.65788 3.7158,0 c 4.02929,0 4.57626,0.12167 5.02924,1.11583 0.13,0.28584 0.21,1.94725 0.205,4.31379 -0.005,3.78916 0,3.85761 -0.48497,4.43457 l -0.47998,0.58596 -3.95829,0.05 c -3.04234,0.0333 -4.06628,-0.008 -4.42476,-0.21708 z"
       inkscape:connector-curvature="0" />
  </g>
  <g
     style="display:inline"
     id="g4076"
     inkscape:groupmode="layer"
     inkscape:label="copia Capa 1"
     transform="translate(0,-952.36218)">
    <text
       sodipodi:linespacing="125%"
       id="text4122"
       y="227.06755"
       x="-510.93515"
       style="font-size:40px;font-style:normal;font-weight:normal;line-height:125%;letter-spacing:0px;word-spacing:0px;fill:#000000;fill-opacity:1;stroke:none;font-family:Sans"
       xml:space="preserve"><tspan
         y="227.06755"
         x="-510.93515"
         id="tspan4124"
         sodipodi:role="line" /></text>
    <flowRoot
       style="font-size:40px;font-style:normal;font-weight:normal;line-height:125%;letter-spacing:0px;word-spacing:0px;fill:#000000;fill-opacity:1;stroke:none;font-family:Sans"
       id="flowRoot4126"
       xml:space="preserve"
       transform="translate(-752.3616,-21.213203)"><flowRegion
         id="flowRegion4128"><rect
           y="306.8696"
           x="228.79955"
           height="51.012703"
           width="319.20819"
           id="rect4130" /></flowRegion><flowPara
         id="flowPara4132" /></flowRoot>    <flowRoot
       style="font-size:40px;font-style:normal;font-weight:normal;line-height:125%;letter-spacing:0px;word-spacing:0px;fill:#000000;fill-opacity:1;stroke:none;font-family:Sans"
       id="flowRoot4202"
       xml:space="preserve"
       transform="translate(-752.3616,-21.213203)"><flowRegion
         id="flowRegion4204"><rect
           y="181.61069"
           x="587.90875"
           height="49.497475"
           width="23.233509"
           id="rect4206" /></flowRegion><flowPara
         id="flowPara4208" /></flowRoot>  </g>
  <g
     inkscape:groupmode="layer"
     id="layer1"
     inkscape:label="Mení"
     transform="translate(0,-952.36218)" />
</svg>
