<?xml version="1.0" encoding="UTF-8" standalone="no"?>
<!-- Created with Inkscape (http://www.inkscape.org/) -->

<svg
   xmlns:dc="http://purl.org/dc/elements/1.1/"
   xmlns:cc="http://creativecommons.org/ns#"
   xmlns:rdf="http://www.w3.org/1999/02/22-rdf-syntax-ns#"
   xmlns:svg="http://www.w3.org/2000/svg"
   xmlns="http://www.w3.org/2000/svg"
   xmlns:xlink="http://www.w3.org/1999/xlink"
   xmlns:sodipodi="http://sodipodi.sourceforge.net/DTD/sodipodi-0.dtd"
   xmlns:inkscape="http://www.inkscape.org/namespaces/inkscape"
   width="100"
   height="100"
   id="svg3008"
   version="1.1"
   inkscape:version="0.48.4 r9939"
   sodipodi:docname="icon-circle-world.svg">
  <defs
     id="defs3010">
    <defs
       id="defs4733">
      <rect
         id="SVGID_1_-92"
         x="0"
         y="0"
         width="99.941002"
         height="91.085999" />
    </defs>
    <clipPath
       id="SVGID_2_-4">
      <use
         height="1"
         width="1"
         y="0"
         x="0"
         style="overflow:visible"
         xlink:href="#SVGID_1_-92"
         overflow="visible"
         id="use4737" />
    </clipPath>
    <defs
       id="defs4710">
      <rect
         id="SVGID_1_-9"
         x="0"
         y="0.001"
         width="70.989998"
         height="70.988998" />
    </defs>
    <clipPath
       id="SVGID_2_-16">
      <use
         height="1"
         width="1"
         y="0"
         x="0"
         style="overflow:visible"
         xlink:href="#SVGID_1_-9"
         overflow="visible"
         id="use4714" />
    </clipPath>
    <clipPath
       id="SVGID_2_-5-8">
      <rect
         x="0"
         id="use4664-4"
         y="0"
         width="76"
         height="95.635002" />
    </clipPath>
    <clipPath
       id="clipPath4599">
      <rect
         x="0"
         id="use4601"
         y="0"
         width="76"
         height="95.635002" />
    </clipPath>
    <clipPath
       id="clipPath4603">
      <rect
         x="0"
         id="use4605"
         y="0"
         width="76"
         height="95.635002" />
    </clipPath>
    <clipPath
       id="clipPath4607">
      <rect
         x="0"
         id="use4609"
         y="0"
         width="76"
         height="95.635002" />
    </clipPath>
    <clipPath
       id="clipPath4611">
      <rect
         x="0"
         id="use4613"
         y="0"
         width="76"
         height="95.635002" />
    </clipPath>
    <clipPath
       id="clipPath4615">
      <rect
         x="0"
         id="use4617"
         y="0"
         width="76"
         height="95.635002" />
    </clipPath>
    <clipPath
       id="clipPath4619">
      <rect
         x="0"
         id="use4621"
         y="0"
         width="76"
         height="95.635002" />
    </clipPath>
    <clipPath
       id="clipPath4623">
      <rect
         x="0"
         id="use4625"
         y="0"
         width="76"
         height="95.635002" />
    </clipPath>
    <clipPath
       id="clipPath4627">
      <rect
         x="0"
         id="use4629"
         y="0"
         width="76"
         height="95.635002" />
    </clipPath>
    <clipPath
       id="SVGID_2_-4-1">
      <use
         height="1"
         width="1"
         y="0"
         x="0"
         style="overflow:visible"
         xlink:href="#SVGID_1_-92"
         overflow="visible"
         id="use4737-2" />
    </clipPath>
    <clipPath
       id="SVGID_2_-01">
      <rect
         y="0"
         x="0"
         id="use5945"
         width="99.083"
         height="100" />
    </clipPath>
    <clipPath
       id="clipPath5720">
      <rect
         y="0"
         x="0"
         id="use5722"
         width="99.083"
         height="100" />
    </clipPath>
    <clipPath
       id="clipPath5724">
      <rect
         y="0"
         x="0"
         id="use5726"
         width="99.083"
         height="100" />
    </clipPath>
    <clipPath
       id="SVGID_2_-3">
      <rect
         y="0"
         x="0"
         id="use5919"
         width="99.999001"
         height="100.001" />
    </clipPath>
    <clipPath
       id="clipPath5802">
      <rect
         y="0"
         x="0"
         id="use5804"
         width="99.999001"
         height="100.001" />
    </clipPath>
  </defs>
  <sodipodi:namedview
     id="base"
     pagecolor="#ffffff"
     bordercolor="#666666"
     borderopacity="1.0"
     inkscape:pageopacity="0.0"
     inkscape:pageshadow="2"
     inkscape:zoom="2.8284271"
     inkscape:cx="68.138547"
     inkscape:cy="48.821505"
     inkscape:document-units="px"
     inkscape:current-layer="capa1"
     showgrid="false"
     inkscape:window-width="1440"
     inkscape:window-height="845"
     inkscape:window-x="0"
     inkscape:window-y="27"
     inkscape:window-maximized="1"
     showguides="true"
     inkscape:guide-bbox="true">
    <sodipodi:guide
       orientation="1,0"
       position="517.1981,771.25147"
       id="guide4126" />
    <sodipodi:guide
       orientation="1,0"
       position="550.71429,709.28572"
       id="guide4366" />
    <sodipodi:guide
       orientation="1,0"
       position="529.26943,-512.29886"
       id="guide5163" />
    <sodipodi:guide
       orientation="0,1"
       position="248.90159,-436.28488"
       id="guide5378" />
    <sodipodi:guide
       orientation="1,0"
       position="613.06158,596.09101"
       id="guide4779" />
  </sodipodi:namedview>
  <metadata
     id="metadata3013">
    <rdf:RDF>
      <cc:Work
         rdf:about="">
        <dc:format>image/svg+xml</dc:format>
        <dc:type
           rdf:resource="http://purl.org/dc/dcmitype/StillImage" />
        <dc:title></dc:title>
      </cc:Work>
    </rdf:RDF>
  </metadata>
  <g
     inkscape:label="Capa 1"
     inkscape:groupmode="layer"
     id="capa1"
     style="display:inline"
     transform="translate(0,-952.36218)">
    <text
       xml:space="preserve"
       style="font-size:40px;font-style:normal;font-weight:normal;line-height:125%;letter-spacing:0px;word-spacing:0px;fill:#000000;fill-opacity:1;stroke:none;font-family:Sans"
       x="241.42645"
       y="248.28076"
       id="text4128"
       sodipodi:linespacing="125%"><tspan
         sodipodi:role="line"
         id="tspan4130"
         x="241.42645"
         y="248.28076" /></text>
    <flowRoot
       xml:space="preserve"
       id="flowRoot4132"
       style="font-size:40px;font-style:normal;font-weight:normal;line-height:125%;letter-spacing:0px;word-spacing:0px;fill:#000000;fill-opacity:1;stroke:none;font-family:Sans"><flowRegion
         id="flowRegion4134"><rect
           id="rect4136"
           width="319.20819"
           height="51.012703"
           x="228.79955"
           y="306.8696" /></flowRegion><flowPara
         id="flowPara4138" /></flowRoot>    <flowRoot
       xml:space="preserve"
       id="flowRoot4299"
       style="font-size:40px;font-style:normal;font-weight:normal;line-height:125%;letter-spacing:0px;word-spacing:0px;fill:#000000;fill-opacity:1;stroke:none;font-family:Sans"><flowRegion
         id="flowRegion4301"><rect
           id="rect4303"
           width="23.233509"
           height="49.497475"
           x="587.90875"
           y="181.61069" /></flowRegion><flowPara
         id="flowPara4305" /></flowRoot>    <g
       id="g6155"
       transform="matrix(4.1666667,0,0,4.1666667,-352.08333,-3222.0633)">
      <path
         id="circle3544"
         d="m 108.5,1013.8621 c 0,6.6275 -5.37258,12 -12.000002,12 -6.627417,0 -12.000001,-5.3725 -12.000001,-12 0,-6.6274 5.372584,-12 12.000001,-12 6.627422,0 12.000002,5.3726 12.000002,12 z"
         style="fill:#000000;fill-opacity:1"
         inkscape:connector-curvature="0" />
      <g
         transform="matrix(0.04074703,0,0,0.04074703,79.34778,1001.7691)"
         id="Icon">
        <g
           id="g3547">
          <path
             id="path3549"
             d="m 435.603,325.237 c -6.896,-2.964 -13.741,-4.601 -20.562,-4.898 -4.75,-0.149 -12.786,-0.596 -24.121,-1.327 -11.348,-0.744 -20.265,-1.19 -26.788,-1.327 -6.077,-0.148 -11.968,-0.372 -17.672,-0.682 -5.705,-0.285 -10.716,-1.029 -15.007,-2.22 -4.452,-1.042 -8.234,-3.002 -11.347,-5.903 -3.113,-2.878 -4.663,-7.069 -4.663,-12.563 0,-5.332 1.848,-9.562 5.556,-12.662 3.708,-3.1 7.255,-5.258 10.665,-6.449 h 26.899 c 20.748,0 38.941,-6.672 54.58,-20.004 15.638,-13.344 23.451,-29.64 23.451,-48.912 0,-7.403 -1.327,-14.969 -3.993,-22.683 -2.666,-7.701 -6.747,-14.745 -12.229,-21.12 v -1.326 h 51.579 V 141.817 H 395.47 c -6.82,-2.071 -13.53,-3.782 -20.128,-5.109 -6.598,-1.327 -13.232,-2.009 -19.892,-2.009 -24.159,0 -43.989,6.672 -59.467,20.016 -15.489,13.345 -23.24,30.385 -23.24,51.133 0,13.79 3.919,25.906 11.781,36.349 7.851,10.455 18.888,19.012 33.125,25.685 v 3.336 c -11.261,4.737 -19.669,10.417 -25.237,17.003 -5.556,6.598 -8.334,13.815 -8.334,21.678 0,6.226 1.19,11.447 3.56,15.676 2.368,4.229 5.481,7.899 9.338,11.013 3.411,2.666 7.479,4.998 12.229,6.994 4.737,1.997 9.339,3.671 13.778,4.998 v 3.113 c -18.379,0.756 -33.497,5.481 -45.353,14.225 -11.856,8.743 -17.784,20.674 -17.784,35.804 0,18.677 8.234,32.852 24.679,42.574 16.445,9.724 41.273,14.572 74.473,14.572 20.301,0 37.354,-1.935 51.144,-5.791 13.791,-3.857 25.635,-9.265 35.568,-16.234 9.339,-6.82 16.296,-14.857 20.909,-24.121 4.589,-9.264 6.896,-19.148 6.896,-29.677 0,-10.529 -1.712,-19.347 -5.109,-26.466 -3.41,-7.105 -8.086,-13.48 -14.014,-19.123 -5.631,-5.175 -11.894,-9.255 -18.789,-12.219 z m -51.578,-78.812 c -6.896,10.306 -16.718,15.452 -29.454,15.452 -11.409,0 -20.711,-5.184 -27.903,-15.564 -7.193,-10.367 -10.777,-23.786 -10.777,-40.243 0,-7.255 0.632,-14.336 1.885,-21.231 1.253,-6.895 3.361,-12.786 6.337,-17.673 3.113,-5.332 7.156,-9.449 12.117,-12.339 4.96,-2.89 10.926,-4.341 17.896,-4.341 12.736,0 22.633,5.159 29.677,15.452 7.032,10.306 10.566,24.121 10.566,41.459 -0.002,15.712 -3.449,28.722 -10.344,39.028 z m 34.24,182.974 c -12.525,8.383 -29.689,12.562 -51.467,12.562 -12.6,0 -23.265,-1.228 -32.021,-3.658 -8.743,-2.443 -15.713,-5.594 -20.896,-9.463 -5.482,-3.993 -9.339,-8.371 -11.559,-13.121 -2.22,-4.737 -3.336,-9.698 -3.336,-14.895 0,-11.558 3.373,-20.995 10.119,-28.337 6.734,-7.342 18.119,-12.576 34.13,-15.688 17.04,0 32.021,0.372 44.906,1.116 12.897,0.756 21.417,1.414 25.572,1.996 7.85,1.923 13.704,5.557 17.573,10.901 3.856,5.345 5.779,12.142 5.779,20.45 -0.024,17.041 -6.274,29.766 -18.8,38.137 z"
             inkscape:connector-curvature="0"
             style="fill:#ffffff" />
          <path
             id="path3551"
             d="m 521.807,207.222 v 43.468 h 16.966 v -43.468 h 43.269 v -16.68 h -43.269 v -43.567 h -16.966 v 43.567 h -43.27 v 16.68 h 43.27 z"
             inkscape:connector-curvature="0"
             style="fill:#ffffff" />
        </g>
      </g>
    </g>
  </g>
  <g
     style="display:inline"
     id="g4076"
     inkscape:groupmode="layer"
     inkscape:label="copia Capa 1"
     transform="translate(0,-952.36218)">
    <text
       sodipodi:linespacing="125%"
       id="text4122"
       y="227.06755"
       x="-510.93515"
       style="font-size:40px;font-style:normal;font-weight:normal;line-height:125%;letter-spacing:0px;word-spacing:0px;fill:#000000;fill-opacity:1;stroke:none;font-family:Sans"
       xml:space="preserve"><tspan
         y="227.06755"
         x="-510.93515"
         id="tspan4124"
         sodipodi:role="line" /></text>
    <flowRoot
       style="font-size:40px;font-style:normal;font-weight:normal;line-height:125%;letter-spacing:0px;word-spacing:0px;fill:#000000;fill-opacity:1;stroke:none;font-family:Sans"
       id="flowRoot4126"
       xml:space="preserve"
       transform="translate(-752.3616,-21.213203)"><flowRegion
         id="flowRegion4128"><rect
           y="306.8696"
           x="228.79955"
           height="51.012703"
           width="319.20819"
           id="rect4130" /></flowRegion><flowPara
         id="flowPara4132" /></flowRoot>    <flowRoot
       style="font-size:40px;font-style:normal;font-weight:normal;line-height:125%;letter-spacing:0px;word-spacing:0px;fill:#000000;fill-opacity:1;stroke:none;font-family:Sans"
       id="flowRoot4202"
       xml:space="preserve"
       transform="translate(-752.3616,-21.213203)"><flowRegion
         id="flowRegion4204"><rect
           y="181.61069"
           x="587.90875"
           height="49.497475"
           width="23.233509"
           id="rect4206" /></flowRegion><flowPara
         id="flowPara4208" /></flowRoot>  </g>
  <g
     inkscape:groupmode="layer"
     id="layer1"
     inkscape:label="Mení"
     transform="translate(0,-952.36218)" />
</svg>
