<?xml version="1.0" encoding="UTF-8" standalone="no"?>
<!-- Generator: Adobe Illustrator 16.0.0, SVG Export Plug-In . SVG Version: 6.00 Build 0)  -->

<svg
   xmlns:dc="http://purl.org/dc/elements/1.1/"
   xmlns:cc="http://creativecommons.org/ns#"
   xmlns:rdf="http://www.w3.org/1999/02/22-rdf-syntax-ns#"
   xmlns:svg="http://www.w3.org/2000/svg"
   xmlns="http://www.w3.org/2000/svg"
   xmlns:sodipodi="http://sodipodi.sourceforge.net/DTD/sodipodi-0.dtd"
   xmlns:inkscape="http://www.inkscape.org/namespaces/inkscape"
   version="1.1"
   id="Capa_1"
   x="0px"
   y="0px"
   width="87.650154"
   height="100"
   viewBox="0 0 87.650153 99.999999"
   xml:space="preserve"
   inkscape:version="0.48.4 r9939"
   sodipodi:docname="conversation5.svg"><metadata
     id="metadata41"><rdf:RDF><cc:Work
         rdf:about=""><dc:format>image/svg+xml</dc:format><dc:type
           rdf:resource="http://purl.org/dc/dcmitype/StillImage" /></cc:Work></rdf:RDF></metadata><defs
     id="defs39" /><sodipodi:namedview
     pagecolor="#ffffff"
     bordercolor="#666666"
     borderopacity="1"
     objecttolerance="10"
     gridtolerance="10"
     guidetolerance="10"
     inkscape:pageopacity="0"
     inkscape:pageshadow="2"
     inkscape:window-width="1440"
     inkscape:window-height="845"
     id="namedview37"
     showgrid="false"
     fit-margin-top="0"
     fit-margin-left="0"
     fit-margin-right="0"
     fit-margin-bottom="0"
     inkscape:zoom="4.2823444"
     inkscape:cx="112.33972"
     inkscape:cy="34.535658"
     inkscape:window-x="0"
     inkscape:window-y="27"
     inkscape:window-maximized="1"
     inkscape:current-layer="Capa_1" /><g
     id="g3"
     transform="matrix(3.6291054,0,0,3.6291054,-6.1731083,0)"><path
       d="M 13.777,0 C 7.108,0 1.701,5.407 1.701,12.076 c 0,3.45 1.454,6.553 3.773,8.752 l -0.404,6.727 5.736,-3.787 c 0.952,0.241 1.944,0.383 2.971,0.383 6.67,0 12.076,-5.406 12.076,-12.076 C 25.854,5.407 20.447,0 13.777,0 z M 12.61,11.342 c 0,1.24 -0.258,2.219 -0.774,2.936 -0.516,0.717 -1.4,1.352 -2.654,1.9 L 8.237,14.389 c 0.771,-0.361 1.304,-0.722 1.598,-1.08 0.295,-0.36 0.459,-0.784 0.493,-1.273 H 8.237 V 7.974 h 4.373 v 3.368 z m 6.707,0 c 0,1.24 -0.258,2.219 -0.774,2.936 -0.516,0.719 -1.4,1.352 -2.654,1.9 l -0.944,-1.789 c 0.771,-0.361 1.304,-0.722 1.599,-1.08 0.295,-0.36 0.459,-0.784 0.493,-1.273 H 14.946 V 7.974 h 4.373 l -0.002,3.368 0,0 z"
       id="path5"
       inkscape:connector-curvature="0" /></g><g
     id="g7"
     transform="translate(-1.701,72.444999)" /><g
     id="g9"
     transform="translate(-1.701,72.444999)" /><g
     id="g11"
     transform="translate(-1.701,72.444999)" /><g
     id="g13"
     transform="translate(-1.701,72.444999)" /><g
     id="g15"
     transform="translate(-1.701,72.444999)" /><g
     id="g17"
     transform="translate(-1.701,72.444999)" /><g
     id="g19"
     transform="translate(-1.701,72.444999)" /><g
     id="g21"
     transform="translate(-1.701,72.444999)" /><g
     id="g23"
     transform="translate(-1.701,72.444999)" /><g
     id="g25"
     transform="translate(-1.701,72.444999)" /><g
     id="g27"
     transform="translate(-1.701,72.444999)" /><g
     id="g29"
     transform="translate(-1.701,72.444999)" /><g
     id="g31"
     transform="translate(-1.701,72.444999)" /><g
     id="g33"
     transform="translate(-1.701,72.444999)" /><g
     id="g35"
     transform="translate(-1.701,72.444999)" /></svg>