<?xml version="1.0" encoding="UTF-8" standalone="no"?>
<!-- Created with Inkscape (http://www.inkscape.org/) -->

<svg
   xmlns:dc="http://purl.org/dc/elements/1.1/"
   xmlns:cc="http://creativecommons.org/ns#"
   xmlns:rdf="http://www.w3.org/1999/02/22-rdf-syntax-ns#"
   xmlns:svg="http://www.w3.org/2000/svg"
   xmlns="http://www.w3.org/2000/svg"
   xmlns:xlink="http://www.w3.org/1999/xlink"
   xmlns:sodipodi="http://sodipodi.sourceforge.net/DTD/sodipodi-0.dtd"
   xmlns:inkscape="http://www.inkscape.org/namespaces/inkscape"
   width="100"
   height="100"
   id="svg3008"
   version="1.1"
   inkscape:version="0.48.4 r9939"
   sodipodi:docname="icon-circle-twitter.svg">
  <defs
     id="defs3010">
    <defs
       id="defs4733">
      <rect
         id="SVGID_1_-92"
         x="0"
         y="0"
         width="99.941002"
         height="91.085999" />
    </defs>
    <clipPath
       id="SVGID_2_-4">
      <use
         height="1"
         width="1"
         y="0"
         x="0"
         style="overflow:visible"
         xlink:href="#SVGID_1_-92"
         overflow="visible"
         id="use4737" />
    </clipPath>
    <defs
       id="defs4710">
      <rect
         id="SVGID_1_-9"
         x="0"
         y="0.001"
         width="70.989998"
         height="70.988998" />
    </defs>
    <clipPath
       id="SVGID_2_-16">
      <use
         height="1"
         width="1"
         y="0"
         x="0"
         style="overflow:visible"
         xlink:href="#SVGID_1_-9"
         overflow="visible"
         id="use4714" />
    </clipPath>
    <clipPath
       id="SVGID_2_-5-8">
      <rect
         x="0"
         id="use4664-4"
         y="0"
         width="76"
         height="95.635002" />
    </clipPath>
    <clipPath
       id="clipPath4599">
      <rect
         x="0"
         id="use4601"
         y="0"
         width="76"
         height="95.635002" />
    </clipPath>
    <clipPath
       id="clipPath4603">
      <rect
         x="0"
         id="use4605"
         y="0"
         width="76"
         height="95.635002" />
    </clipPath>
    <clipPath
       id="clipPath4607">
      <rect
         x="0"
         id="use4609"
         y="0"
         width="76"
         height="95.635002" />
    </clipPath>
    <clipPath
       id="clipPath4611">
      <rect
         x="0"
         id="use4613"
         y="0"
         width="76"
         height="95.635002" />
    </clipPath>
    <clipPath
       id="clipPath4615">
      <rect
         x="0"
         id="use4617"
         y="0"
         width="76"
         height="95.635002" />
    </clipPath>
    <clipPath
       id="clipPath4619">
      <rect
         x="0"
         id="use4621"
         y="0"
         width="76"
         height="95.635002" />
    </clipPath>
    <clipPath
       id="clipPath4623">
      <rect
         x="0"
         id="use4625"
         y="0"
         width="76"
         height="95.635002" />
    </clipPath>
    <clipPath
       id="clipPath4627">
      <rect
         x="0"
         id="use4629"
         y="0"
         width="76"
         height="95.635002" />
    </clipPath>
    <clipPath
       id="SVGID_2_-4-1">
      <use
         height="1"
         width="1"
         y="0"
         x="0"
         style="overflow:visible"
         xlink:href="#SVGID_1_-92"
         overflow="visible"
         id="use4737-2" />
    </clipPath>
    <clipPath
       id="SVGID_2_-01">
      <rect
         y="0"
         x="0"
         id="use5945"
         width="99.083"
         height="100" />
    </clipPath>
    <clipPath
       id="clipPath5720">
      <rect
         y="0"
         x="0"
         id="use5722"
         width="99.083"
         height="100" />
    </clipPath>
    <clipPath
       id="clipPath5724">
      <rect
         y="0"
         x="0"
         id="use5726"
         width="99.083"
         height="100" />
    </clipPath>
    <clipPath
       id="SVGID_2_-3">
      <rect
         y="0"
         x="0"
         id="use5919"
         width="99.999001"
         height="100.001" />
    </clipPath>
    <clipPath
       id="clipPath5802">
      <rect
         y="0"
         x="0"
         id="use5804"
         width="99.999001"
         height="100.001" />
    </clipPath>
  </defs>
  <sodipodi:namedview
     id="base"
     pagecolor="#ffffff"
     bordercolor="#666666"
     borderopacity="1.0"
     inkscape:pageopacity="0.0"
     inkscape:pageshadow="2"
     inkscape:zoom="4"
     inkscape:cx="94.834645"
     inkscape:cy="36.371877"
     inkscape:document-units="px"
     inkscape:current-layer="capa1"
     showgrid="false"
     inkscape:window-width="1440"
     inkscape:window-height="845"
     inkscape:window-x="0"
     inkscape:window-y="27"
     inkscape:window-maximized="1"
     showguides="true"
     inkscape:guide-bbox="true">
    <sodipodi:guide
       orientation="1,0"
       position="517.1981,771.25147"
       id="guide4126" />
    <sodipodi:guide
       orientation="1,0"
       position="550.71429,709.28572"
       id="guide4366" />
    <sodipodi:guide
       orientation="1,0"
       position="529.26943,-512.29886"
       id="guide5163" />
    <sodipodi:guide
       orientation="0,1"
       position="248.90159,-436.28488"
       id="guide5378" />
    <sodipodi:guide
       orientation="1,0"
       position="613.06158,596.09101"
       id="guide4779" />
  </sodipodi:namedview>
  <metadata
     id="metadata3013">
    <rdf:RDF>
      <cc:Work
         rdf:about="">
        <dc:format>image/svg+xml</dc:format>
        <dc:type
           rdf:resource="http://purl.org/dc/dcmitype/StillImage" />
        <dc:title></dc:title>
      </cc:Work>
    </rdf:RDF>
  </metadata>
  <g
     inkscape:label="Capa 1"
     inkscape:groupmode="layer"
     id="capa1"
     style="display:inline"
     transform="translate(0,-952.36218)">
    <text
       xml:space="preserve"
       style="font-size:40px;font-style:normal;font-weight:normal;line-height:125%;letter-spacing:0px;word-spacing:0px;fill:#000000;fill-opacity:1;stroke:none;font-family:Sans"
       x="241.42645"
       y="248.28076"
       id="text4128"
       sodipodi:linespacing="125%"><tspan
         sodipodi:role="line"
         id="tspan4130"
         x="241.42645"
         y="248.28076" /></text>
    <flowRoot
       xml:space="preserve"
       id="flowRoot4132"
       style="font-size:40px;font-style:normal;font-weight:normal;line-height:125%;letter-spacing:0px;word-spacing:0px;fill:#000000;fill-opacity:1;stroke:none;font-family:Sans"><flowRegion
         id="flowRegion4134"><rect
           id="rect4136"
           width="319.20819"
           height="51.012703"
           x="228.79955"
           y="306.8696" /></flowRegion><flowPara
         id="flowPara4138" /></flowRoot>    <flowRoot
       xml:space="preserve"
       id="flowRoot4299"
       style="font-size:40px;font-style:normal;font-weight:normal;line-height:125%;letter-spacing:0px;word-spacing:0px;fill:#000000;fill-opacity:1;stroke:none;font-family:Sans"><flowRegion
         id="flowRegion4301"><rect
           id="rect4303"
           width="23.233509"
           height="49.497475"
           x="587.90875"
           y="181.61069" /></flowRegion><flowPara
         id="flowPara4305" /></flowRoot>    <path
       style="fill:#000000"
       d="m 87.446272,1052.0497 c -0.56718,-0.2028 -1.37033,-0.6037 -1.7848,-0.8916 -0.41447,-0.2879 -5.0547,-4.832 -10.31164,-10.0981 -8.41937,-8.4344 -9.62367,-9.7167 -10.10881,-10.7649 -0.75493,-1.6308 -0.86744,-3.7168 -0.28331,-5.2526 l 0.41379,-1.0879 -1.71668,-1.7249 -1.71669,-1.7246 -1.10804,0.8406 c -4.6019,3.4911 -10.43832,5.9124 -16.87401,6.9994 -2.52626,0.4268 -8.61301,0.4806 -11.0064,0.096 -10.6177,-1.7006 -19.47024,-6.994 -25.6221703,-15.3209 -3.48509,-4.717 -5.87749,-10.468 -6.94489005,-16.69385 -0.48331,-2.8187 -0.48123,-8.96965 0.002,-11.84356 2.56274005,-15.17946 13.26462035,-27.0611 27.93958035,-31.01937 3.42602,-0.92409 5.70577,-1.20131 9.87884,-1.20131 6.36509,0 11.26418,1.11193 16.75749,3.80336 4.11216,2.01469 6.73694,3.88882 10.17752,7.26692 5.87423,5.76727 9.58062,13.14502 10.97397,21.84423 0.38337,2.39361 0.32968,8.48033 -0.0972,11.00662 -1.0872,6.43546 -3.50819,12.27206 -6.99943,16.87386 l -0.84065,1.1083 1.72471,1.7164 1.72469,1.7169 1.08804,-0.4138 c 1.62854,-0.6195 3.65414,-0.4842 5.3561,0.3575 1.14015,0.5637 2.38288,1.7355 11.04116,10.4114 11.214428,11.237 10.86822,10.7931 10.86822,13.9408 0,2.6632 -0.45264,3.4945 -3.63513,6.6772 -3.00299,3.0029 -3.97742,3.5646 -6.37579,3.6759 -1.09171,0.051 -1.76762,-0.028 -2.52255,-0.2992 z m -44.97754,-30.6082 c 12.42082,-1.6488 22.92511,-11.0134 25.98672,-23.16768 0.89778,-3.56408 1.18856,-8.64709 0.68828,-12.03145 -1.83739,-12.42977 -10.64928,-22.46904 -22.68721,-25.84686 -4.86199,-1.36425 -11.13762,-1.41447 -16.0913,-0.12902 -10.32975,2.68115 -18.75726,10.68149 -21.9657803,20.8523 -1.4669,4.65004 -1.80799,9.98123 -0.95756,14.96678 1.04424,6.12223 4.4846803,12.48413 9.1694003,16.95583 7.01002,6.6916 16.21074,9.6804 25.85745,8.3998 z m -9.51905,-8.5885 c -4.44851,-0.8736 -7.96456,-2.6841 -11.17065,-5.7521 -6.55916,-6.2763 -8.35965,-16.43047 -4.3444,-24.50036 l 0.83871,-1.6857 0.12423,2.1815 c 0.24227,4.26016 1.19275,7.78621 3.08778,11.45537 3.62513,7.01889 10.34238,12.29229 18.00887,14.13799 2.3644,0.5693 6.00772,0.9189 7.93253,0.7612 l 1.3882,-0.1127 -1.31346,0.8071 c -1.56111,0.9592 -3.78232,1.8753 -5.88572,2.4274 -1.99456,0.5234 -6.6615,0.6749 -8.66592,0.2817 z"
       id="path4333"
       inkscape:connector-curvature="0"
       inkscape:export-filename="/home/oficina/Xarxanet/2015_Portal/2015_seccions_especials/llei de transparència/icon.png"
       inkscape:export-xdpi="90"
       inkscape:export-ydpi="90" />
  </g>
  <g
     style="display:inline"
     id="g4076"
     inkscape:groupmode="layer"
     inkscape:label="copia Capa 1"
     transform="translate(0,-952.36218)">
    <text
       sodipodi:linespacing="125%"
       id="text4122"
       y="227.06755"
       x="-510.93515"
       style="font-size:40px;font-style:normal;font-weight:normal;line-height:125%;letter-spacing:0px;word-spacing:0px;fill:#000000;fill-opacity:1;stroke:none;font-family:Sans"
       xml:space="preserve"><tspan
         y="227.06755"
         x="-510.93515"
         id="tspan4124"
         sodipodi:role="line" /></text>
    <flowRoot
       style="font-size:40px;font-style:normal;font-weight:normal;line-height:125%;letter-spacing:0px;word-spacing:0px;fill:#000000;fill-opacity:1;stroke:none;font-family:Sans"
       id="flowRoot4126"
       xml:space="preserve"
       transform="translate(-752.3616,-21.213203)"><flowRegion
         id="flowRegion4128"><rect
           y="306.8696"
           x="228.79955"
           height="51.012703"
           width="319.20819"
           id="rect4130" /></flowRegion><flowPara
         id="flowPara4132" /></flowRoot>    <flowRoot
       style="font-size:40px;font-style:normal;font-weight:normal;line-height:125%;letter-spacing:0px;word-spacing:0px;fill:#000000;fill-opacity:1;stroke:none;font-family:Sans"
       id="flowRoot4202"
       xml:space="preserve"
       transform="translate(-752.3616,-21.213203)"><flowRegion
         id="flowRegion4204"><rect
           y="181.61069"
           x="587.90875"
           height="49.497475"
           width="23.233509"
           id="rect4206" /></flowRegion><flowPara
         id="flowPara4208" /></flowRoot>  </g>
  <g
     inkscape:groupmode="layer"
     id="layer1"
     inkscape:label="Mení"
     transform="translate(0,-952.36218)" />
</svg>
