<?xml version="1.0" encoding="UTF-8" standalone="no"?>
<!-- Created with Inkscape (http://www.inkscape.org/) -->

<svg
   xmlns:dc="http://purl.org/dc/elements/1.1/"
   xmlns:cc="http://creativecommons.org/ns#"
   xmlns:rdf="http://www.w3.org/1999/02/22-rdf-syntax-ns#"
   xmlns:svg="http://www.w3.org/2000/svg"
   xmlns="http://www.w3.org/2000/svg"
   xmlns:sodipodi="http://sodipodi.sourceforge.net/DTD/sodipodi-0.dtd"
   xmlns:inkscape="http://www.inkscape.org/namespaces/inkscape"
   width="100"
   height="100"
   id="svg4416"
   version="1.1"
   inkscape:version="0.48.4 r9939"
   sodipodi:docname="Nou document 4">
  <defs
     id="defs4418" />
  <sodipodi:namedview
     id="base"
     pagecolor="#ffffff"
     bordercolor="#666666"
     borderopacity="1.0"
     inkscape:pageopacity="0.0"
     inkscape:pageshadow="2"
     inkscape:zoom="0.98994949"
     inkscape:cx="11.896508"
     inkscape:cy="55.496654"
     inkscape:document-units="px"
     inkscape:current-layer="capa1"
     showgrid="false"
     inkscape:window-width="1440"
     inkscape:window-height="845"
     inkscape:window-x="0"
     inkscape:window-y="27"
     inkscape:window-maximized="1" />
  <metadata
     id="metadata4421">
    <rdf:RDF>
      <cc:Work
         rdf:about="">
        <dc:format>image/svg+xml</dc:format>
        <dc:type
           rdf:resource="http://purl.org/dc/dcmitype/StillImage" />
        <dc:title></dc:title>
      </cc:Work>
    </rdf:RDF>
  </metadata>
  <g
     inkscape:label="Capa 1"
     inkscape:groupmode="layer"
     id="capa1"
     transform="translate(0,-952.36218)">
    <path
       style="fill:#000000"
       d="m 44.421576,1038.2067 c -13.254995,-2.047 -27.512981,-11.2418 -38.3380291,-24.7237 -1.783892,-2.222 -4.31036,-6.0981 -5.24142003,-8.0418 -1.15054,-2.4021 -1.131023,-3.4421 0.113199,-6.03169 3.48224503,-7.24784 12.30063913,-16.94665 21.25519313,-23.37722 6.448649,-4.63108 13.756925,-7.95114 20.507878,-9.31646 2.232521,-0.45156 3.32765,-0.53069 7.342307,-0.53069 4.014657,0 5.109785,0.0798 7.342307,0.53069 8.047127,1.62738 16.185275,5.66141 24.097576,11.94472 3.20441,2.54469 9.58577,8.90925 12.0676,12.03591 2.57556,3.24465 4.88665,6.82735 5.76478,8.93655 1.308153,3.14249 0.795903,5.27309 -2.46406,10.24829 -4.0192,6.1343 -10.02248,12.3633 -16.818114,17.4506 -7.989818,5.9811 -16.361587,9.7007 -24.495619,10.8835 -2.98358,0.4338 -8.294517,0.4297 -11.133562,0 z m 10.607839,-10.1119 c 3.611485,-0.6753 7.791097,-2.5106 10.689901,-4.6944 1.910239,-1.439 4.904411,-4.5614 6.089319,-6.3498 5.999221,-9.0557 5.999931,-20.38919 0.0018,-29.46146 -1.287303,-1.94711 -4.683441,-5.39952 -6.634489,-6.74462 -4.652426,-3.20721 -9.508683,-4.72547 -15.115306,-4.72547 -5.60664,0 -10.462897,1.51826 -15.115323,4.72547 -2.066785,1.42494 -5.376089,4.83406 -6.843696,7.05033 -5.933767,8.96056 -5.630132,21.32485 0.73328,29.86595 1.579884,2.1205 4.4506,4.9217 6.397745,6.243 5.741061,3.8955 12.913462,5.3777 19.796741,4.091 z m -6.810072,-11.1567 c -1.986746,-0.2694 -3.1963,-0.6631 -5.152422,-1.6773 -3.138883,-1.6274 -5.607811,-4.5047 -7.007551,-8.1669 -0.524303,-1.3719 -0.594282,-1.8986 -0.603685,-4.5439 -0.0089,-2.4727 0.07807,-3.27199 0.499871,-4.60329 1.517553,-4.7897 5.576975,-8.64537 10.422444,-9.89944 1.802273,-0.46647 5.166155,-0.52857 6.905015,-0.12775 0.69625,0.16146 2.146308,0.71007 3.222328,1.22106 3.849435,1.82806 7.051412,5.93553 7.940918,10.18693 0.689419,3.29489 0.274749,6.34839 -1.297097,9.55189 -1.298303,2.6458 -3.915154,5.3067 -6.41366,6.5214 -2.747563,1.3357 -5.859246,1.8974 -8.516161,1.5371 z"
       id="path4442"
       inkscape:connector-curvature="0" />
  </g>
</svg>
