<?xml version="1.0" encoding="UTF-8" standalone="no"?>
<!-- Created with Inkscape (http://www.inkscape.org/) -->

<svg
   xmlns:dc="http://purl.org/dc/elements/1.1/"
   xmlns:cc="http://creativecommons.org/ns#"
   xmlns:rdf="http://www.w3.org/1999/02/22-rdf-syntax-ns#"
   xmlns:svg="http://www.w3.org/2000/svg"
   xmlns="http://www.w3.org/2000/svg"
   xmlns:xlink="http://www.w3.org/1999/xlink"
   xmlns:sodipodi="http://sodipodi.sourceforge.net/DTD/sodipodi-0.dtd"
   xmlns:inkscape="http://www.inkscape.org/namespaces/inkscape"
   width="100"
   height="100"
   id="svg3008"
   version="1.1"
   inkscape:version="0.48.4 r9939"
   sodipodi:docname="icon-intranet.svg">
  <defs
     id="defs3010">
    <defs
       id="defs4733">
      <rect
         id="SVGID_1_-92"
         x="0"
         y="0"
         width="99.941002"
         height="91.085999" />
    </defs>
    <clipPath
       id="SVGID_2_-4">
      <use
         height="1"
         width="1"
         y="0"
         x="0"
         style="overflow:visible"
         xlink:href="#SVGID_1_-92"
         overflow="visible"
         id="use4737" />
    </clipPath>
    <defs
       id="defs4710">
      <rect
         id="SVGID_1_-9"
         x="0"
         y="0.001"
         width="70.989998"
         height="70.988998" />
    </defs>
    <clipPath
       id="SVGID_2_-16">
      <use
         height="1"
         width="1"
         y="0"
         x="0"
         style="overflow:visible"
         xlink:href="#SVGID_1_-9"
         overflow="visible"
         id="use4714" />
    </clipPath>
  </defs>
  <sodipodi:namedview
     id="base"
     pagecolor="#ffffff"
     bordercolor="#666666"
     borderopacity="1.0"
     inkscape:pageopacity="0.0"
     inkscape:pageshadow="2"
     inkscape:zoom="2"
     inkscape:cx="0.69763828"
     inkscape:cy="-13.95949"
     inkscape:document-units="px"
     inkscape:current-layer="capa1"
     showgrid="false"
     inkscape:window-width="1440"
     inkscape:window-height="845"
     inkscape:window-x="0"
     inkscape:window-y="27"
     inkscape:window-maximized="1"
     showguides="true"
     inkscape:guide-bbox="true">
    <sodipodi:guide
       orientation="1,0"
       position="517.1981,771.25147"
       id="guide4126" />
    <sodipodi:guide
       orientation="1,0"
       position="550.71429,709.28572"
       id="guide4366" />
    <sodipodi:guide
       orientation="1,0"
       position="80.963727,110.66221"
       id="guide4658" />
    <sodipodi:guide
       orientation="1,0"
       position="529.26943,-512.29886"
       id="guide5163" />
    <sodipodi:guide
       orientation="0,1"
       position="248.90159,-436.28488"
       id="guide5378" />
    <sodipodi:guide
       orientation="1,0"
       position="613.06158,596.09101"
       id="guide4779" />
  </sodipodi:namedview>
  <metadata
     id="metadata3013">
    <rdf:RDF>
      <cc:Work
         rdf:about="">
        <dc:format>image/svg+xml</dc:format>
        <dc:type
           rdf:resource="http://purl.org/dc/dcmitype/StillImage" />
        <dc:title></dc:title>
      </cc:Work>
    </rdf:RDF>
  </metadata>
  <g
     inkscape:label="Capa 1"
     inkscape:groupmode="layer"
     id="capa1"
     style="display:inline"
     transform="translate(0,-952.36218)">
    <text
       xml:space="preserve"
       style="font-size:40px;font-style:normal;font-weight:normal;line-height:125%;letter-spacing:0px;word-spacing:0px;fill:#000000;fill-opacity:1;stroke:none;font-family:Sans"
       x="241.42645"
       y="248.28076"
       id="text4128"
       sodipodi:linespacing="125%"><tspan
         sodipodi:role="line"
         id="tspan4130"
         x="241.42645"
         y="248.28076" /></text>
    <flowRoot
       xml:space="preserve"
       id="flowRoot4132"
       style="font-size:40px;font-style:normal;font-weight:normal;line-height:125%;letter-spacing:0px;word-spacing:0px;fill:#000000;fill-opacity:1;stroke:none;font-family:Sans"><flowRegion
         id="flowRegion4134"><rect
           id="rect4136"
           width="319.20819"
           height="51.012703"
           x="228.79955"
           y="306.8696" /></flowRegion><flowPara
         id="flowPara4138" /></flowRoot>    <flowRoot
       xml:space="preserve"
       id="flowRoot4299"
       style="font-size:40px;font-style:normal;font-weight:normal;line-height:125%;letter-spacing:0px;word-spacing:0px;fill:#000000;fill-opacity:1;stroke:none;font-family:Sans"><flowRegion
         id="flowRegion4301"><rect
           id="rect4303"
           width="23.233509"
           height="49.497475"
           x="587.90875"
           y="181.61069" /></flowRegion><flowPara
         id="flowPara4305" /></flowRoot>    <path
       style="fill:#000000;fill-opacity:1"
       d="m 33.038703,1051.8484 c -0.67514,-0.2824 -1.22752,-1.1167 -1.22752,-1.8539 0,-2.8297 5.22856,-17.9667 8.57555,-24.8267 l 3.503828,-7.1815 -4.676728,-4.7482 -4.67672,-4.7481 -7.00955,3.72 c -7.56214,4.0132 -14.07947,6.3528 -21.5619696,7.7403 -4.48534,0.8318 -4.77997,0.752 -5.64658002,-1.5272 -1.39216998,-3.6618 -1.31043,-3.7592 4.73227002,-5.6393 3.10562,-0.9663 9.1309496,-3.5578 13.3896196,-5.7588 l 7.74305,-4.0018 -2.33898,-1.894 c -3.41567,-2.7658 -12.30476,-7.0667 -18.8506296,-9.1205 -5.32803002,-1.6717 -5.66289002,-1.9544 -5.08609002,-4.29284 0.33959,-1.3768 0.9176,-2.79514 1.28446002,-3.15189 1.08524,-1.05531 16.7280496,3.84812 25.3515096,7.94683 l 7.99025,3.7976 4.63739,-4.7082 4.637386,-4.70818 -4.445426,-8.88017 c -3.79546,-7.58182 -8.54219,-23.0705 -7.41554,-24.19714 0.19686,-0.19687 1.56815,-0.66168 3.04731,-1.03293 2.11799,-0.53158 2.81064,-0.28773 3.26013,1.1477 1.99003,6.35508 5.782158,15.34251 8.388876,19.88184 l 3.039497,5.29295 3.008687,-4.62525 c 1.654777,-2.54388 4.448458,-8.46097 6.208181,-13.14907 3.240495,-8.63306 4.883245,-10.26066 8.192944,-8.1174 1.196907,0.77507 1.078212,2.11146 -0.807287,9.08926 -1.21578,4.49932 -3.985682,11.8816 -6.155337,16.40508 l -3.944829,8.22452 4.645992,4.71699 4.645992,4.7169 5.016198,-2.8291 c 6.53103,-3.6834 16.577859,-7.43546 23.068711,-8.6152 4.962867,-0.90203 5.201438,-0.84476 6.077257,1.45881 1.389095,3.65359 1.305925,3.75249 -4.73498,5.63219 -6.320364,1.9666 -20.867812,9.2068 -20.867812,10.3859 0,1.1275 14.381576,8.3255 20.622308,10.3215 2.970595,0.95 5.533069,1.8367 5.694379,1.9702 0.16132,0.1335 0.003,1.3996 -0.35196,2.8136 -0.469888,1.8722 -1.280374,2.5709 -2.982097,2.5709 -3.663828,0 -19.965274,-5.5827 -25.889791,-8.8665 l -5.362198,-2.972 -4.834386,4.8343 -4.834386,4.8345 2.973009,5.2584 c 3.644915,6.4469 7.680685,17.5639 8.598818,23.6864 0.646826,4.3134 0.548598,4.5933 -1.820255,5.1879 -2.916952,0.732 -4.579632,-0.044 -4.579632,-2.1378 0,-2.3495 -5.61858,-15.1782 -8.634378,-19.7145 l -2.744716,-4.1287 -3.240699,5.4181 c -1.782385,2.98 -4.476366,8.815 -5.986616,12.9668 -2.71951,7.4761 -4.14731,8.8628 -7.62651,7.4074 z m 20.887186,-53.3587 -3.847657,-3.9404 -3.908754,3.9478 -3.908755,3.9478 3.828353,3.9206 3.828351,3.9206 3.928059,-3.928 3.928059,-3.9281 z"
       id="path3322"
       inkscape:connector-curvature="0"
       sodipodi:nodetypes="csscccsscsscscssscccssssscssssscccssssscccsscccsssscccscccccccccc"
       inkscape:export-filename="/home/felix/git/xarxanet7/Xarxanet/sites/all/themes/sasson_xarxanet/images/pictos/otrs-verd.png"
       inkscape:export-xdpi="90"
       inkscape:export-ydpi="90" />
  </g>
  <g
     style="display:inline"
     id="g4076"
     inkscape:groupmode="layer"
     inkscape:label="copia Capa 1"
     transform="translate(0,-952.36218)">
    <text
       sodipodi:linespacing="125%"
       id="text4122"
       y="227.06755"
       x="-510.93515"
       style="font-size:40px;font-style:normal;font-weight:normal;line-height:125%;letter-spacing:0px;word-spacing:0px;fill:#000000;fill-opacity:1;stroke:none;font-family:Sans"
       xml:space="preserve"><tspan
         y="227.06755"
         x="-510.93515"
         id="tspan4124"
         sodipodi:role="line" /></text>
    <flowRoot
       style="font-size:40px;font-style:normal;font-weight:normal;line-height:125%;letter-spacing:0px;word-spacing:0px;fill:#000000;fill-opacity:1;stroke:none;font-family:Sans"
       id="flowRoot4126"
       xml:space="preserve"
       transform="translate(-752.3616,-21.213203)"><flowRegion
         id="flowRegion4128"><rect
           y="306.8696"
           x="228.79955"
           height="51.012703"
           width="319.20819"
           id="rect4130" /></flowRegion><flowPara
         id="flowPara4132" /></flowRoot>    <flowRoot
       style="font-size:40px;font-style:normal;font-weight:normal;line-height:125%;letter-spacing:0px;word-spacing:0px;fill:#000000;fill-opacity:1;stroke:none;font-family:Sans"
       id="flowRoot4202"
       xml:space="preserve"
       transform="translate(-752.3616,-21.213203)"><flowRegion
         id="flowRegion4204"><rect
           y="181.61069"
           x="587.90875"
           height="49.497475"
           width="23.233509"
           id="rect4206" /></flowRegion><flowPara
         id="flowPara4208" /></flowRoot>  </g>
  <g
     inkscape:groupmode="layer"
     id="layer1"
     inkscape:label="Mení"
     transform="translate(0,-952.36218)" />
</svg>
