<?xml version="1.0" encoding="UTF-8" standalone="no"?>
<!-- Created with Inkscape (http://www.inkscape.org/) -->

<svg
   xmlns:dc="http://purl.org/dc/elements/1.1/"
   xmlns:cc="http://creativecommons.org/ns#"
   xmlns:rdf="http://www.w3.org/1999/02/22-rdf-syntax-ns#"
   xmlns:svg="http://www.w3.org/2000/svg"
   xmlns="http://www.w3.org/2000/svg"
   xmlns:xlink="http://www.w3.org/1999/xlink"
   version="1.2"
   width="100"
   height="100"
   id="svg3008">
  <defs
     id="defs3010">
    <defs
       id="defs4733">
      <rect
         width="99.941002"
         height="91.085999"
         x="0"
         y="0"
         id="SVGID_1_-92" />
    </defs>
    <clipPath
       id="SVGID_2_-4">
      <use
         id="use4737"
         style="overflow:visible"
         x="0"
         y="0"
         width="1"
         height="1"
         xlink:href="#SVGID_1_-92" />
    </clipPath>
    <defs
       id="defs4710">
      <rect
         width="70.989998"
         height="70.988998"
         x="0"
         y="0.001"
         id="SVGID_1_-9" />
    </defs>
    <clipPath
       id="SVGID_2_-16">
      <use
         id="use4714"
         style="overflow:visible"
         x="0"
         y="0"
         width="1"
         height="1"
         xlink:href="#SVGID_1_-9" />
    </clipPath>
    <clipPath
       id="SVGID_2_-5-8">
      <rect
         width="76"
         height="95.635002"
         x="0"
         y="0"
         id="use4664-4" />
    </clipPath>
    <clipPath
       id="clipPath4599">
      <rect
         width="76"
         height="95.635002"
         x="0"
         y="0"
         id="use4601" />
    </clipPath>
    <clipPath
       id="clipPath4603">
      <rect
         width="76"
         height="95.635002"
         x="0"
         y="0"
         id="use4605" />
    </clipPath>
    <clipPath
       id="clipPath4607">
      <rect
         width="76"
         height="95.635002"
         x="0"
         y="0"
         id="use4609" />
    </clipPath>
    <clipPath
       id="clipPath4611">
      <rect
         width="76"
         height="95.635002"
         x="0"
         y="0"
         id="use4613" />
    </clipPath>
    <clipPath
       id="clipPath4615">
      <rect
         width="76"
         height="95.635002"
         x="0"
         y="0"
         id="use4617" />
    </clipPath>
    <clipPath
       id="clipPath4619">
      <rect
         width="76"
         height="95.635002"
         x="0"
         y="0"
         id="use4621" />
    </clipPath>
    <clipPath
       id="clipPath4623">
      <rect
         width="76"
         height="95.635002"
         x="0"
         y="0"
         id="use4625" />
    </clipPath>
    <clipPath
       id="clipPath4627">
      <rect
         width="76"
         height="95.635002"
         x="0"
         y="0"
         id="use4629" />
    </clipPath>
    <clipPath
       id="SVGID_2_-4-1">
      <use
         id="use4737-2"
         style="overflow:visible"
         x="0"
         y="0"
         width="1"
         height="1"
         xlink:href="#SVGID_1_-92" />
    </clipPath>
    <clipPath
       id="SVGID_2_-01">
      <rect
         width="99.083"
         height="100"
         x="0"
         y="0"
         id="use5945" />
    </clipPath>
    <clipPath
       id="clipPath5720">
      <rect
         width="99.083"
         height="100"
         x="0"
         y="0"
         id="use5722" />
    </clipPath>
    <clipPath
       id="clipPath5724">
      <rect
         width="99.083"
         height="100"
         x="0"
         y="0"
         id="use5726" />
    </clipPath>
    <clipPath
       id="SVGID_2_-3">
      <rect
         width="99.999001"
         height="100.001"
         x="0"
         y="0"
         id="use5919" />
    </clipPath>
    <clipPath
       id="clipPath5802">
      <rect
         width="99.999001"
         height="100.001"
         x="0"
         y="0"
         id="use5804" />
    </clipPath>
  </defs>
  <metadata
     id="metadata3013">
    <rdf:RDF>
      <cc:Work
         rdf:about="">
        <dc:format>image/svg+xml</dc:format>
        <dc:type
           rdf:resource="http://purl.org/dc/dcmitype/StillImage" />
        <dc:title></dc:title>
      </cc:Work>
    </rdf:RDF>
  </metadata>
  <g
     transform="translate(0,-952.36218)"
     id="capa1"
     style="display:inline">
    <path
       d="m 70.159884,960.83617 c -5.629179,-0.14652 -11.354776,1.91574 -15.154532,5.61763 -4.600728,4.48052 -6.401484,9.03211 -6.401484,15.80774 0,5.08044 0.553422,4.72875 -6.466805,3.46204 -12.344193,-2.2272 -21.561723,-6.97841 -31.550169,-16.33032 -2.7685763,-2.59195 -5.2126367,-4.58555 -5.4216646,-4.37653 -0.6897926,0.6898 -2.2271938,7.56473 -2.220923,9.92883 0.00836,2.88564 1.0493208,7.48687 2.220923,9.73288 0.4912158,0.93017 1.8593044,2.80202 3.004778,4.18055 2.0756476,2.49894 2.5877666,3.658 1.5677102,3.658 -0.2926392,0 -1.9523218,-0.4259 -3.6579906,-0.97982 -1.7067139,-0.55392 -3.2780822,-0.83089 -3.4620269,-0.65321 -0.5434729,0.54347 1.2342897,6.67008 2.743493,9.53684 1.7913703,3.404 6.0686059,7.4337 10.1247959,9.4717 l 3.200741,1.5677 -3.984597,0.1296 c -3.65172,0.1255 -3.984597,0.2048 -3.984597,1.0451 0,2.3129 3.858637,7.0489 7.838552,9.6022 1.258349,0.8048 3.872767,2.1028 5.813592,2.8741 1.941891,0.7734 3.591102,1.5907 3.65799,1.829 0.156772,0.554 -4.979569,3.4281 -8.818369,4.9644 -4.248517,1.6994 -8.146848,2.5617 -13.5868228,2.8742 -2.6128714,0.1463 -4.99890556,0.3424 -5.3563435,0.4573 -1.02423739,0.324 0.8522909,1.482 6.5974474,3.9192 9.3906049,3.9789 14.8749159,4.9551 25.5406129,4.7032 5.547605,-0.1359 8.853383,-0.4023 11.627185,-1.0452 l 0,-0.065 c 11.512261,-2.6671 19.826811,-7.2062 27.761536,-15.1545 6.585449,-6.5958 12.193107,-15.4538 14.827926,-23.3196 1.595888,-4.76268 3.336611,-12.99476 3.723312,-17.70207 0.177675,-2.13314 0.533022,-4.33211 0.783855,-4.83378 0.261286,-0.50166 2.155602,-2.69489 4.245883,-4.89909 3.681006,-3.88061 5.183888,-5.82613 4.441848,-5.81359 -0.198582,0 -1.964845,0.54765 -3.919278,1.17578 -5.652119,1.806 -5.968273,1.57241 -2.939457,-2.1556 2.079829,-2.55955 4.075002,-5.5105 4.572488,-6.85874 0.282188,-0.75249 0.164087,-0.75249 -1.437067,0 -0.930196,0.41806 -3.738467,1.46424 -6.270841,2.35157 l -4.572489,1.63304 -3.65799,-2.28625 c -4.589232,-2.89817 -5.689744,-3.37946 -9.014335,-3.85395 -0.795747,-0.11372 -1.612718,-0.17496 -2.416887,-0.19587 z"
       id="rect3048"
       style="fill:#000000;fill-opacity:1;stroke:none" />
    <text
       x="241.42645"
       y="248.28076"
       id="text4128"
       xml:space="preserve"
       style="font-size:40px;font-style:normal;font-weight:normal;line-height:125%;letter-spacing:0px;word-spacing:0px;fill:#000000;fill-opacity:1;stroke:none;font-family:Sans"><tspan
         x="241.42645"
         y="248.28076"
         id="tspan4130" /></text>
    <flowRoot
       id="flowRoot4132"
       xml:space="preserve"
       style="font-size:40px;font-style:normal;font-weight:normal;line-height:125%;letter-spacing:0px;word-spacing:0px;fill:#000000;fill-opacity:1;stroke:none;font-family:Sans"><flowRegion
         id="flowRegion4134"><rect
           width="319.20819"
           height="51.012703"
           x="228.79955"
           y="306.8696"
           id="rect4136" /></flowRegion><flowPara
         id="flowPara4138" /></flowRoot>    <flowRoot
       id="flowRoot4299"
       xml:space="preserve"
       style="font-size:40px;font-style:normal;font-weight:normal;line-height:125%;letter-spacing:0px;word-spacing:0px;fill:#000000;fill-opacity:1;stroke:none;font-family:Sans"><flowRegion
         id="flowRegion4301"><rect
           width="23.233509"
           height="49.497475"
           x="587.90875"
           y="181.61069"
           id="rect4303" /></flowRegion><flowPara
         id="flowPara4305" /></flowRoot>  </g>
  <g
     transform="translate(0,-952.36218)"
     id="g4076"
     style="display:inline">
    <text
       x="-510.93515"
       y="227.06755"
       id="text4122"
       xml:space="preserve"
       style="font-size:40px;font-style:normal;font-weight:normal;line-height:125%;letter-spacing:0px;word-spacing:0px;fill:#000000;fill-opacity:1;stroke:none;font-family:Sans"><tspan
         x="-510.93515"
         y="227.06755"
         id="tspan4124" /></text>
    <flowRoot
       transform="translate(-752.3616,-21.213203)"
       id="flowRoot4126"
       xml:space="preserve"
       style="font-size:40px;font-style:normal;font-weight:normal;line-height:125%;letter-spacing:0px;word-spacing:0px;fill:#000000;fill-opacity:1;stroke:none;font-family:Sans"><flowRegion
         id="flowRegion4128"><rect
           width="319.20819"
           height="51.012703"
           x="228.79955"
           y="306.8696"
           id="rect4130" /></flowRegion><flowPara
         id="flowPara4132" /></flowRoot>    <flowRoot
       transform="translate(-752.3616,-21.213203)"
       id="flowRoot4202"
       xml:space="preserve"
       style="font-size:40px;font-style:normal;font-weight:normal;line-height:125%;letter-spacing:0px;word-spacing:0px;fill:#000000;fill-opacity:1;stroke:none;font-family:Sans"><flowRegion
         id="flowRegion4204"><rect
           width="23.233509"
           height="49.497475"
           x="587.90875"
           y="181.61069"
           id="rect4206" /></flowRegion><flowPara
         id="flowPara4208" /></flowRoot>  </g>
  <g
     transform="translate(0,-952.36218)"
     id="layer1" />
</svg>
